<?xml version="1.0" encoding="UTF-8" standalone="no"?>
<!-- Created with Inkscape (http://www.inkscape.org/) -->

<svg
   xmlns:dc="http://purl.org/dc/elements/1.1/"
   xmlns:cc="http://creativecommons.org/ns#"
   xmlns:rdf="http://www.w3.org/1999/02/22-rdf-syntax-ns#"
   xmlns:svg="http://www.w3.org/2000/svg"
   xmlns="http://www.w3.org/2000/svg"
   xmlns:sodipodi="http://sodipodi.sourceforge.net/DTD/sodipodi-0.dtd"
   xmlns:inkscape="http://www.inkscape.org/namespaces/inkscape"
   width="22"
   height="22"
   id="svg2"
   version="1.1"
   inkscape:version="0.48.4 r9939"
   sodipodi:docname="pomodoro-indicator-light-33.svg">
  <defs
     id="defs4" />
  <sodipodi:namedview
     id="base"
     pagecolor="#ffffff"
     bordercolor="#666666"
     borderopacity="1.0"
     inkscape:pageopacity="0.0"
     inkscape:pageshadow="2"
     inkscape:zoom="23.681818"
     inkscape:cx="11"
     inkscape:cy="14.378119"
     inkscape:document-units="px"
     inkscape:current-layer="layer1"
     showgrid="false"
     inkscape:window-width="960"
     inkscape:window-height="1028"
     inkscape:window-x="960"
     inkscape:window-y="24"
     inkscape:window-maximized="0" />
  <metadata
     id="metadata7">
    <rdf:RDF>
      <cc:Work
         rdf:about="">
        <dc:format>image/svg+xml</dc:format>
        <dc:type
           rdf:resource="http://purl.org/dc/dcmitype/StillImage" />
        <dc:title></dc:title>
      </cc:Work>
    </rdf:RDF>
  </metadata>
  <g
     inkscape:label="Capa 1"
     inkscape:groupmode="layer"
     id="layer1"
     transform="translate(0,-1030.3622)">
    <path
       style="fill:#dfdbd2;fill-opacity:1;stroke:none"
       d="m 11,1032.3622 c -2.1276007,0 -4.0844598,0.7344 -5.6249998,1.9688 l -1.8124999,-1.8125 -1.40625,1.4062 1.8125,1.8125 c -1.23433,1.5405 -1.96875,3.4974 -1.96875,5.625 0,4.9706 4.0294369,9 8.9999997,9 4.97056,0 9,-4.0294 9,-9 0,-2.1276 -0.734421,-4.0845 -1.96875,-5.625 l 1.8125,-1.8125 -1.40625,-1.4062 -1.8125,1.8125 c -1.54054,-1.2344 -3.4974,-1.9688 -5.625,-1.9688 z m 0,2 c 3.86599,0 7,3.134 7,7 0,3.866 -3.13401,7 -7,7 -3.8659927,0 -6.9999998,-3.134 -6.9999998,-7 0,-0.3518 0.04366,-0.6933 0.09375,-1.0312 0.0079,-0.053 0.0222,-0.1039 0.03125,-0.1563 0.05617,-0.3269 0.1189091,-0.659 0.21875,-0.9687 0.06264,-0.1938 0.1399901,-0.3767 0.21875,-0.5625 0.05781,-0.1367 0.1214191,-0.2742 0.1875,-0.4063 0.156262,-0.3123 0.331803,-0.5914 0.53125,-0.875 0.183052,-0.2602 0.377806,-0.5175 0.59375,-0.75 0.02993,-0.032 0.06323,-0.062 0.09375,-0.094 0.03005,-0.031 0.06314,-0.063 0.09375,-0.094 0.2012141,-0.2012 0.4318531,-0.3868 0.65625,-0.5625 0.275206,-0.2154 0.537705,-0.4209 0.84375,-0.5937 0.03187,-0.018 0.06157,-0.045 0.09375,-0.062 0.277035,-0.1505 0.5769721,-0.2624 0.875,-0.375 0.768987,-0.2905 1.5980688,-0.4688 2.4687498,-0.4688 z m 0,1 c -0.749041,0 -1.4638607,0.1555 -2.1249997,0.4063 L 11,1041.3622 l 0,-6 z"
       id="path5679"
       inkscape:connector-curvature="0" />
  </g>
</svg>
