<?xml version="1.0" encoding="UTF-8" standalone="no"?>
<!-- Created with Inkscape (http://www.inkscape.org/) -->

<svg
   xmlns:dc="http://purl.org/dc/elements/1.1/"
   xmlns:cc="http://creativecommons.org/ns#"
   xmlns:rdf="http://www.w3.org/1999/02/22-rdf-syntax-ns#"
   xmlns:svg="http://www.w3.org/2000/svg"
   xmlns="http://www.w3.org/2000/svg"
   xmlns:sodipodi="http://sodipodi.sourceforge.net/DTD/sodipodi-0.dtd"
   xmlns:inkscape="http://www.inkscape.org/namespaces/inkscape"
   width="22"
   height="22"
   id="svg2"
   version="1.1"
   inkscape:version="0.48.4 r9939"
   sodipodi:docname="pomodoro-indicator-light-15.svg">
  <defs
     id="defs4" />
  <sodipodi:namedview
     id="base"
     pagecolor="#ffffff"
     bordercolor="#666666"
     borderopacity="1.0"
     inkscape:pageopacity="0.0"
     inkscape:pageshadow="2"
     inkscape:zoom="23.681818"
     inkscape:cx="11"
     inkscape:cy="14.378119"
     inkscape:document-units="px"
     inkscape:current-layer="layer1"
     showgrid="false"
     inkscape:window-width="960"
     inkscape:window-height="1028"
     inkscape:window-x="960"
     inkscape:window-y="24"
     inkscape:window-maximized="0" />
  <metadata
     id="metadata7">
    <rdf:RDF>
      <cc:Work
         rdf:about="">
        <dc:format>image/svg+xml</dc:format>
        <dc:type
           rdf:resource="http://purl.org/dc/dcmitype/StillImage" />
        <dc:title></dc:title>
      </cc:Work>
    </rdf:RDF>
  </metadata>
  <g
     inkscape:label="Capa 1"
     inkscape:groupmode="layer"
     id="layer1"
     transform="translate(0,-1030.3622)">
    <path
       style="fill:#dfdbd2;fill-opacity:1;stroke:none"
       d="m 11,1032.3622 c -2.1276,0 -4.084463,0.7343 -5.625,1.9687 l -1.8125,-1.8125 -1.40625,1.4063 1.8125,1.8125 C 2.734417,1037.2777 2,1039.2346 2,1041.3622 c 0,4.9706 4.029438,9 9,9 4.970563,0 9,-4.0294 9,-9 0,-2.1276 -0.73442,-4.0845 -1.96875,-5.625 l 1.8125,-1.8125 -1.40625,-1.4063 -1.8125,1.8125 c -1.540537,-1.2344 -3.4974,-1.9687 -5.625,-1.9687 z m 0,2 c 3.865993,0 7,3.134 7,7 0,0.3518 -0.04365,0.6933 -0.09375,1.0312 -0.0031,0.021 0.0033,0.042 0,0.062 -0.05301,0.3369 -0.119487,0.6809 -0.21875,1 -0.0067,0.021 -0.02436,0.041 -0.03125,0.062 -0.06306,0.1957 -0.139356,0.3748 -0.21875,0.5625 -0.061,0.144 -0.117295,0.2987 -0.1875,0.4375 -0.01039,0.021 -0.02066,0.042 -0.03125,0.062 -0.02209,0.043 -0.03956,0.083 -0.0625,0.125 -0.107761,0.1984 -0.217955,0.3763 -0.34375,0.5625 -0.02992,0.044 -0.06286,0.082 -0.09375,0.125 -0.0085,0.012 -0.02267,0.019 -0.03125,0.031 -0.180547,0.2513 -0.382246,0.4938 -0.59375,0.7187 -0.01985,0.021 -0.04239,0.042 -0.0625,0.062 -0.185449,0.1924 -0.387469,0.3923 -0.59375,0.5625 -0.06211,0.051 -0.123626,0.1074 -0.1875,0.1563 -0.0299,0.023 -0.06347,0.04 -0.09375,0.062 -0.252533,0.1876 -0.50418,0.3472 -0.78125,0.5 -0.210491,0.116 -0.433239,0.2181 -0.65625,0.3125 -0.103516,0.044 -0.206515,0.086 -0.3125,0.125 -0.750489,0.2748 -1.560564,0.4375 -2.40625,0.4375 -3.865993,0 -7,-3.134 -7,-7 0,-3.866 3.134007,-7 7,-7 z m 0,1 c -3.313709,0 -6,2.6863 -6,6 0,3.3137 2.686291,6 6,6 0.724874,0 1.419223,-0.1395 2.0625,-0.375 l -2.0625,-5.625 0,-6 z"
       id="path5589"
       inkscape:connector-curvature="0" />
  </g>
</svg>
