<?xml version="1.0" encoding="UTF-8" standalone="no"?>
<!-- Created with Inkscape (http://www.inkscape.org/) -->

<svg
   xmlns:dc="http://purl.org/dc/elements/1.1/"
   xmlns:cc="http://creativecommons.org/ns#"
   xmlns:rdf="http://www.w3.org/1999/02/22-rdf-syntax-ns#"
   xmlns:svg="http://www.w3.org/2000/svg"
   xmlns="http://www.w3.org/2000/svg"
   xmlns:sodipodi="http://sodipodi.sourceforge.net/DTD/sodipodi-0.dtd"
   xmlns:inkscape="http://www.inkscape.org/namespaces/inkscape"
   width="22"
   height="22"
   id="svg2"
   version="1.1"
   inkscape:version="0.48.4 r9939"
   sodipodi:docname="pomodoro-indicator-light-06.svg">
  <defs
     id="defs4" />
  <sodipodi:namedview
     id="base"
     pagecolor="#ffffff"
     bordercolor="#666666"
     borderopacity="1.0"
     inkscape:pageopacity="0.0"
     inkscape:pageshadow="2"
     inkscape:zoom="23.681818"
     inkscape:cx="11"
     inkscape:cy="14.378119"
     inkscape:document-units="px"
     inkscape:current-layer="layer1"
     showgrid="false"
     inkscape:window-width="960"
     inkscape:window-height="1028"
     inkscape:window-x="960"
     inkscape:window-y="24"
     inkscape:window-maximized="0" />
  <metadata
     id="metadata7">
    <rdf:RDF>
      <cc:Work
         rdf:about="">
        <dc:format>image/svg+xml</dc:format>
        <dc:type
           rdf:resource="http://purl.org/dc/dcmitype/StillImage" />
        <dc:title></dc:title>
      </cc:Work>
    </rdf:RDF>
  </metadata>
  <g
     inkscape:label="Capa 1"
     inkscape:groupmode="layer"
     id="layer1"
     transform="translate(0,-1030.3622)">
    <path
       style="fill:#dfdbd2;fill-opacity:1;stroke:none"
       d="m 11,1032.3622 c -2.1275999,0 -4.0844629,0.7344 -5.6249999,1.9688 l -1.8125003,-1.8125 -1.40625,1.4062 1.8125,1.8125 c -1.234333,1.5405 -1.96875,3.4974 -1.96875,5.625 0,4.9706 4.0294383,9 9.0000002,9 4.970563,0 9,-4.0294 9,-9 0,-2.1276 -0.734417,-4.0845 -1.96875,-5.625 l 1.8125,-1.8125 -1.40625,-1.4062 -1.8125,1.8125 c -1.540537,-1.2344 -3.4974,-1.9688 -5.625,-1.9688 z m 0,2 c 0.351805,0 0.693378,0.044 1.03125,0.094 0.02054,0 0.04202,0 0.0625,0 0.336914,0.053 0.680858,0.1195 1,0.2187 0.02127,0.01 0.04131,0.024 0.0625,0.031 0.195654,0.063 0.374792,0.1393 0.5625,0.2187 0.143941,0.061 0.298715,0.1173 0.4375,0.1875 0.263546,0.1332 0.506893,0.2733 0.75,0.4375 0.04404,0.03 0.08169,0.063 0.125,0.094 0.012,0.01 0.01931,0.023 0.03125,0.031 0.25137,0.1806 0.493828,0.3823 0.71875,0.5938 0.02102,0.02 0.04172,0.042 0.0625,0.062 0.192417,0.1854 0.392262,0.3874 0.5625,0.5937 0.02768,0.034 0.06669,0.06 0.09375,0.094 0.04688,0.059 0.08,0.1269 0.125,0.1875 0.187625,0.2525 0.347212,0.5042 0.5,0.7812 0.0066,0.012 0.02471,0.019 0.03125,0.031 0.107761,0.1983 0.192695,0.4156 0.28125,0.625 0.04368,0.1035 0.08619,0.2065 0.125,0.3125 0.274791,0.7505 0.4375,1.5605 0.4375,2.4062 0,3.866 -3.134007,7 -7,7 -3.8659929,0 -7.0000002,-3.134 -7.0000002,-7 0,-3.866 3.1340073,-7 7.0000002,-7 z m 0,1 c -3.3137089,0 -5.9999999,2.6863 -5.9999999,6 0,3.3137 2.686291,6 5.9999999,6 3.313709,0 6,-2.6863 6,-6 0,-0.7248 -0.139465,-1.4192 -0.375,-2.0625 l -5.625,2.0625 0,-6 z"
       id="path5543"
       inkscape:connector-curvature="0" />
  </g>
</svg>
