<?xml version="1.0" encoding="UTF-8" standalone="no"?>
<!-- Created with Inkscape (http://www.inkscape.org/) -->

<svg
   xmlns:dc="http://purl.org/dc/elements/1.1/"
   xmlns:cc="http://creativecommons.org/ns#"
   xmlns:rdf="http://www.w3.org/1999/02/22-rdf-syntax-ns#"
   xmlns:svg="http://www.w3.org/2000/svg"
   xmlns="http://www.w3.org/2000/svg"
   xmlns:sodipodi="http://sodipodi.sourceforge.net/DTD/sodipodi-0.dtd"
   xmlns:inkscape="http://www.inkscape.org/namespaces/inkscape"
   width="22"
   height="22"
   id="svg2"
   version="1.1"
   inkscape:version="0.48.4 r9939"
   sodipodi:docname="pomodoro-indicator-light-21.svg">
  <defs
     id="defs4" />
  <sodipodi:namedview
     id="base"
     pagecolor="#ffffff"
     bordercolor="#666666"
     borderopacity="1.0"
     inkscape:pageopacity="0.0"
     inkscape:pageshadow="2"
     inkscape:zoom="23.681818"
     inkscape:cx="11"
     inkscape:cy="14.378119"
     inkscape:document-units="px"
     inkscape:current-layer="layer1"
     showgrid="false"
     inkscape:window-width="960"
     inkscape:window-height="1028"
     inkscape:window-x="960"
     inkscape:window-y="24"
     inkscape:window-maximized="0" />
  <metadata
     id="metadata7">
    <rdf:RDF>
      <cc:Work
         rdf:about="">
        <dc:format>image/svg+xml</dc:format>
        <dc:type
           rdf:resource="http://purl.org/dc/dcmitype/StillImage" />
        <dc:title></dc:title>
      </cc:Work>
    </rdf:RDF>
  </metadata>
  <g
     inkscape:label="Capa 1"
     inkscape:groupmode="layer"
     id="layer1"
     transform="translate(0,-1030.3622)">
    <path
       style="fill:#000000;fill-opacity:1;stroke:none"
       d="m 11.000003,1032.3622 c -2.1276007,0 -4.0844607,0.7344 -5.6250007,1.9688 l -1.812505,-1.8125 -1.40625,1.4062 1.8125,1.8125 c -1.23433,1.5405 -1.96875,3.4974 -1.96875,5.625 0,4.9706 4.029445,9 9.0000057,9 4.97057,0 9,-4.0294 9,-9 0,-2.1276 -0.73441,-4.0845 -1.96875,-5.625 l 1.8125,-1.8125 -1.40625,-1.4062 -1.8125,1.8125 c -1.54053,-1.2344 -3.4974,-1.9688 -5.625,-1.9688 z m 0,2 c 3.86599,0 7,3.134 7,7 0,3.866 -3.13401,7 -7,7 -0.24467,0 -0.48116,-0.01 -0.71875,-0.031 -0.18167,-0.018 -0.3539607,-0.062 -0.5312507,-0.094 -0.053,-0.01 -0.1036401,-0.021 -0.15625,-0.031 -0.0318,-0.01 -0.0621,-0.024 -0.0937,-0.031 -0.13795,-0.03 -0.27159,-0.055 -0.40625,-0.094 -0.17047,-0.048 -0.33508,-0.096 -0.5,-0.1563 -0.10483,-0.039 -0.21012,-0.081 -0.3125,-0.125 -0.0814,-0.034 -0.1702101,-0.056 -0.25,-0.094 -0.0837,-0.04 -0.1681801,-0.082 -0.2500001,-0.125 -0.0964,-0.05 -0.18756,-0.1021 -0.28125,-0.1563 -0.0404,-0.024 -0.0851,-0.038 -0.125,-0.062 -0.11129,-0.067 -0.20539,-0.1454 -0.3125,-0.2187 -0.17034,-0.1173 -0.34056,-0.2434 -0.5,-0.375 -0.0111,-0.01 -0.0202,-0.022 -0.0312,-0.031 -1.53655,-1.2841 -2.531255,-3.2159 -2.531255,-5.375 0,-3.866 3.134015,-7 7.0000058,-7 z m 0,1 c -3.3137108,0 -6.0000007,2.6863 -6.0000007,6 0,1.8481 0.84227,3.4931 2.15625,4.5938 l 3.8437507,-4.5938 0,-6 z"
       id="path5619"
       inkscape:connector-curvature="0" />
  </g>
</svg>
