<?xml version="1.0" encoding="UTF-8" standalone="no"?>
<!-- Created with Inkscape (http://www.inkscape.org/) -->

<svg
   xmlns:dc="http://purl.org/dc/elements/1.1/"
   xmlns:cc="http://creativecommons.org/ns#"
   xmlns:rdf="http://www.w3.org/1999/02/22-rdf-syntax-ns#"
   xmlns:svg="http://www.w3.org/2000/svg"
   xmlns="http://www.w3.org/2000/svg"
   xmlns:sodipodi="http://sodipodi.sourceforge.net/DTD/sodipodi-0.dtd"
   xmlns:inkscape="http://www.inkscape.org/namespaces/inkscape"
   width="22"
   height="22"
   id="svg2"
   version="1.1"
   inkscape:version="0.48.4 r9939"
   sodipodi:docname="pomodoro-indicator-light.svg">
  <defs
     id="defs4" />
  <sodipodi:namedview
     id="base"
     pagecolor="#ffffff"
     bordercolor="#666666"
     borderopacity="1.0"
     inkscape:pageopacity="0.0"
     inkscape:pageshadow="2"
     inkscape:zoom="3.959798"
     inkscape:cx="47.065102"
     inkscape:cy="45.211691"
     inkscape:document-units="px"
     inkscape:current-layer="layer1"
     showgrid="false"
     inkscape:window-width="960"
     inkscape:window-height="1028"
     inkscape:window-x="10"
     inkscape:window-y="24"
     inkscape:window-maximized="0" />
  <metadata
     id="metadata7">
    <rdf:RDF>
      <cc:Work
         rdf:about="">
        <dc:format>image/svg+xml</dc:format>
        <dc:type
           rdf:resource="http://purl.org/dc/dcmitype/StillImage" />
        <dc:title />
      </cc:Work>
    </rdf:RDF>
  </metadata>
  <g
     inkscape:label="Capa 1"
     inkscape:groupmode="layer"
     id="layer1"
     transform="translate(0,-1030.3622)">
    <path
       style="fill:#dfdbd2;fill-opacity:1;stroke:none"
       d="m 11.000001,1032.3622 c -2.1276095,0 -4.0844725,0.7344 -5.6250025,1.9688 l -1.8125,-1.8125 -1.40625,1.4062 1.8125,1.8125 c -1.23434,1.5405 -1.96875,3.4974 -1.96875,5.625 0,4.9706 4.02943,9 9.0000025,9 4.970561,0 9,-4.0294 9,-9 0,-2.1276 -0.73442,-4.0845 -1.96875,-5.625 l 1.8125,-1.8125 -1.40625,-1.4062 -1.8125,1.8125 c -1.540539,-1.2344 -3.4974,-1.9688 -5.625,-1.9688 z m 0,2 c 3.866,0 7,3.134 7,7 0,3.866 -3.134,7 -7,7 -3.8659925,0 -7.0000025,-3.134 -7.0000025,-7 0,-0.2102 0.0131,-0.4195 0.0312,-0.625 0.003,-0.03 -0.003,-0.063 0,-0.094 0.0153,-0.1506 0.0691,-0.2899 0.0937,-0.4375 0.0108,-0.062 0.0188,-0.1258 0.0312,-0.1875 0.0102,-0.052 0.0199,-0.1047 0.0312,-0.1563 0.0309,-0.1373 0.0552,-0.272 0.0937,-0.4062 0.0481,-0.1705 0.0959,-0.3351 0.15625,-0.5 0.9814,-2.6804 3.542203,-4.5938 6.5625025,-4.5938 z m 0,1 c -2.5888295,0 -4.7838025,1.6401 -5.6250025,3.9375 l 5.6250025,2.0625 0,-6 z"
       id="path5654"
       inkscape:connector-curvature="0" />
    <flowRoot
       xml:space="preserve"
       id="flowRoot4462"
       style="font-size:40px;font-style:normal;font-weight:normal;line-height:125%;letter-spacing:0px;word-spacing:0px;fill:#000000;fill-opacity:1;stroke:none;font-family:Sans"
       transform="translate(0,1030.3622)"><flowRegion
         id="flowRegion4464"><rect
           id="rect4466"
           width="49.750011"
           height="47.982246"
           x="0"
           y="-123.71451" /></flowRegion><flowPara
         id="flowPara4468">00000000</flowPara></flowRoot>  </g>
</svg>
