<?xml version="1.0" encoding="UTF-8" standalone="no"?>
<!-- Created with Inkscape (http://www.inkscape.org/) -->

<svg
   xmlns:dc="http://purl.org/dc/elements/1.1/"
   xmlns:cc="http://creativecommons.org/ns#"
   xmlns:rdf="http://www.w3.org/1999/02/22-rdf-syntax-ns#"
   xmlns:svg="http://www.w3.org/2000/svg"
   xmlns="http://www.w3.org/2000/svg"
   xmlns:sodipodi="http://sodipodi.sourceforge.net/DTD/sodipodi-0.dtd"
   xmlns:inkscape="http://www.inkscape.org/namespaces/inkscape"
   width="22"
   height="22"
   id="svg2"
   version="1.1"
   inkscape:version="0.48.4 r9939"
   sodipodi:docname="pomodoro-indicator-light-14.svg">
  <defs
     id="defs4" />
  <sodipodi:namedview
     id="base"
     pagecolor="#ffffff"
     bordercolor="#666666"
     borderopacity="1.0"
     inkscape:pageopacity="0.0"
     inkscape:pageshadow="2"
     inkscape:zoom="23.681818"
     inkscape:cx="11"
     inkscape:cy="14.378119"
     inkscape:document-units="px"
     inkscape:current-layer="layer1"
     showgrid="false"
     inkscape:window-width="960"
     inkscape:window-height="1028"
     inkscape:window-x="960"
     inkscape:window-y="24"
     inkscape:window-maximized="0" />
  <metadata
     id="metadata7">
    <rdf:RDF>
      <cc:Work
         rdf:about="">
        <dc:format>image/svg+xml</dc:format>
        <dc:type
           rdf:resource="http://purl.org/dc/dcmitype/StillImage" />
        <dc:title></dc:title>
      </cc:Work>
    </rdf:RDF>
  </metadata>
  <g
     inkscape:label="Capa 1"
     inkscape:groupmode="layer"
     id="layer1"
     transform="translate(0,-1030.3622)">
    <path
       style="fill:#000000;fill-opacity:1;stroke:none"
       d="m 11,1032.3622 c -2.1276,0 -4.084463,0.7343 -5.625,1.9687 l -1.8125,-1.8125 -1.40625,1.4063 1.8125,1.8125 C 2.734417,1037.2777 2,1039.2346 2,1041.3622 c 0,4.9706 4.029438,9 9,9 4.970563,0 9,-4.0294 9,-9 0,-2.1276 -0.734417,-4.0845 -1.96875,-5.625 l 1.8125,-1.8125 -1.40625,-1.4063 -1.8125,1.8125 c -1.540537,-1.2344 -3.4974,-1.9687 -5.625,-1.9687 z m 0,2 c 3.865993,0 7,3.134 7,7 0,0.2416 -0.0074,0.4834 -0.03125,0.7187 -0.0082,0.082 -0.02022,0.1691 -0.03125,0.25 -0.02062,0.149 -0.06391,0.2917 -0.09375,0.4375 -0.0321,0.1578 -0.05123,0.315 -0.09375,0.4688 -0.01977,0.072 -0.04053,0.1481 -0.0625,0.2187 -0.04,0.1282 -0.109187,0.2501 -0.15625,0.375 -0.03197,0.085 -0.05863,0.167 -0.09375,0.25 -0.0037,0.01 0.0038,0.022 0,0.031 -0.04014,0.094 -0.08094,0.1896 -0.125,0.2812 -0.08674,0.1811 -0.179795,0.3592 -0.28125,0.5313 -0.07094,0.1198 -0.141011,0.2287 -0.21875,0.3437 -0.09002,0.1337 -0.182459,0.2481 -0.28125,0.375 -0.0412,0.053 -0.08233,0.1046 -0.125,0.1563 -0.0371,0.045 -0.08681,0.081 -0.125,0.125 -0.108965,0.1256 -0.226227,0.2574 -0.34375,0.375 -0.140259,0.14 -0.285821,0.2784 -0.4375,0.4062 -0.02205,0.019 -0.04022,0.044 -0.0625,0.062 -0.06236,0.051 -0.123365,0.1072 -0.1875,0.1563 -0.113007,0.087 -0.225443,0.17 -0.34375,0.25 -0.120116,0.081 -0.249749,0.1452 -0.375,0.2187 -0.01266,0.01 -0.01853,0.024 -0.03125,0.031 -1.029554,0.5955 -2.225091,0.9375 -3.5,0.9375 -3.865993,0 -7,-3.134 -7,-7 0,-3.866 3.134007,-7 7,-7 z m 0,1 c -3.313709,0 -6,2.6863 -6,6 0,3.3137 2.686291,6 6,6 1.092887,0 2.117466,-0.302 3,-0.8125 l -3,-5.1875 0,-6 z"
       id="path5584"
       inkscape:connector-curvature="0" />
  </g>
</svg>
