<?xml version="1.0" encoding="UTF-8" standalone="no"?>
<!-- Created with Inkscape (http://www.inkscape.org/) -->

<svg
   xmlns:dc="http://purl.org/dc/elements/1.1/"
   xmlns:cc="http://creativecommons.org/ns#"
   xmlns:rdf="http://www.w3.org/1999/02/22-rdf-syntax-ns#"
   xmlns:svg="http://www.w3.org/2000/svg"
   xmlns="http://www.w3.org/2000/svg"
   xmlns:sodipodi="http://sodipodi.sourceforge.net/DTD/sodipodi-0.dtd"
   xmlns:inkscape="http://www.inkscape.org/namespaces/inkscape"
   width="22"
   height="22"
   id="svg2"
   version="1.1"
   inkscape:version="0.48.4 r9939"
   sodipodi:docname="pomodoro-indicator-light-30.svg">
  <defs
     id="defs4" />
  <sodipodi:namedview
     id="base"
     pagecolor="#ffffff"
     bordercolor="#666666"
     borderopacity="1.0"
     inkscape:pageopacity="0.0"
     inkscape:pageshadow="2"
     inkscape:zoom="23.681818"
     inkscape:cx="11"
     inkscape:cy="14.378119"
     inkscape:document-units="px"
     inkscape:current-layer="layer1"
     showgrid="false"
     inkscape:window-width="960"
     inkscape:window-height="1028"
     inkscape:window-x="960"
     inkscape:window-y="24"
     inkscape:window-maximized="0" />
  <metadata
     id="metadata7">
    <rdf:RDF>
      <cc:Work
         rdf:about="">
        <dc:format>image/svg+xml</dc:format>
        <dc:type
           rdf:resource="http://purl.org/dc/dcmitype/StillImage" />
        <dc:title></dc:title>
      </cc:Work>
    </rdf:RDF>
  </metadata>
  <g
     inkscape:label="Capa 1"
     inkscape:groupmode="layer"
     id="layer1"
     transform="translate(0,-1030.3622)">
    <path
       style="fill:#000000;fill-opacity:1;stroke:none"
       d="m 11.000002,1032.3622 c -2.1276008,0 -4.0844738,0.7344 -5.6250038,1.9688 l -1.8125,-1.8125 -1.40625,1.4062 1.8125,1.8125 c -1.23434,1.5405 -1.96875,3.4974 -1.96875,5.625 0,4.9706 4.02943,9 9.0000038,9 4.97056,0 9,-4.0294 9,-9 0,-2.1276 -0.73442,-4.0845 -1.96875,-5.625 l 1.8125,-1.8125 -1.40625,-1.4062 -1.8125,1.8125 c -1.54054,-1.2344 -3.4974,-1.9688 -5.625,-1.9688 z m 0,2 c 3.866,0 7,3.134 7,7 0,3.866 -3.134,7 -7,7 -3.8659937,0 -7.0000037,-3.134 -7.0000037,-7 0,-0.2101 0.0131,-0.4195 0.0312,-0.625 0.003,-0.031 -0.003,-0.063 0,-0.094 0.0153,-0.1506 0.0691,-0.2899 0.0937,-0.4375 0.0105,-0.063 0.0191,-0.1255 0.0312,-0.1875 0.0102,-0.052 0.0199,-0.1047 0.0312,-0.1563 0.0304,-0.1379 0.0553,-0.2716 0.0937,-0.4062 0.0481,-0.1705 0.0959,-0.3351 0.15625,-0.5 0.0389,-0.1049 0.0812,-0.2101 0.125,-0.3125 0.0344,-0.081 0.0564,-0.1702 0.0937,-0.25 0.0397,-0.084 0.0821,-0.1682 0.125,-0.25 0.0457,-0.088 0.10695,-0.164 0.15625,-0.25 0.028,-0.048 0.0334,-0.1086 0.0625,-0.1563 0.0674,-0.1113 0.1454,-0.2054 0.21875,-0.3125 0.0753,-0.1093 0.16873,-0.2075 0.25,-0.3125 0.0549,-0.071 0.0987,-0.1498 0.15625,-0.2187 1.28406,-1.5366 3.215953,-2.5313 5.3750037,-2.5313 z m 0,1 c -1.8481208,0 -3.4931208,0.8423 -4.5937538,2.1563 l 4.5937538,3.8437 0,-6 z"
       id="path5664"
       inkscape:connector-curvature="0" />
  </g>
</svg>
