<?xml version="1.0" encoding="UTF-8" standalone="no"?>
<!-- Created with Inkscape (http://www.inkscape.org/) -->

<svg
   xmlns:dc="http://purl.org/dc/elements/1.1/"
   xmlns:cc="http://creativecommons.org/ns#"
   xmlns:rdf="http://www.w3.org/1999/02/22-rdf-syntax-ns#"
   xmlns:svg="http://www.w3.org/2000/svg"
   xmlns="http://www.w3.org/2000/svg"
   xmlns:sodipodi="http://sodipodi.sourceforge.net/DTD/sodipodi-0.dtd"
   xmlns:inkscape="http://www.inkscape.org/namespaces/inkscape"
   width="22"
   height="22"
   id="svg2"
   version="1.1"
   inkscape:version="0.48.4 r9939"
   sodipodi:docname="pomodoro-indicator-light-18.svg">
  <defs
     id="defs4" />
  <sodipodi:namedview
     id="base"
     pagecolor="#ffffff"
     bordercolor="#666666"
     borderopacity="1.0"
     inkscape:pageopacity="0.0"
     inkscape:pageshadow="2"
     inkscape:zoom="23.681818"
     inkscape:cx="11"
     inkscape:cy="14.378119"
     inkscape:document-units="px"
     inkscape:current-layer="layer1"
     showgrid="false"
     inkscape:window-width="960"
     inkscape:window-height="1028"
     inkscape:window-x="960"
     inkscape:window-y="24"
     inkscape:window-maximized="0" />
  <metadata
     id="metadata7">
    <rdf:RDF>
      <cc:Work
         rdf:about="">
        <dc:format>image/svg+xml</dc:format>
        <dc:type
           rdf:resource="http://purl.org/dc/dcmitype/StillImage" />
        <dc:title></dc:title>
      </cc:Work>
    </rdf:RDF>
  </metadata>
  <g
     inkscape:label="Capa 1"
     inkscape:groupmode="layer"
     id="layer1"
     transform="translate(0,-1030.3622)">
    <path
       style="fill:#000000;fill-opacity:1;stroke:none"
       d="m 11.000003,1032.3622 c -2.1276,0 -4.084465,0.7343 -5.625005,1.9687 l -1.8125,-1.8125 -1.406251,1.4063 1.812501,1.8125 c -1.23433,1.5405 -1.968751,3.4974 -1.968751,5.625 0,4.9706 4.029441,9 9.000006,9 4.97056,0 9,-4.0294 9,-9 0,-2.1276 -0.73442,-4.0845 -1.96875,-5.625 l 1.8125,-1.8125 -1.40625,-1.4063 -1.8125,1.8125 c -1.54054,-1.2344 -3.4974,-1.9687 -5.625,-1.9687 z m 0,2 c 3.86599,0 7,3.134 7,7 0,3.866 -3.13401,7 -7,7 -0.24085,0 -0.48506,-0.01 -0.71875,-0.031 -0.0969,-0.01 -0.18551,-0.049 -0.28125,-0.062 -0.0942,-0.014 -0.18809,-0.014 -0.28125,-0.031 -3.252475,-0.6033 -5.718755,-3.4478 -5.718755,-6.875 0,-3.866 3.134015,-7 7.000005,-7 z m 0,1 c -3.31371,0 -6.000005,2.6863 -6.000005,6 0,2.9437 2.109805,5.3961 4.906255,5.9062 l 1.09375,-5.9062 0,-6 z"
       id="path5604"
       inkscape:connector-curvature="0" />
  </g>
</svg>
