<?xml version="1.0" encoding="UTF-8" standalone="no"?>
<!-- Created with Inkscape (http://www.inkscape.org/) -->

<svg
   xmlns:dc="http://purl.org/dc/elements/1.1/"
   xmlns:cc="http://creativecommons.org/ns#"
   xmlns:rdf="http://www.w3.org/1999/02/22-rdf-syntax-ns#"
   xmlns:svg="http://www.w3.org/2000/svg"
   xmlns="http://www.w3.org/2000/svg"
   xmlns:sodipodi="http://sodipodi.sourceforge.net/DTD/sodipodi-0.dtd"
   xmlns:inkscape="http://www.inkscape.org/namespaces/inkscape"
   width="22"
   height="22"
   id="svg2"
   version="1.1"
   inkscape:version="0.48.4 r9939"
   sodipodi:docname="pomodoro-indicator-light-03.svg">
  <defs
     id="defs4" />
  <sodipodi:namedview
     id="base"
     pagecolor="#ffffff"
     bordercolor="#666666"
     borderopacity="1.0"
     inkscape:pageopacity="0.0"
     inkscape:pageshadow="2"
     inkscape:zoom="23.681818"
     inkscape:cx="11"
     inkscape:cy="11"
     inkscape:document-units="px"
     inkscape:current-layer="layer1"
     showgrid="false"
     inkscape:window-width="960"
     inkscape:window-height="1028"
     inkscape:window-x="960"
     inkscape:window-y="24"
     inkscape:window-maximized="0" />
  <metadata
     id="metadata7">
    <rdf:RDF>
      <cc:Work
         rdf:about="">
        <dc:format>image/svg+xml</dc:format>
        <dc:type
           rdf:resource="http://purl.org/dc/dcmitype/StillImage" />
        <dc:title></dc:title>
      </cc:Work>
    </rdf:RDF>
  </metadata>
  <g
     inkscape:label="Capa 1"
     inkscape:groupmode="layer"
     id="layer1"
     transform="translate(0,-1030.3622)">
    <path
       style="fill:#dfdbd2;fill-opacity:1;stroke:none"
       d="m 11,1032.3622 c -2.1276,0 -4.084463,0.7344 -5.625,1.9688 l -1.8125,-1.8125 -1.40625,1.4062 1.8125,1.8125 C 2.734416,1037.2777 2,1039.2346 2,1041.3622 c 0,4.9706 4.029437,9 9,9 4.970563,0 9,-4.0294 9,-9 0,-2.1276 -0.734417,-4.0845 -1.96875,-5.625 l 1.8125,-1.8125 -1.40625,-1.4062 -1.8125,1.8125 c -1.540537,-1.2344 -3.4974,-1.9688 -5.625,-1.9688 z m 0,2 c 0.214373,0 0.415624,0.013 0.625,0.031 0.03075,0 0.06311,0 0.09375,0 0.177979,0.018 0.35753,0.063 0.53125,0.094 0.05236,0.01 0.104302,0.021 0.15625,0.031 0.148905,0.03 0.292232,0.055 0.4375,0.094 0.0813,0.022 0.169903,0.038 0.25,0.062 0.113887,0.035 0.232462,0.084 0.34375,0.125 0.09778,0.036 0.185591,0.085 0.28125,0.125 0.211897,0.089 0.424366,0.1727 0.625,0.2813 0.06126,0.033 0.127367,0.059 0.1875,0.094 0.132969,0.078 0.247797,0.1641 0.375,0.25 0.185248,0.1247 0.359123,0.2644 0.53125,0.4063 0.01746,0.014 0.04518,0.017 0.0625,0.031 1.526674,1.2841 2.5,3.224 2.5,5.375 0,3.866 -3.134007,7 -7,7 -3.865993,0 -7,-3.134 -7,-7 0,-3.866 3.134007,-7 7,-7 z m 0,1 c -3.313709,0 -6,2.6863 -6,6 0,3.3137 2.686291,6 6,6 3.313709,0 6,-2.6863 6,-6 0,-1.8481 -0.84227,-3.4931 -2.15625,-4.5937 L 11,1041.3622 l 0,-6 z"
       id="path5528"
       inkscape:connector-curvature="0" />
  </g>
</svg>
