<?xml version="1.0" encoding="UTF-8" standalone="no"?>
<!-- Created with Inkscape (http://www.inkscape.org/) -->

<svg
   xmlns:dc="http://purl.org/dc/elements/1.1/"
   xmlns:cc="http://creativecommons.org/ns#"
   xmlns:rdf="http://www.w3.org/1999/02/22-rdf-syntax-ns#"
   xmlns:svg="http://www.w3.org/2000/svg"
   xmlns="http://www.w3.org/2000/svg"
   xmlns:sodipodi="http://sodipodi.sourceforge.net/DTD/sodipodi-0.dtd"
   xmlns:inkscape="http://www.inkscape.org/namespaces/inkscape"
   width="22"
   height="22"
   id="svg2"
   version="1.1"
   inkscape:version="0.91 r13725"
   sodipodi:docname="pomodoro-indicator-all.svg">
  <defs
     id="defs4" />
  <sodipodi:namedview
     id="base"
     pagecolor="#ffffff"
     bordercolor="#666666"
     borderopacity="1.0"
     inkscape:pageopacity="0.0"
     inkscape:pageshadow="2"
     inkscape:zoom="2.1777907"
     inkscape:cx="-127.06872"
     inkscape:cy="-224.47868"
     inkscape:document-units="px"
     inkscape:current-layer="layer1"
     showgrid="false"
     inkscape:window-width="1920"
     inkscape:window-height="1056"
     inkscape:window-x="0"
     inkscape:window-y="24"
     inkscape:window-maximized="1" />
  <metadata
     id="metadata7">
    <rdf:RDF>
      <cc:Work
         rdf:about="">
        <dc:format>image/svg+xml</dc:format>
        <dc:type
           rdf:resource="http://purl.org/dc/dcmitype/StillImage" />
        <dc:title />
      </cc:Work>
    </rdf:RDF>
  </metadata>
  <g
     inkscape:label="Capa 1"
     inkscape:groupmode="layer"
     id="layer1"
     transform="translate(0,-1030.3622)">
    <path
       style="fill:#000000;fill-opacity:1;stroke:none"
       d="m 265.6634,921.72273 c -2.1276,0 -4.08446,0.7344 -5.625,1.9688 l -1.8125,-1.8125 -1.40625,1.4062 1.8125,1.8125 c -1.23433,1.5405 -1.96875,3.4974 -1.96875,5.625 0,4.9706 4.02944,9 9,9 4.97056,0 9,-4.0294 9,-9 0,-2.1276 -0.73442,-4.0845 -1.96875,-5.625 l 1.8125,-1.8125 -1.40625,-1.4062 -1.8125,1.8125 c -1.54054,-1.2344 -3.4974,-1.9688 -5.625,-1.9688 z m 0,2 c 0.21408,0 0.41689,0.01 0.625,0.031 0.0307,0 0.0631,0 0.0937,0 0.17693,0.021 0.35763,0.062 0.53125,0.094 3.26746,0.5911 5.75,3.4372 5.75,6.875 0,3.866 -3.13401,7 -7,7 -3.86599,0 -7,-3.134 -7,-7 0,-3.866 3.13401,-7 7,-7 z m 0,1 c -3.31371,0 -6,2.6863 -6,6 0,3.3137 2.68629,6 6,6 3.31371,0 6,-2.6863 6,-6 0,-2.9543 -2.12606,-5.4084 -4.9375,-5.9062 l -1.0625,5.9062 0,-6 z"
       id="path5494"
       inkscape:connector-curvature="0" />
    <path
       style="fill:#000000;fill-opacity:1;stroke:none"
       d="m 266.46697,942.07993 c -2.1276,0 -4.08446,0.7343 -5.625,1.9687 l -1.8125,-1.8125 -1.40625,1.4063 1.8125,1.8125 c -1.23433,1.5405 -1.96875,3.4974 -1.96875,5.625 0,4.9706 4.02944,9 9,9 4.97057,0 9,-4.0294 9,-9 0,-2.1276 -0.73441,-4.0845 -1.96875,-5.625 l 1.8125,-1.8125 -1.40625,-1.4063 -1.8125,1.8125 c -1.54053,-1.2344 -3.4974,-1.9687 -5.625,-1.9687 z m 0,2 c 0.20778,0 0.42117,0.014 0.625,0.031 0.0308,0 0.0631,0 0.0937,0 0.0434,0 0.0818,0.026 0.125,0.031 0.43045,0.05 0.84785,0.1252 1.25,0.25 0.0944,0.029 0.18881,0.06 0.28125,0.094 0.004,0 -0.004,0.03 0,0.031 2.69486,0.9737 4.625,3.5317 4.625,6.5625 0,3.866 -3.134,7 -7,7 -3.86599,0 -7,-3.134 -7,-7 0,-3.866 3.13401,-7 7,-7 z m 0,1 c -3.31371,0 -6,2.6863 -6,6 0,3.3137 2.68629,6 6,6 3.31371,0 6,-2.6863 6,-6 0,-2.5992 -1.65687,-4.7915 -3.96875,-5.625 l -2.03125,5.625 0,-6 z"
       id="path5499"
       inkscape:connector-curvature="0" />
    <path
       style="fill:#000000;fill-opacity:1;stroke:none"
       d="m 266.71155,961.18263 c -2.1276,0 -4.08446,0.7343 -5.625,1.9687 l -1.8125,-1.8125 -1.40625,1.4063 1.8125,1.8125 c -1.23434,1.5405 -1.96875,3.4974 -1.96875,5.625 0,4.9706 4.02944,9 9,9 4.97056,0 9,-4.0294 9,-9 0,-2.1276 -0.73442,-4.0845 -1.96875,-5.625 l 1.8125,-1.8125 -1.40625,-1.4063 -1.8125,1.8125 c -1.54054,-1.2344 -3.4974,-1.9687 -5.625,-1.9687 z m 0,2 c 0.24162,0 0.48343,0.01 0.71875,0.031 0.0728,0.01 0.14665,0.022 0.21875,0.031 0.15943,0.021 0.3129,0.062 0.46875,0.094 0.14531,0.03 0.29562,0.055 0.4375,0.094 0.0813,0.022 0.1699,0.038 0.25,0.062 0.20546,0.064 0.39692,0.1364 0.59375,0.2187 0.22266,0.093 0.44591,0.1983 0.65625,0.3125 0.0523,0.029 0.10477,0.064 0.15625,0.094 2.09243,1.2103 3.5,3.4714 3.5,6.0625 0,3.866 -3.13401,7 -7,7 -3.86599,0 -7,-3.134 -7,-7 0,-3.866 3.13401,-7 7,-7 z m 0,1 c -3.31371,0 -6,2.6863 -6,6 0,3.3137 2.68629,6 6,6 3.31371,0 6,-2.6863 6,-6 0,-2.2208 -1.20663,-4.1501 -3,-5.1875 l -3,5.1875 0,-6 z"
       id="path5504"
       inkscape:connector-curvature="0" />
    <path
       style="fill:#000000;fill-opacity:1;stroke:none"
       d="m 268.10051,981.00683 c -2.1276,0 -4.08446,0.7344 -5.625,1.9688 l -1.8125,-1.8125 -1.40625,1.4062 1.8125,1.8125 c -1.23434,1.5405 -1.96875,3.49744 -1.96875,5.62504 0,4.9706 4.02944,9 9,9 4.97056,0 9,-4.0294 9,-9 0,-2.1276 -0.73442,-4.08454 -1.96875,-5.62504 l 1.8125,-1.8125 -1.40625,-1.4062 -1.8125,1.8125 c -1.54054,-1.2344 -3.4974,-1.9688 -5.625,-1.9688 z m 0,2 c 0.21437,0 0.41562,0.013 0.625,0.031 0.0308,0 0.0631,0 0.0937,0 0.17798,0.018 0.35753,0.063 0.53125,0.094 0.0524,0.01 0.1043,0.021 0.15625,0.031 0.1489,0.03 0.29223,0.055 0.4375,0.094 0.0813,0.022 0.1699,0.038 0.25,0.062 0.11389,0.035 0.23246,0.084 0.34375,0.125 0.0978,0.036 0.18559,0.085 0.28125,0.125 0.2119,0.089 0.42436,0.1727 0.625,0.2813 0.0613,0.033 0.12737,0.059 0.1875,0.094 0.13297,0.078 0.2478,0.1641 0.375,0.25 0.18525,0.1247 0.35912,0.2644 0.53125,0.4063 0.0175,0.014 0.0452,0.017 0.0625,0.031 1.52667,1.2841 2.5,3.22404 2.5,5.37504 0,3.866 -3.13401,7 -7,7 -3.86599,0 -7,-3.134 -7,-7 0,-3.86604 3.13401,-7.00004 7,-7.00004 z m 0,1 c -3.31371,0 -6,2.6863 -6,6.00004 0,3.3137 2.68629,6 6,6 3.31371,0 6,-2.6863 6,-6 0,-1.8481 -0.84227,-3.49314 -2.15625,-4.59374 l -3.84375,4.59374 0,-6.00004 z"
       id="path5528"
       inkscape:connector-curvature="0" />
    <path
       style="fill:#000000;fill-opacity:1;stroke:none"
       d="m 267.97424,1000.5786 c -2.1276,0 -4.08446,0.7344 -5.625,1.9688 l -1.8125,-1.8125 -1.40625,1.4062 1.8125,1.8125 c -1.23433,1.5405 -1.96875,3.4974 -1.96875,5.625 0,4.9706 4.02944,9 9,9 4.97056,0 9,-4.0294 9,-9 0,-2.1276 -0.73442,-4.0845 -1.96875,-5.625 l 1.8125,-1.8125 -1.40625,-1.4062 -1.8125,1.8125 c -1.54054,-1.2344 -3.4974,-1.9688 -5.625,-1.9688 z m 0,2 c 0.24162,0 0.48343,0.01 0.71875,0.031 0.0209,0 0.0416,0 0.0625,0 0.21405,0.024 0.41721,0.082 0.625,0.125 0.0508,0.01 0.10581,0.02 0.15625,0.031 0.17493,0.04 0.36158,0.072 0.53125,0.125 0.0216,0.01 0.041,0.024 0.0625,0.031 0.19453,0.063 0.37571,0.1399 0.5625,0.2187 0.0953,0.04 0.18809,0.081 0.28125,0.125 0.11271,0.054 0.23446,0.097 0.34375,0.1563 0.0524,0.028 0.10466,0.064 0.15625,0.094 0.14119,0.082 0.27152,0.159 0.40625,0.25 0.0636,0.043 0.12537,0.08 0.1875,0.125 0.1207,0.087 0.22901,0.1866 0.34375,0.2813 0.022,0.018 0.0408,0.044 0.0625,0.062 0.14966,0.1253 0.29904,0.2691 0.4375,0.4062 0.15026,0.1489 0.30144,0.2757 0.4375,0.4375 1.02378,1.2172 1.625,2.785 1.625,4.5 0,3.866 -3.13401,7 -7,7 -3.86599,0 -7,-3.134 -7,-7 0,-3.866 3.13401,-7 7,-7 z m 0,1 c -3.31371,0 -6,2.6863 -6,6 0,3.3137 2.68629,6 6,6 3.31371,0 6,-2.6863 6,-6 0,-1.4656 -0.53344,-2.8017 -1.40625,-3.8437 l -4.59375,3.8437 0,-6 z"
       id="path5533"
       inkscape:connector-curvature="0" />
    <path
       style="fill:#000000;fill-opacity:1;stroke:none"
       d="m 266.20647,1020.1503 c -2.1276,0 -4.08446,0.7344 -5.625,1.9688 l -1.8125,-1.8125 -1.40625,1.4062 1.8125,1.8125 c -1.23433,1.5405 -1.96875,3.4974 -1.96875,5.625 0,4.9706 4.02944,9 9,9 4.97057,0 9,-4.0294 9,-9 0,-2.1276 -0.73441,-4.0845 -1.96875,-5.625 l 1.8125,-1.8125 -1.40625,-1.4062 -1.8125,1.8125 c -1.54053,-1.2344 -3.4974,-1.9688 -5.625,-1.9688 z m 0,2 c 0.24163,0 0.48343,0.01 0.71875,0.031 0.0737,0.01 0.14572,0.021 0.21875,0.031 0.15943,0.021 0.31291,0.062 0.46875,0.094 0.15235,0.031 0.32012,0.053 0.46875,0.094 0.29367,0.081 0.56693,0.1954 0.84375,0.3125 0.28088,0.1188 0.55177,0.2533 0.8125,0.4063 0.24423,0.1433 0.46336,0.2978 0.6875,0.4687 0.0717,0.055 0.14931,0.099 0.21875,0.1563 0.045,0.037 0.0809,0.087 0.125,0.125 0.12561,0.1089 0.25748,0.2262 0.375,0.3437 0.16504,0.1636 0.32072,0.3207 0.46875,0.5 0.14283,0.173 0.2805,0.3448 0.40625,0.5313 0.0839,0.1244 0.17415,0.245 0.25,0.375 0.60401,1.0349 0.9375,2.2465 0.9375,3.5312 0,3.866 -3.134,7 -7,7 -3.86599,0 -7,-3.134 -7,-7 0,-3.866 3.13401,-7 7,-7 z m 0,1 c -3.31371,0 -6,2.6863 -6,6 0,3.3137 2.68629,6 6,6 3.31371,0 6,-2.6863 6,-6 0,-1.1024 -0.29365,-2.1435 -0.8125,-3.0312 l -5.1875,3.0312 0,-6 z"
       id="path5538"
       inkscape:connector-curvature="0" />
    <path
       style="fill:#000000;fill-opacity:1;stroke:none"
       d="m 265.7014,1040.1008 c -2.1276,0 -4.08447,0.7344 -5.625,1.9688 l -1.8125,-1.8125 -1.40625,1.4062 1.8125,1.8125 c -1.23434,1.5405 -1.96875,3.4974 -1.96875,5.625 0,4.9706 4.02943,9 9,9 4.97056,0 9,-4.0294 9,-9 0,-2.1276 -0.73442,-4.0845 -1.96875,-5.625 l 1.8125,-1.8125 -1.40625,-1.4062 -1.8125,1.8125 c -1.54054,-1.2344 -3.4974,-1.9688 -5.625,-1.9688 z m 0,2 c 0.3518,0 0.69337,0.044 1.03125,0.094 0.0205,0 0.042,0 0.0625,0 0.33691,0.053 0.68085,0.1195 1,0.2187 0.0213,0.01 0.0413,0.024 0.0625,0.031 0.19565,0.063 0.37479,0.1393 0.5625,0.2187 0.14394,0.061 0.29871,0.1173 0.4375,0.1875 0.26354,0.1332 0.50689,0.2733 0.75,0.4375 0.044,0.03 0.0817,0.063 0.125,0.094 0.012,0.01 0.0193,0.023 0.0312,0.031 0.25137,0.1806 0.49382,0.3823 0.71875,0.5938 0.021,0.02 0.0417,0.042 0.0625,0.062 0.19241,0.1854 0.39226,0.3874 0.5625,0.5937 0.0277,0.034 0.0667,0.06 0.0937,0.094 0.0469,0.059 0.08,0.1269 0.125,0.1875 0.18762,0.2525 0.34721,0.5042 0.5,0.7812 0.007,0.012 0.0247,0.019 0.0312,0.031 0.10776,0.1983 0.19269,0.4156 0.28125,0.625 0.0437,0.1035 0.0862,0.2065 0.125,0.3125 0.27479,0.7505 0.4375,1.5605 0.4375,2.4062 0,3.866 -3.13401,7 -7,7 -3.866,0 -7,-3.134 -7,-7 0,-3.866 3.134,-7 7,-7 z m 0,1 c -3.31371,0 -6,2.6863 -6,6 0,3.3137 2.68629,6 6,6 3.31371,0 6,-2.6863 6,-6 0,-0.7248 -0.13947,-1.4192 -0.375,-2.0625 l -5.625,2.0625 0,-6 z"
       id="path5543"
       inkscape:connector-curvature="0" />
    <path
       style="fill:#000000;fill-opacity:1;stroke:none"
       d="m 265.95393,1059.6725 c -2.1276,0 -4.08446,0.7344 -5.625,1.9688 l -1.8125,-1.8125 -1.40625,1.4062 1.8125,1.8125 c -1.23433,1.5405 -1.96875,3.4974 -1.96875,5.625 0,4.9706 4.02944,9 9,9 4.97057,0 9,-4.0294 9,-9 0,-2.1276 -0.73441,-4.0845 -1.96875,-5.625 l 1.8125,-1.8125 -1.40625,-1.4062 -1.8125,1.8125 c -1.54053,-1.2344 -3.4974,-1.9688 -5.625,-1.9688 z m 0,2 c 0.21553,0 0.41458,0.012 0.625,0.031 0.0308,0 0.0631,0 0.0937,0 0.17887,0.019 0.35674,0.062 0.53125,0.094 0.0524,0.01 0.10431,0.021 0.15625,0.031 0.15218,0.031 0.32042,0.053 0.46875,0.094 0.0716,0.02 0.14813,0.041 0.21875,0.062 0.12025,0.038 0.22644,0.081 0.34375,0.125 0.0978,0.036 0.1856,0.085 0.28125,0.125 0.0931,0.04 0.19031,0.082 0.28125,0.125 0.008,0 0.0228,0 0.0312,0 0.17369,0.083 0.33463,0.1842 0.5,0.2813 0.12797,0.075 0.2524,0.1359 0.375,0.2187 0.0437,0.03 0.082,0.063 0.125,0.094 0.1404,0.1 0.27378,0.2032 0.40625,0.3125 0.0225,0.019 0.0403,0.043 0.0625,0.062 0.14901,0.1261 0.29957,0.2683 0.4375,0.4062 0.1403,0.1418 0.27839,0.2842 0.40625,0.4375 0.0187,0.022 0.0441,0.04 0.0625,0.062 0.10842,0.1332 0.21393,0.2964 0.3125,0.4375 0.23115,0.3286 0.42107,0.6645 0.59375,1.0313 0.0393,0.083 0.0889,0.1647 0.125,0.25 0.043,0.1021 0.0867,0.208 0.125,0.3125 0.0713,0.1948 0.13343,0.3912 0.1875,0.5937 0.0352,0.1318 0.0662,0.2715 0.0937,0.4063 0.013,0.064 0.0199,0.1233 0.0312,0.1875 0.0701,0.3974 0.125,0.8012 0.125,1.2187 0,3.866 -3.134,7 -7,7 -3.86599,0 -7,-3.134 -7,-7 0,-3.866 3.13401,-7 7,-7 z m 0,1 c -3.3137,0 -6,2.6863 -6,6 0,3.3137 2.6863,6 6,6 3.31371,0 6,-2.6863 6,-6 0,-0.3487 -0.0367,-0.6988 -0.0937,-1.0312 l -5.90625,1.0312 0,-6 z"
       id="path5548"
       inkscape:connector-curvature="0" />
    <path
       style="fill:#000000;fill-opacity:1;stroke:none"
       d="m 288.05102,901.70983 c -2.1276,0 -4.08446,0.7344 -5.625,1.9688 l -1.8125,-1.8125 -1.40625,1.4062 1.8125,1.8125 c -1.23433,1.5405 -1.96875,3.4974 -1.96875,5.625 0,4.9706 4.02944,9 9,9 4.97056,0 9,-4.0294 9,-9 0,-2.1276 -0.73442,-4.0845 -1.96875,-5.625 l 1.8125,-1.8125 -1.40625,-1.4062 -1.8125,1.8125 c -1.54054,-1.2344 -3.4974,-1.9688 -5.625,-1.9688 z m 0,2 c 0.48325,0 0.95057,0.063 1.40625,0.1563 0.22727,0.046 0.43758,0.088 0.65625,0.1562 0.88785,0.272 1.67609,0.7045 2.375,1.2813 0.1784,0.1467 0.33701,0.3054 0.5,0.4687 0.1525,0.1529 0.33083,0.3025 0.46875,0.4688 0.10513,0.1265 0.18511,0.2724 0.28125,0.4062 0.0312,0.044 0.0635,0.081 0.0937,0.125 0.008,0.012 0.023,0.019 0.0312,0.031 0.24206,0.3608 0.45255,0.7521 0.625,1.1562 0.0931,0.2177 0.17899,0.428 0.25,0.6563 0.0687,0.2183 0.10892,0.4293 0.15625,0.6562 0.002,0.01 -0.002,0.021 0,0.031 0.0443,0.2173 0.10131,0.4321 0.125,0.6562 0.001,0.01 -0.001,0.021 0,0.031 0.0227,0.2245 0.0302,0.4572 0.0312,0.6875 5e-5,0.01 0,0.021 0,0.031 0,3.866 -3.13401,7 -7,7 -3.86599,0 -7,-3.134 -7,-7 0,-3.866 3.13401,-7 7,-7 z m 0,1 c -3.31371,0 -6,2.6863 -6,6 0,3.3137 2.68629,6 6,6 3.31371,0 6,-2.6863 6,-6 0,-0.01 5e-5,-0.021 0,-0.031 l -6,0.031 0,-6 z"
       id="path5554"
       inkscape:connector-curvature="0" />
    <path
       style="fill:#000000;fill-opacity:1;stroke:none"
       d="m 287.92475,921.91293 c -2.1276,0 -4.08447,0.7343 -5.625,1.9687 l -1.8125,-1.8125 -1.40625,1.4063 1.8125,1.8125 c -1.23434,1.5405 -1.96875,3.4974 -1.96875,5.625 0,4.9706 4.02943,9 9,9 4.97056,0 9,-4.0294 9,-9 0,-2.1276 -0.73442,-4.0845 -1.96875,-5.625 l 1.8125,-1.8125 -1.40625,-1.4063 -1.8125,1.8125 c -1.54054,-1.2344 -3.4974,-1.9687 -5.625,-1.9687 z m 0,2 c 3.866,0 7,3.134 7,7 0,0.2088 -0.009,0.4222 -0.0312,0.625 -0.003,0.031 0.003,0.063 0,0.094 -0.0212,0.171 -0.0641,0.3319 -0.0937,0.5 -0.57884,3.2825 -3.42653,5.7813 -6.875,5.7813 -3.86599,0 -7,-3.134 -7,-7 0,-3.866 3.13401,-7 7,-7 z m 0,1 c -3.31371,0 -6,2.6863 -6,6 0,3.3137 2.68629,6 6,6 2.96499,0 5.42076,-2.1423 5.90625,-4.9688 l -5.90625,-1.0312 0,-6 z"
       id="path5559"
       inkscape:connector-curvature="0" />
    <path
       style="fill:#000000;fill-opacity:1;stroke:none"
       d="m 289.18744,941.10583 c -2.1276,0 -4.08446,0.7343 -5.625,1.9687 l -1.8125,-1.8125 -1.40625,1.4063 1.8125,1.8125 c -1.23433,1.5405 -1.96875,3.4974 -1.96875,5.625 0,4.9706 4.02944,9 9,9 4.97057,0 9,-4.0294 9,-9 0,-2.1276 -0.73441,-4.0845 -1.96875,-5.625 l 1.8125,-1.8125 -1.40625,-1.4063 -1.8125,1.8125 c -1.54053,-1.2344 -3.4974,-1.9687 -5.625,-1.9687 z m 0,2 c 3.866,0 7,3.134 7,7 0,0.2078 -0.0139,0.4212 -0.0312,0.625 -0.003,0.031 0.003,0.063 0,0.094 -0.004,0.043 -0.0262,0.082 -0.0312,0.125 -0.0503,0.4305 -0.12526,0.8479 -0.25,1.25 -0.0311,0.1002 -0.0895,0.1831 -0.125,0.2813 -0.97375,2.6948 -3.53177,4.625 -6.5625,4.625 -3.86599,0 -7,-3.134 -7,-7 0,-3.866 3.13401,-7 7,-7 z m 0,1 c -3.31371,0 -6,2.6863 -6,6 0,3.3137 2.68629,6 6,6 2.59919,0 4.79142,-1.6569 5.625,-3.9688 l -5.625,-2.0312 0,-6 z"
       id="path5564"
       inkscape:connector-curvature="0" />
    <path
       style="fill:#000000;fill-opacity:1;stroke:none"
       d="m 288.5561,960.55123 c -2.1276,0 -4.08446,0.7344 -5.625,1.9688 l -1.8125,-1.8125 -1.40625,1.4062 1.8125,1.8125 c -1.23434,1.5405 -1.96875,3.4974 -1.96875,5.625 0,4.9706 4.02944,9 9,9 4.97056,0 9,-4.0294 9,-9 0,-2.1276 -0.73442,-4.0845 -1.96875,-5.625 l 1.8125,-1.8125 -1.40625,-1.4062 -1.8125,1.8125 c -1.54054,-1.2344 -3.4974,-1.9688 -5.625,-1.9688 z m 0,2 c 3.86599,0 7,3.134 7,7 0,0.2416 -0.007,0.4835 -0.0312,0.7188 -0.007,0.073 -0.0217,0.1459 -0.0312,0.2187 -0.0213,0.1595 -0.0619,0.3129 -0.0937,0.4688 -0.0295,0.1468 -0.0553,0.2942 -0.0937,0.4375 -0.0221,0.081 -0.0376,0.1699 -0.0625,0.25 -0.0232,0.075 -0.0681,0.1446 -0.0937,0.2187 -0.12249,0.3542 -0.2612,0.7064 -0.4375,1.0313 -0.0341,0.063 -0.0577,0.1258 -0.0937,0.1875 -1.21363,2.0794 -3.48119,3.4687 -6.0625,3.4687 -3.866,0 -7,-3.134 -7,-7 0,-3.866 3.134,-7 7,-7 z m 0,1 c -3.31371,0 -6,2.6863 -6,6 0,3.3137 2.68629,6 6,6 2.21126,0 4.14681,-1.1881 5.1875,-2.9687 l -5.1875,-3.0313 0,-6 z"
       id="path5569"
       inkscape:connector-curvature="0" />
    <path
       style="fill:#000000;fill-opacity:1;stroke:none"
       d="m 288.68237,979.61793 c -2.1276,0 -4.08447,0.7343 -5.625,1.9687 l -1.8125,-1.8125 -1.40625,1.4063 1.8125,1.8125 c -1.23434,1.5405 -1.96875,3.4974 -1.96875,5.62504 0,4.9706 4.02943,9 9,9 4.97056,0 9,-4.0294 9,-9 0,-2.12764 -0.73442,-4.08454 -1.96875,-5.62504 l 1.8125,-1.8125 -1.40625,-1.4063 -1.8125,1.8125 c -1.54054,-1.2344 -3.4974,-1.9687 -5.625,-1.9687 z m 0,2 c 3.86599,0 7,3.134 7,7.00004 0,0.2133 -0.0126,0.4169 -0.0312,0.625 -0.003,0.031 0.003,0.063 0,0.094 -0.0182,0.1768 -0.0626,0.3589 -0.0937,0.5313 -0.01,0.052 -0.0206,0.1043 -0.0312,0.1562 -0.0303,0.1477 -0.0542,0.2935 -0.0937,0.4375 -0.0221,0.081 -0.0376,0.1699 -0.0625,0.25 -0.0344,0.1089 -0.0854,0.206 -0.125,0.3125 -0.0393,0.1072 -0.0807,0.2078 -0.125,0.3125 -0.0347,0.081 -0.056,0.1704 -0.0937,0.25 -0.0392,0.084 -0.0826,0.1682 -0.125,0.25 -0.0494,0.094 -0.10276,0.1896 -0.15625,0.2813 -0.0817,0.1411 -0.15898,0.2715 -0.25,0.4062 -0.0213,0.031 -0.0408,0.063 -0.0625,0.094 -0.10708,0.1531 -0.22508,0.2937 -0.34375,0.4375 -0.009,0.011 -0.022,0.02 -0.0312,0.031 -1.28406,1.5365 -3.21595,2.5313 -5.375,2.5313 -3.866,0 -7,-3.134 -7,-7 0,-3.86604 3.134,-7.00004 7,-7.00004 z m 0,1 c -3.31371,0 -6,2.6863 -6,6.00004 0,3.3137 2.68629,6 6,6 1.84812,0 3.49312,-0.8423 4.59375,-2.1563 l -4.59375,-3.8437 0,-6.00004 z"
       id="path5574"
       inkscape:connector-curvature="0" />
    <path
       style="fill:#000000;fill-opacity:1;stroke:none"
       d="m 288.93491,999.44217 c -2.1276,0 -4.08447,0.73433 -5.625,1.96873 l -1.8125,-1.81253 -1.40625,1.40633 1.8125,1.8125 c -1.23434,1.5405 -1.96875,3.4974 -1.96875,5.625 0,4.9706 4.02943,9 9,9 4.97056,0 9,-4.0294 9,-9 0,-2.1276 -0.73442,-4.0845 -1.96875,-5.625 l 1.8125,-1.8125 -1.40625,-1.40633 -1.8125,1.81253 c -1.54054,-1.2344 -3.4974,-1.96873 -5.625,-1.96873 z m 0,2.00003 c 3.86599,0 7,3.134 7,7 0,0.2416 -0.007,0.4834 -0.0312,0.7187 -0.002,0.021 0.002,0.042 0,0.062 -0.0237,0.2141 -0.0825,0.4172 -0.125,0.625 -0.0104,0.051 -0.0197,0.1058 -0.0312,0.1563 -0.0399,0.1749 -0.0722,0.3615 -0.125,0.5312 -0.007,0.022 -0.0243,0.041 -0.0312,0.062 -0.0627,0.1945 -0.13997,0.3757 -0.21875,0.5625 -0.0402,0.095 -0.0808,0.1881 -0.125,0.2813 -0.004,0.01 0.004,0.023 0,0.031 -0.10543,0.2198 -0.21696,0.4499 -0.34375,0.6563 -0.0482,0.078 -0.10509,0.143 -0.15625,0.2187 -0.0887,0.1325 -0.18404,0.2492 -0.28125,0.375 -0.0412,0.053 -0.0823,0.1045 -0.125,0.1563 -0.0179,0.022 -0.0443,0.041 -0.0625,0.062 -0.12537,0.1496 -0.2691,0.299 -0.40625,0.4375 -0.14288,0.1428 -0.28277,0.3073 -0.4375,0.4375 -1.21721,1.0237 -2.78502,1.625 -4.5,1.625 -3.866,0 -7,-3.134 -7,-7 0,-3.866 3.134,-7 7,-7 z m 0,1 c -3.31371,0 -6,2.6863 -6,6 0,3.3137 2.68629,6 6,6 1.46558,0 2.80174,-0.5335 3.84375,-1.4063 l -3.84375,-4.5937 0,-6 z"
       id="path5579"
       inkscape:connector-curvature="0" />
    <path
       style="fill:#000000;fill-opacity:1;stroke:none"
       d="m 287.67221,1019.3927 c -2.1276,0 -4.08446,0.7343 -5.625,1.9687 l -1.8125,-1.8125 -1.40625,1.4063 1.8125,1.8125 c -1.23433,1.5405 -1.96875,3.4974 -1.96875,5.625 0,4.9706 4.02944,9 9,9 4.97057,0 9,-4.0294 9,-9 0,-2.1276 -0.73441,-4.0845 -1.96875,-5.625 l 1.8125,-1.8125 -1.40625,-1.4063 -1.8125,1.8125 c -1.54053,-1.2344 -3.4974,-1.9687 -5.625,-1.9687 z m 0,2 c 3.866,0 7,3.134 7,7 0,0.2416 -0.007,0.4834 -0.0312,0.7187 -0.008,0.082 -0.0202,0.1691 -0.0312,0.25 -0.0206,0.149 -0.0639,0.2917 -0.0937,0.4375 -0.0321,0.1578 -0.0512,0.315 -0.0937,0.4688 -0.0198,0.072 -0.0405,0.1481 -0.0625,0.2187 -0.04,0.1282 -0.10918,0.2501 -0.15625,0.375 -0.032,0.085 -0.0586,0.167 -0.0937,0.25 -0.004,0.01 0.004,0.022 0,0.031 -0.0401,0.094 -0.0809,0.1896 -0.125,0.2812 -0.0867,0.1811 -0.17979,0.3592 -0.28125,0.5313 -0.0709,0.1198 -0.14101,0.2287 -0.21875,0.3437 -0.09,0.1337 -0.18245,0.2481 -0.28125,0.375 -0.0412,0.053 -0.0823,0.1046 -0.125,0.1563 -0.0371,0.045 -0.0868,0.081 -0.125,0.125 -0.10896,0.1256 -0.22622,0.2574 -0.34375,0.375 -0.14025,0.14 -0.28582,0.2784 -0.4375,0.4062 -0.022,0.019 -0.0402,0.044 -0.0625,0.062 -0.0624,0.051 -0.12336,0.1072 -0.1875,0.1563 -0.113,0.087 -0.22544,0.17 -0.34375,0.25 -0.12011,0.081 -0.24974,0.1452 -0.375,0.2187 -0.0127,0.01 -0.0185,0.024 -0.0312,0.031 -1.02955,0.5955 -2.22509,0.9375 -3.5,0.9375 -3.86599,0 -7,-3.134 -7,-7 0,-3.866 3.13401,-7 7,-7 z m 0,1 c -3.3137,0 -6,2.6863 -6,6 0,3.3137 2.6863,6 6,6 1.09289,0 2.11747,-0.302 3,-0.8125 l -3,-5.1875 0,-6 z"
       id="path5584"
       inkscape:connector-curvature="0" />
    <path
       style="fill:#000000;fill-opacity:1;stroke:none"
       d="m 287.92475,1038.5856 c -2.1276,0 -4.08446,0.7343 -5.625,1.9687 l -1.8125,-1.8125 -1.40625,1.4063 1.8125,1.8125 c -1.23433,1.5405 -1.96875,3.4974 -1.96875,5.625 0,4.9706 4.02944,9 9,9 4.97057,0 9,-4.0294 9,-9 0,-2.1276 -0.73442,-4.0845 -1.96875,-5.625 l 1.8125,-1.8125 -1.40625,-1.4063 -1.8125,1.8125 c -1.54053,-1.2344 -3.4974,-1.9687 -5.625,-1.9687 z m 0,2 c 3.866,0 7,3.134 7,7 0,0.3518 -0.0437,0.6933 -0.0937,1.0312 -0.003,0.021 0.003,0.042 0,0.062 -0.053,0.3369 -0.11948,0.6809 -0.21875,1 -0.007,0.021 -0.0244,0.041 -0.0312,0.062 -0.0631,0.1957 -0.13935,0.3748 -0.21875,0.5625 -0.061,0.144 -0.11729,0.2987 -0.1875,0.4375 -0.0104,0.021 -0.0207,0.042 -0.0312,0.062 -0.0221,0.043 -0.0396,0.083 -0.0625,0.125 -0.10776,0.1984 -0.21795,0.3763 -0.34375,0.5625 -0.0299,0.044 -0.0629,0.082 -0.0937,0.125 -0.009,0.012 -0.0227,0.019 -0.0312,0.031 -0.18054,0.2513 -0.38224,0.4938 -0.59375,0.7187 -0.0199,0.021 -0.0424,0.042 -0.0625,0.062 -0.18545,0.1924 -0.38747,0.3923 -0.59375,0.5625 -0.0621,0.051 -0.12362,0.1074 -0.1875,0.1563 -0.0299,0.023 -0.0635,0.04 -0.0937,0.062 -0.25253,0.1876 -0.50418,0.3472 -0.78125,0.5 -0.21049,0.116 -0.43324,0.2181 -0.65625,0.3125 -0.10351,0.044 -0.20651,0.086 -0.3125,0.125 -0.75049,0.2748 -1.56056,0.4375 -2.40625,0.4375 -3.86599,0 -7,-3.134 -7,-7 0,-3.866 3.13401,-7 7,-7 z m 0,1 c -3.31371,0 -6,2.6863 -6,6 0,3.3137 2.68629,6 6,6 0.72488,0 1.41923,-0.1395 2.0625,-0.375 l -2.0625,-5.625 0,-6 z"
       id="path5589"
       inkscape:connector-curvature="0" />
    <path
       style="fill:#000000;fill-opacity:1;stroke:none"
       d="m 288.42983,1059.2937 c -2.1276,0 -4.08446,0.7343 -5.625,1.9687 l -1.8125,-1.8125 -1.40625,1.4063 1.8125,1.8125 c -1.23433,1.5405 -1.96875,3.4974 -1.96875,5.625 0,4.9706 4.02944,9 9,9 4.97056,0 9,-4.0294 9,-9 0,-2.1276 -0.73442,-4.0845 -1.96875,-5.625 l 1.8125,-1.8125 -1.40625,-1.4063 -1.8125,1.8125 c -1.54054,-1.2344 -3.4974,-1.9687 -5.625,-1.9687 z m 0,2 c 3.86599,0 7,3.134 7,7 0,0.2155 -0.0121,0.4146 -0.0312,0.625 -0.003,0.031 0.003,0.063 0,0.094 -0.0186,0.1789 -0.0619,0.3568 -0.0937,0.5313 -0.01,0.052 -0.0206,0.1043 -0.0312,0.1562 -0.0313,0.1522 -0.0526,0.3205 -0.0937,0.4688 -0.0198,0.072 -0.0405,0.1481 -0.0625,0.2187 -0.0378,0.1203 -0.081,0.2265 -0.125,0.3438 -0.0363,0.098 -0.0845,0.1856 -0.125,0.2812 -0.0397,0.093 -0.0814,0.1904 -0.125,0.2813 -0.004,0.01 0.004,0.023 0,0.031 -0.0835,0.1737 -0.1842,0.3347 -0.28125,0.5 -0.0751,0.128 -0.13592,0.2524 -0.21875,0.375 -0.0297,0.044 -0.0631,0.082 -0.0937,0.125 -0.0995,0.1404 -0.20317,0.2738 -0.3125,0.4063 -0.0187,0.023 -0.0436,0.04 -0.0625,0.062 -0.12609,0.149 -0.26832,0.2996 -0.40625,0.4375 -0.14178,0.1403 -0.28416,0.2784 -0.4375,0.4062 -0.022,0.019 -0.0402,0.044 -0.0625,0.062 -0.13321,0.1085 -0.2964,0.214 -0.4375,0.3125 -0.32859,0.2312 -0.66445,0.4211 -1.03125,0.5938 -0.0836,0.039 -0.16469,0.089 -0.25,0.125 -0.10209,0.043 -0.20801,0.087 -0.3125,0.125 -0.19484,0.071 -0.39124,0.1334 -0.59375,0.1875 -0.13179,0.035 -0.27152,0.066 -0.40625,0.094 -0.0636,0.013 -0.12329,0.02 -0.1875,0.031 -0.39743,0.07 -0.80122,0.125 -1.21875,0.125 -3.86599,0 -7,-3.134 -7,-7 0,-3.866 3.13401,-7 7,-7 z m 0,1 c -3.31371,0 -6,2.6863 -6,6 0,3.3137 2.68629,6 6,6 0.34872,0 0.69882,-0.037 1.03125,-0.094 l -1.03125,-5.9062 0,-6 z"
       id="path5594"
       inkscape:connector-curvature="0" />
    <path
       style="fill:#000000;fill-opacity:1;stroke:none"
       d="m 309.13796,901.83613 c -2.1276,0 -4.08447,0.7344 -5.62501,1.9688 l -1.8125,-1.8125 -1.40625,1.4062 1.8125,1.8125 c -1.23434,1.5405 -1.96875,3.4974 -1.96875,5.625 0,4.9706 4.02943,9 9.00001,9 4.97056,0 9,-4.0294 9,-9 0,-2.1276 -0.73442,-4.0845 -1.96875,-5.625 l 1.8125,-1.8125 -1.40625,-1.4062 -1.8125,1.8125 c -1.54054,-1.2344 -3.4974,-1.9688 -5.625,-1.9688 z m 0,2 c 3.86599,0 7,3.134 7,7 0,3.866 -3.13401,7 -7,7 -3.86599,0 -7.00001,-3.134 -7.00001,-7 0,-3.866 3.13402,-7 7.00001,-7 z m 0,1 c -3.31371,0 -6.00001,2.6863 -6.00001,6 0,3.3137 2.6863,6 6.00001,6 l 0,-6 0,-6 z"
       id="path5599"
       inkscape:connector-curvature="0" />
    <path
       style="fill:#000000;fill-opacity:1;stroke:none"
       d="m 308.12781,922.03923 c -2.1276,0 -4.08447,0.7343 -5.62501,1.9687 l -1.8125,-1.8125 -1.40625,1.4063 1.8125,1.8125 c -1.23433,1.5405 -1.96875,3.4974 -1.96875,5.625 0,4.9706 4.02944,9 9.00001,9 4.97056,0 9,-4.0294 9,-9 0,-2.1276 -0.73442,-4.0845 -1.96875,-5.625 l 1.8125,-1.8125 -1.40625,-1.4063 -1.8125,1.8125 c -1.54054,-1.2344 -3.4974,-1.9687 -5.625,-1.9687 z m 0,2 c 3.86599,0 7,3.134 7,7 0,3.866 -3.13401,7 -7,7 -0.24085,0 -0.48506,-0.01 -0.71875,-0.031 -0.0969,-0.01 -0.18551,-0.049 -0.28125,-0.062 -0.0942,-0.014 -0.18809,-0.014 -0.28125,-0.031 -3.25248,-0.6033 -5.71876,-3.4478 -5.71876,-6.875 0,-3.866 3.13402,-7 7.00001,-7 z m 0,1 c -3.31371,0 -6.00001,2.6863 -6.00001,6 0,2.9437 2.10981,5.3961 4.90626,5.9062 l 1.09375,-5.9062 0,-6 z"
       id="path5604"
       inkscape:connector-curvature="0" />
    <path
       style="fill:#000000;fill-opacity:1;stroke:none"
       d="m 308.75915,941.35833 c -2.1276,0 -4.08446,0.7344 -5.62501,1.9688 l -1.8125,-1.8125 -1.40625,1.4062 1.8125,1.8125 c -1.23433,1.5405 -1.96875,3.4974 -1.96875,5.625 0,4.9706 4.02944,9 9.00001,9 4.97056,0 9,-4.0294 9,-9 0,-2.1276 -0.73442,-4.0845 -1.96875,-5.625 l 1.8125,-1.8125 -1.40625,-1.4062 -1.8125,1.8125 c -1.54054,-1.2344 -3.4974,-1.9688 -5.625,-1.9688 z m 0,2 c 3.866,0 7,3.134 7,7 0,3.866 -3.134,7 -7,7 -0.24243,0 -0.48273,-0.01 -0.71875,-0.031 -0.18166,-0.019 -0.35396,-0.062 -0.53125,-0.094 -0.0528,-0.01 -0.10388,-0.02 -0.15625,-0.031 -0.0318,-0.01 -0.0621,-0.024 -0.0937,-0.031 -0.13736,-0.031 -0.27201,-0.055 -0.40625,-0.094 -0.17047,-0.048 -0.33507,-0.096 -0.5,-0.1563 -2.68033,-0.9814 -4.59376,-3.5422 -4.59376,-6.5625 0,-3.866 3.13402,-7 7.00001,-7 z m 0,1 c -3.3137,0 -6.00001,2.6863 -6.00001,6 0,2.5889 1.6401,4.7838 3.93751,5.625 l 2.0625,-5.625 0,-6 z"
       id="path5609"
       inkscape:connector-curvature="0" />
    <path
       style="fill:#000000;fill-opacity:1;stroke:none"
       d="m 309.01169,959.91993 c -2.1276,0 -4.08446,0.7343 -5.62501,1.9687 l -1.8125,-1.8125 -1.40625,1.4063 1.8125,1.8125 c -1.23433,1.5405 -1.96875,3.4974 -1.96875,5.625 0,4.9706 4.02944,9 9.00001,9 4.97057,0 9,-4.0294 9,-9 0,-2.1276 -0.73441,-4.0845 -1.96875,-5.625 l 1.8125,-1.8125 -1.40625,-1.4063 -1.8125,1.8125 c -1.54053,-1.2344 -3.4974,-1.9687 -5.625,-1.9687 z m 0,2 c 3.866,0 7,3.134 7,7 0,3.866 -3.134,7 -7,7 -0.24398,0 -0.48119,-0.01 -0.71875,-0.031 -0.0744,-0.01 -0.14509,-0.021 -0.21875,-0.031 -0.11604,-0.016 -0.22958,-0.041 -0.34375,-0.062 -0.094,-0.017 -0.18861,-0.041 -0.28125,-0.062 -0.11598,-0.027 -0.23004,-0.062 -0.34375,-0.094 -0.17047,-0.048 -0.33507,-0.096 -0.5,-0.1562 -0.10726,-0.04 -0.20778,-0.081 -0.3125,-0.125 -0.26723,-0.1131 -0.53219,-0.231 -0.78125,-0.375 -2.09244,-1.2103 -3.50001,-3.4714 -3.50001,-6.0625 0,-3.866 3.13402,-7 7.00001,-7 z m 0,1 c -3.31371,0 -6.00001,2.6863 -6.00001,6 0,2.2208 1.20664,4.15 3.00001,5.1875 l 3,-5.1875 0,-6 z"
       id="path5614"
       inkscape:connector-curvature="0" />
    <path
       style="fill:#000000;fill-opacity:1;stroke:none"
       d="m 310.90573,978.98653 c -2.1276,0 -4.08446,0.7344 -5.625,1.9688 l -1.81251,-1.8125 -1.40625,1.4062 1.8125,1.8125 c -1.23433,1.5405 -1.96875,3.4974 -1.96875,5.62504 0,4.9706 4.02945,9 9.00001,9 4.97057,0 9,-4.0294 9,-9 0,-2.12764 -0.73441,-4.08454 -1.96875,-5.62504 l 1.8125,-1.8125 -1.40625,-1.4062 -1.8125,1.8125 c -1.54053,-1.2344 -3.4974,-1.9688 -5.625,-1.9688 z m 0,2 c 3.86599,0 7,3.134 7,7.00004 0,3.866 -3.13401,7 -7,7 -0.24467,0 -0.48116,-0.01 -0.71875,-0.031 -0.18167,-0.018 -0.35396,-0.062 -0.53125,-0.094 -0.053,-0.01 -0.10364,-0.021 -0.15625,-0.031 -0.0318,-0.01 -0.0621,-0.024 -0.0937,-0.031 -0.13795,-0.03 -0.27159,-0.055 -0.40625,-0.094 -0.17047,-0.048 -0.33508,-0.096 -0.5,-0.1563 -0.10483,-0.039 -0.21012,-0.081 -0.3125,-0.125 -0.0814,-0.034 -0.17021,-0.056 -0.25,-0.094 -0.0837,-0.04 -0.16818,-0.082 -0.25,-0.125 -0.0964,-0.05 -0.18756,-0.1021 -0.28125,-0.1563 -0.0404,-0.024 -0.0851,-0.038 -0.125,-0.062 -0.11129,-0.067 -0.20539,-0.1454 -0.3125,-0.2187 -0.17034,-0.1173 -0.34056,-0.2434 -0.5,-0.375 -0.0111,-0.01 -0.0202,-0.022 -0.0312,-0.031 -1.53655,-1.2841 -2.53126,-3.2159 -2.53126,-5.375 0,-3.86604 3.13402,-7.00004 7.00001,-7.00004 z m 0,1 c -3.31371,0 -6,2.6863 -6,6.00004 0,1.8481 0.84227,3.4931 2.15625,4.5938 l 3.84375,-4.5938 0,-6.00004 z"
       id="path5619"
       inkscape:connector-curvature="0" />
    <path
       style="fill:#000000;fill-opacity:1;stroke:none"
       d="m 310.02184,999.31587 c -2.1276,0 -4.08447,0.73433 -5.625,1.96873 l -1.8125,-1.81253 -1.40625,1.40633 1.8125,1.8125 c -1.23434,1.5405 -1.96875,3.4974 -1.96875,5.625 0,4.9706 4.02943,9 9,9 4.97056,0 9,-4.0294 9,-9 0,-2.1276 -0.73442,-4.0845 -1.96875,-5.625 l 1.8125,-1.8125 -1.40625,-1.40633 -1.8125,1.81253 c -1.54054,-1.2344 -3.4974,-1.96873 -5.625,-1.96873 z m 0,2.00003 c 3.86599,0 7,3.134 7,7 0,3.866 -3.13401,7 -7,7 -0.27352,0 -0.54716,-7e-4 -0.8125,-0.031 -0.20748,-0.024 -0.39217,-0.083 -0.59375,-0.125 -0.0515,-0.011 -0.10519,-0.02 -0.15625,-0.031 -0.0222,-0.01 -0.0404,-0.026 -0.0625,-0.031 -0.23222,-0.055 -0.4649,-0.1096 -0.6875,-0.1875 -0.1413,-0.05 -0.26924,-0.098 -0.40625,-0.1562 -0.10273,-0.044 -0.21235,-0.077 -0.3125,-0.125 -0.23011,-0.1106 -0.44094,-0.2408 -0.65625,-0.375 -0.21933,-0.1367 -0.42279,-0.2781 -0.625,-0.4375 -0.0421,-0.033 -0.0836,-0.06 -0.125,-0.094 -0.0334,-0.027 -0.0609,-0.065 -0.0937,-0.094 -0.14411,-0.1227 -0.27253,-0.2414 -0.40625,-0.375 -0.14814,-0.1482 -0.30306,-0.3079 -0.4375,-0.4688 -1.01518,-1.2148 -1.625,-2.7618 -1.625,-4.4687 0,-3.866 3.13401,-7 7,-7 z m 0,1 c -3.31371,0 -6,2.6863 -6,6 0,1.4656 0.53344,2.8017 1.40625,3.8437 l 4.59375,-3.8437 0,-6 z"
       id="path5624"
       inkscape:connector-curvature="0" />
    <path
       style="fill:#000000;fill-opacity:1;stroke:none"
       d="m 309.13796,1020.1503 c -2.1276,0 -4.08446,0.7343 -5.625,1.9687 l -1.8125,-1.8125 -1.40625,1.4063 1.8125,1.8125 c -1.23434,1.5405 -1.96875,3.4974 -1.96875,5.625 0,4.9706 4.02944,9 9,9 4.97056,0 9,-4.0294 9,-9 0,-2.1276 -0.73442,-4.0845 -1.96875,-5.625 l 1.8125,-1.8125 -1.40625,-1.4063 -1.8125,1.8125 c -1.54054,-1.2344 -3.4974,-1.9687 -5.625,-1.9687 z m 0,2 c 3.86599,0 7,3.134 7,7 0,3.866 -3.13401,7 -7,7 -0.24234,0 -0.48284,-0.01 -0.71875,-0.031 -0.0847,-0.01 -0.16621,-0.02 -0.25,-0.031 -0.15229,-0.021 -0.28853,-0.063 -0.4375,-0.094 -0.15443,-0.032 -0.31821,-0.052 -0.46875,-0.094 -0.0319,-0.01 -0.062,-0.022 -0.0937,-0.031 -0.17363,-0.051 -0.33223,-0.1241 -0.5,-0.1875 -0.0828,-0.032 -0.16873,-0.059 -0.25,-0.094 -0.009,0 -0.0226,0 -0.0312,0 -0.0955,-0.041 -0.18799,-0.08 -0.28125,-0.125 -0.16039,-0.077 -0.31543,-0.1613 -0.46875,-0.25 -0.0525,-0.031 -0.10463,-0.062 -0.15625,-0.094 -0.23275,-0.143 -0.44257,-0.3002 -0.65625,-0.4687 -0.0408,-0.032 -0.0849,-0.061 -0.125,-0.094 -0.0668,-0.055 -0.12278,-0.1299 -0.1875,-0.1875 -0.10464,-0.093 -0.21364,-0.1818 -0.3125,-0.2812 -0.10764,-0.1082 -0.21207,-0.2287 -0.3125,-0.3438 -0.11672,-0.1328 -0.23723,-0.2647 -0.34375,-0.4062 -0.18376,-0.2441 -0.34893,-0.4826 -0.5,-0.75 -0.57357,-1.0154 -0.90625,-2.1881 -0.90625,-3.4375 0,-3.866 3.134,-7 7,-7 z m 0,1 c -3.31371,0 -6,2.6863 -6,6 0,1.0674 0.29261,2.0691 0.78125,2.9375 l 5.21875,-2.9375 0,-6 z"
       id="path5629"
       inkscape:connector-curvature="0" />
    <path
       style="fill:#000000;fill-opacity:1;stroke:none"
       d="m 308.88542,1038.9644 c -2.1276,0 -4.08446,0.7344 -5.625,1.9688 l -1.8125,-1.8125 -1.40625,1.4062 1.8125,1.8125 c -1.23433,1.5405 -1.96875,3.4974 -1.96875,5.625 0,4.9706 4.02944,9 9,9 4.97056,0 9,-4.0294 9,-9 0,-2.1276 -0.73442,-4.0845 -1.96875,-5.625 l 1.8125,-1.8125 -1.40625,-1.4062 -1.8125,1.8125 c -1.54054,-1.2344 -3.4974,-1.9688 -5.625,-1.9688 z m 0,2 c 3.86599,0 7,3.134 7,7 0,3.866 -3.13401,7 -7,7 -0.34118,0 -0.67188,-0.047 -1,-0.094 -0.0409,-0.01 -0.0843,0.01 -0.125,0 -0.0647,-0.01 -0.12347,-0.019 -0.1875,-0.031 -0.2847,-0.054 -0.5724,-0.1313 -0.84375,-0.2187 -0.19044,-0.062 -0.37978,-0.1408 -0.5625,-0.2188 -0.0727,-0.031 -0.14734,-0.061 -0.21875,-0.094 -0.0917,-0.043 -0.19178,-0.078 -0.28125,-0.125 -0.0409,-0.021 -0.0846,-0.041 -0.125,-0.062 -0.25771,-0.14 -0.48188,-0.2986 -0.71875,-0.4688 -0.25137,-0.1805 -0.49383,-0.3822 -0.71875,-0.5937 -0.0325,-0.031 -0.0619,-0.062 -0.0937,-0.094 -0.21244,-0.2073 -0.44019,-0.4235 -0.625,-0.6562 -0.0455,-0.058 -0.0813,-0.1279 -0.125,-0.1875 -0.40284,-0.5422 -0.7038,-1.1345 -0.9375,-1.7813 -0.26837,-0.7427 -0.4375,-1.5397 -0.4375,-2.375 0,-3.866 3.13401,-7 7,-7 z m 0,1 c -3.31371,0 -6,2.6863 -6,6 0,0.7145 0.14585,1.3957 0.375,2.0313 l 5.625,-2.0313 0,-6 z"
       id="path5634"
       inkscape:connector-curvature="0" />
    <path
       style="fill:#000000;fill-opacity:1;stroke:none"
       d="m 308.88542,1059.1674 c -2.1276,0 -4.08447,0.7344 -5.625,1.9688 l -1.8125,-1.8125 -1.40625,1.4062 1.8125,1.8125 c -1.23435,1.5405 -1.96875,3.4974 -1.96875,5.625 0,4.9706 4.02943,9 9,9 4.97056,0 9,-4.0294 9,-9 0,-2.1276 -0.73442,-4.0845 -1.96875,-5.625 l 1.8125,-1.8125 -1.40625,-1.4062 -1.8125,1.8125 c -1.54054,-1.2344 -3.4974,-1.9688 -5.625,-1.9688 z m 0,2 c 3.86599,0 7,3.134 7,7 0,3.866 -3.13401,7 -7,7 -0.2384,0 -0.48669,-0.01 -0.71875,-0.031 -0.13837,-0.014 -0.27039,-0.041 -0.40625,-0.062 -0.0957,-0.016 -0.18697,-0.043 -0.28125,-0.062 -0.15443,-0.032 -0.31821,-0.052 -0.46875,-0.094 -0.0504,-0.014 -0.10629,-0.016 -0.15625,-0.031 -0.0534,-0.016 -0.10336,-0.045 -0.15625,-0.062 -0.18501,-0.061 -0.35352,-0.1431 -0.53125,-0.2188 -0.10273,-0.043 -0.21235,-0.077 -0.3125,-0.125 -0.17369,-0.084 -0.33463,-0.1842 -0.5,-0.2812 -0.11851,-0.07 -0.26117,-0.1417 -0.375,-0.2188 -0.0557,-0.038 -0.10171,-0.086 -0.15625,-0.125 -0.13131,-0.094 -0.25073,-0.1783 -0.375,-0.2812 -0.028,-0.023 -0.0661,-0.039 -0.0937,-0.062 -0.14109,-0.1208 -0.27523,-0.2747 -0.40625,-0.4063 -0.0102,-0.01 -0.0211,-0.021 -0.0312,-0.031 -0.0726,-0.074 -0.14944,-0.1418 -0.21875,-0.2188 -0.0632,-0.07 -0.12715,-0.1465 -0.1875,-0.2187 -0.01,-0.012 -0.0217,-0.02 -0.0312,-0.031 -0.11462,-0.1389 -0.20869,-0.2899 -0.3125,-0.4375 -0.11365,-0.1615 -0.24382,-0.2975 -0.34375,-0.4687 -0.004,-0.01 0.004,-0.024 0,-0.031 -0.20536,-0.355 -0.35875,-0.7341 -0.5,-1.125 -0.0706,-0.1952 -0.13426,-0.3908 -0.1875,-0.5937 -0.0336,-0.1271 -0.0671,-0.2453 -0.0937,-0.375 -0.0147,-0.072 -0.0188,-0.146 -0.0312,-0.2188 -0.0666,-0.3879 -0.125,-0.7806 -0.125,-1.1875 0,-3.866 3.13401,-7 7,-7 z m 0,1 c -3.31371,0 -6,2.6863 -6,6 0,0.3487 0.0367,0.6988 0.0937,1.0313 l 5.90625,-1.0313 0,-6 z"
       id="path5639"
       inkscape:connector-curvature="0" />
    <path
       style="fill:#000000;fill-opacity:1;stroke:none"
       d="m 332.37147,901.58363 c -2.1276,0 -4.08447,0.7343 -5.625,1.9687 l -1.8125,-1.8125 -1.40625,1.4063 1.8125,1.8125 c -1.23434,1.5405 -1.96875,3.4974 -1.96875,5.625 0,4.9706 4.02943,9 9,9 4.97056,0 9,-4.0294 9,-9 0,-2.1276 -0.73442,-4.0845 -1.96875,-5.625 l 1.8125,-1.8125 -1.40625,-1.4063 -1.8125,1.8125 c -1.54054,-1.2344 -3.4974,-1.9687 -5.625,-1.9687 z m 0,2 c 3.86599,0 7,3.134 7,7 0,3.866 -3.13401,7 -7,7 -3.86599,0 -7,-3.134 -7,-7 0,-0.01 -5e-5,-0.021 0,-0.031 0.0169,-3.8515 3.14449,-6.9687 7,-6.9687 z m 0,1 c -3.30338,0 -5.98332,2.6693 -6,5.9687 l 6,0.031 0,-6 z"
       id="path5644"
       inkscape:connector-curvature="0" />
    <path
       style="fill:#000000;fill-opacity:1;stroke:none"
       d="m 331.23505,921.91293 c -2.1276,0 -4.08447,0.7343 -5.625,1.9687 l -1.8125,-1.8125 -1.40625,1.4063 1.8125,1.8125 c -1.23434,1.5405 -1.96875,3.4974 -1.96875,5.625 0,4.9706 4.02943,9 9,9 4.97056,0 9,-4.0294 9,-9 0,-2.1276 -0.73442,-4.0845 -1.96875,-5.625 l 1.8125,-1.8125 -1.40625,-1.4063 -1.8125,1.8125 c -1.54054,-1.2344 -3.4974,-1.9687 -5.625,-1.9687 z m 0,2 c 3.86599,0 7,3.134 7,7 0,3.866 -3.13401,7 -7,7 -3.86599,0 -7,-3.134 -7,-7 0,-0.2102 0.0131,-0.4196 0.0312,-0.625 0.003,-0.03 -0.004,-0.063 0,-0.094 0.0153,-0.1506 0.0691,-0.2898 0.0937,-0.4375 0.005,-0.03 -0.005,-0.064 0,-0.094 0.5911,-3.2675 3.43716,-5.75 6.875,-5.75 z m 0,1 c -2.95435,0 -5.40839,2.1261 -5.90625,4.9375 l 5.90625,1.0625 0,-6 z"
       id="path5649"
       inkscape:connector-curvature="0" />
    <path
       style="fill:#000000;fill-opacity:1;stroke:none"
       d="m -59.710677,993.9764 c -2.127609,0 -4.084472,0.7344 -5.625002,1.9688 l -1.8125,-1.8125 -1.40625,1.4062 1.8125,1.8125 c -1.23434,1.5405 -1.96875,3.4974 -1.96875,5.625 0,4.9706 4.02943,9 9.000002,9 4.970561,0 9,-4.0294 9,-9 0,-2.1276 -0.73442,-4.0845 -1.96875,-5.625 l 1.8125,-1.8125 -1.40625,-1.4062 -1.8125,1.8125 c -1.540539,-1.2344 -3.4974,-1.9688 -5.625,-1.9688 z m 0,2 c 3.866,0 7,3.134 7,7 0,3.866 -3.134,7 -7,7 -3.865992,0 -7.000002,-3.134 -7.000002,-7 0,-0.2102 0.0131,-0.4195 0.0312,-0.625 0.003,-0.03 -0.003,-0.063 0,-0.094 0.0153,-0.1506 0.0691,-0.2899 0.0937,-0.4375 0.0108,-0.062 0.0188,-0.1258 0.0312,-0.1875 0.0102,-0.052 0.0199,-0.1047 0.0312,-0.1563 0.0309,-0.1373 0.0552,-0.272 0.0937,-0.4062 0.0481,-0.1705 0.0959,-0.3351 0.15625,-0.5 0.9814,-2.6804 3.542203,-4.5938 6.562502,-4.5938 z m 0,1 c -2.588829,0 -4.783802,1.6401 -5.625002,3.9375 l 5.625002,2.0625 0,-6 z"
       id="path5654"
       inkscape:connector-curvature="0" />
    <path
       style="fill:#000000;fill-opacity:1;stroke:none"
       d="m 332.2452,960.04613 c -2.1276,0 -4.08446,0.7344 -5.625,1.9688 l -1.8125,-1.8125 -1.40625,1.4062 1.8125,1.8125 c -1.23433,1.5405 -1.96875,3.4974 -1.96875,5.625 0,4.9706 4.02944,9 9,9 4.97057,0 9,-4.0294 9,-9 0,-2.1276 -0.73441,-4.0845 -1.96875,-5.625 l 1.8125,-1.8125 -1.40625,-1.4062 -1.8125,1.8125 c -1.54053,-1.2344 -3.4974,-1.9688 -5.625,-1.9688 z m 0,2 c 3.86599,0 7,3.134 7,7 0,3.866 -3.13401,7 -7,7 -3.86599,0 -7,-3.134 -7,-7 0,-0.2967 0.0267,-0.5879 0.0625,-0.875 0.0139,-0.1081 0.0436,-0.206 0.0625,-0.3125 0.0359,-0.2089 0.071,-0.4227 0.125,-0.625 0.0577,-0.2159 0.14148,-0.4178 0.21875,-0.625 0.0347,-0.091 0.0554,-0.1916 0.0937,-0.2812 0.0307,-0.073 0.0606,-0.1473 0.0937,-0.2188 0.0847,-0.1828 0.1816,-0.3574 0.28125,-0.5312 1.20689,-2.1055 3.46164,-3.5313 6.0625,-3.5313 z m 0,1 c -2.23675,0 -4.18693,1.2166 -5.21875,3.0313 l 5.21875,2.9687 0,-6 z"
       id="path5659"
       inkscape:connector-curvature="0" />
    <path
       style="fill:#000000;fill-opacity:1;stroke:none"
       d="m 331.99266,979.74413 c -2.1276,0 -4.08447,0.7344 -5.625,1.9688 l -1.8125,-1.8125 -1.40625,1.4062 1.8125,1.8125 c -1.23434,1.5405 -1.96875,3.4974 -1.96875,5.62504 0,4.9706 4.02943,9 9,9 4.97056,0 9,-4.0294 9,-9 0,-2.12764 -0.73442,-4.08454 -1.96875,-5.62504 l 1.8125,-1.8125 -1.40625,-1.4062 -1.8125,1.8125 c -1.54054,-1.2344 -3.4974,-1.9688 -5.625,-1.9688 z m 0,2 c 3.866,0 7,3.134 7,7.00004 0,3.866 -3.134,7 -7,7 -3.86599,0 -7,-3.134 -7,-7 0,-0.2101 0.0131,-0.4195 0.0312,-0.625 0.003,-0.031 -0.003,-0.063 0,-0.094 0.0153,-0.1506 0.0691,-0.2899 0.0937,-0.4375 0.0105,-0.063 0.0191,-0.1255 0.0312,-0.1875 0.0102,-0.052 0.0199,-0.1047 0.0312,-0.1563 0.0304,-0.1379 0.0553,-0.2716 0.0937,-0.40624 0.0481,-0.1705 0.0959,-0.3351 0.15625,-0.5 0.0389,-0.1049 0.0812,-0.2101 0.125,-0.3125 0.0344,-0.081 0.0564,-0.1702 0.0937,-0.25 0.0397,-0.084 0.0821,-0.1682 0.125,-0.25 0.0457,-0.088 0.10695,-0.164 0.15625,-0.25 0.028,-0.048 0.0334,-0.1086 0.0625,-0.1563 0.0674,-0.1113 0.1454,-0.2054 0.21875,-0.3125 0.0753,-0.1093 0.16873,-0.2075 0.25,-0.3125 0.0549,-0.071 0.0987,-0.1498 0.15625,-0.2187 1.28406,-1.5366 3.21595,-2.5313 5.375,-2.5313 z m 0,1 c -1.84812,0 -3.49312,0.8423 -4.59375,2.1563 l 4.59375,3.84374 0,-6.00004 z"
       id="path5664"
       inkscape:connector-curvature="0" />
    <path
       style="fill:#000000;fill-opacity:1;stroke:none"
       d="m 331.99266,999.31587 c -2.12761,0 -4.08446,0.73433 -5.625,1.96873 l -1.8125,-1.81253 -1.40625,1.40633 1.8125,1.8125 c -1.23433,1.5405 -1.96875,3.4974 -1.96875,5.625 0,4.9706 4.02944,9 9,9 4.97057,0 9,-4.0294 9,-9 0,-2.1276 -0.73441,-4.0845 -1.96875,-5.625 l 1.8125,-1.8125 -1.40625,-1.40633 -1.8125,1.81253 c -1.54053,-1.2344 -3.4974,-1.96873 -5.625,-1.96873 z m 0,2.00003 c 3.86599,0 7,3.134 7,7 0,3.866 -3.13401,7 -7,7 -3.866,0 -7,-3.134 -7,-7 0,-0.2456 0.007,-0.4794 0.0312,-0.7188 0.002,-0.021 -0.002,-0.042 0,-0.062 0.0234,-0.2076 0.0838,-0.4231 0.125,-0.625 0.0105,-0.051 0.0196,-0.1052 0.0312,-0.1562 0.01,-0.043 0.0206,-0.082 0.0312,-0.125 0.041,-0.1656 0.0724,-0.3393 0.125,-0.5 0.0595,-0.1806 0.14531,-0.3574 0.21875,-0.5313 0.0793,-0.1878 0.15526,-0.3834 0.25,-0.5625 0.0512,-0.096 0.1007,-0.1874 0.15625,-0.2812 0.038,-0.064 0.0851,-0.1243 0.125,-0.1875 0.0458,-0.072 0.0766,-0.1487 0.125,-0.2188 0.113,-0.1653 0.24873,-0.3141 0.375,-0.4687 0.14434,-0.1768 0.30825,-0.3384 0.46875,-0.5 0.13266,-0.1327 0.26333,-0.2845 0.40625,-0.4063 1.22175,-1.0405 2.80069,-1.6562 4.53125,-1.6562 z m 0,1 c -1.48143,0 -2.82834,0.5477 -3.875,1.4375 l 3.875,4.5625 0,-6 z"
       id="path5669"
       inkscape:connector-curvature="0" />
    <path
       style="fill:#000000;fill-opacity:1;stroke:none"
       d="m 330.35116,1020.7816 c -2.12761,0 -4.08446,0.7344 -5.625,1.9688 l -1.8125,-1.8125 -1.40625,1.4062 1.8125,1.8125 c -1.23433,1.5405 -1.96875,3.4974 -1.96875,5.625 0,4.9706 4.02944,9 9,9 4.97057,0 9,-4.0294 9,-9 0,-2.1276 -0.73441,-4.0845 -1.96875,-5.625 l 1.8125,-1.8125 -1.40625,-1.4062 -1.8125,1.8125 c -1.54053,-1.2344 -3.4974,-1.9688 -5.625,-1.9688 z m 0,2 c 3.86599,0 7,3.134 7,7 0,3.866 -3.13401,7 -7,7 -3.86599,0 -7,-3.134 -7,-7 0,-0.2967 0.0267,-0.588 0.0625,-0.875 0.0173,-0.1376 0.0373,-0.2712 0.0625,-0.4062 0.0174,-0.094 0.0414,-0.1886 0.0625,-0.2813 0.0266,-0.1159 0.0615,-0.2301 0.0937,-0.3437 0.0389,-0.138 0.078,-0.2719 0.125,-0.4063 0.12386,-0.3528 0.26134,-0.7067 0.4375,-1.0312 0.0341,-0.063 0.0578,-0.1258 0.0937,-0.1875 0.0506,-0.087 0.10204,-0.1655 0.15625,-0.25 0.0651,-0.1012 0.14867,-0.1837 0.21875,-0.2813 0.0784,-0.1093 0.1656,-0.2079 0.25,-0.3125 0.0326,-0.04 0.0602,-0.085 0.0937,-0.125 0.12675,-0.1501 0.26749,-0.2985 0.40625,-0.4375 0.16266,-0.1629 0.32201,-0.3225 0.5,-0.4687 0.13869,-0.114 0.29019,-0.2093 0.4375,-0.3125 0.0988,-0.07 0.17875,-0.1543 0.28125,-0.2188 0.0511,-0.032 0.10429,-0.063 0.15625,-0.094 1.04336,-0.6178 2.26207,-0.9688 3.5625,-0.9688 z m 0,1 c -1.11838,0 -2.16621,0.311 -3.0625,0.8438 l 3.0625,5.1562 0,-6 z"
       id="path5674"
       inkscape:connector-curvature="0" />
    <path
       style="fill:#000000;fill-opacity:1;stroke:none"
       d="m 329.84608,1039.9745 c -2.1276,0 -4.08446,0.7344 -5.625,1.9688 l -1.8125,-1.8125 -1.40625,1.4062 1.8125,1.8125 c -1.23433,1.5405 -1.96875,3.4974 -1.96875,5.625 0,4.9706 4.02944,9 9,9 4.97056,0 9,-4.0294 9,-9 0,-2.1276 -0.73442,-4.0845 -1.96875,-5.625 l 1.8125,-1.8125 -1.40625,-1.4062 -1.8125,1.8125 c -1.54054,-1.2344 -3.4974,-1.9688 -5.625,-1.9688 z m 0,2 c 3.86599,0 7,3.134 7,7 0,3.866 -3.13401,7 -7,7 -3.86599,0 -7,-3.134 -7,-7 0,-0.3518 0.0437,-0.6933 0.0937,-1.0312 0.008,-0.053 0.0222,-0.1039 0.0312,-0.1563 0.0562,-0.3269 0.11891,-0.659 0.21875,-0.9687 0.0626,-0.1938 0.13999,-0.3767 0.21875,-0.5625 0.0578,-0.1367 0.12142,-0.2742 0.1875,-0.4063 0.15627,-0.3123 0.33181,-0.5914 0.53125,-0.875 0.18306,-0.2602 0.37781,-0.5175 0.59375,-0.75 0.0299,-0.032 0.0632,-0.062 0.0937,-0.094 0.0301,-0.031 0.0631,-0.063 0.0937,-0.094 0.20122,-0.2012 0.43186,-0.3868 0.65625,-0.5625 0.27521,-0.2154 0.53771,-0.4209 0.84375,-0.5937 0.0319,-0.018 0.0616,-0.045 0.0937,-0.062 0.27704,-0.1505 0.57698,-0.2624 0.875,-0.375 0.76899,-0.2905 1.59807,-0.4688 2.46875,-0.4688 z m 0,1 c -0.74904,0 -1.46386,0.1555 -2.125,0.4063 l 2.125,5.5937 0,-6 z"
       id="path5679"
       inkscape:connector-curvature="0" />
    <path
       style="fill:#000000;fill-opacity:1;stroke:none"
       d="m 329.21474,1059.0412 c -2.1276,0 -4.08446,0.7343 -5.625,1.9687 l -1.8125,-1.8125 -1.40625,1.4063 1.8125,1.8125 c -1.23433,1.5405 -1.96875,3.4974 -1.96875,5.625 0,4.9706 4.02944,9 9,9 4.97056,0 9,-4.0294 9,-9 0,-2.1276 -0.73442,-4.0845 -1.96875,-5.625 l 1.8125,-1.8125 -1.40625,-1.4063 -1.8125,1.8125 c -1.54054,-1.2344 -3.4974,-1.9687 -5.625,-1.9687 z m 0,2 c 3.86599,0 7,3.134 7,7 0,3.866 -3.13401,7 -7,7 -3.86599,0 -7,-3.134 -7,-7 0,-0.2102 0.0131,-0.4196 0.0312,-0.625 0.003,-0.031 -0.003,-0.063 0,-0.094 0.0153,-0.1506 0.0691,-0.2899 0.0937,-0.4375 0.0138,-0.082 0.0147,-0.1695 0.0312,-0.25 0.0316,-0.1544 0.0522,-0.3182 0.0937,-0.4687 0.0119,-0.043 0.0186,-0.082 0.0312,-0.125 0.0254,-0.086 0.0652,-0.1656 0.0937,-0.25 0.055,-0.1607 0.12136,-0.3137 0.1875,-0.4688 0.0398,-0.094 0.0813,-0.1894 0.125,-0.2812 0.004,-0.01 -0.004,-0.023 0,-0.031 0.0835,-0.1737 0.1842,-0.3346 0.28125,-0.5 0.0751,-0.1271 0.13595,-0.2532 0.21875,-0.375 0.0294,-0.043 0.0634,-0.082 0.0937,-0.125 0.0132,-0.019 0.0179,-0.044 0.0312,-0.062 0.10431,-0.1441 0.22902,-0.2707 0.34375,-0.4062 0.12937,-0.152 0.26447,-0.2972 0.40625,-0.4375 0.13793,-0.138 0.28849,-0.2802 0.4375,-0.4063 0.0215,-0.018 0.0408,-0.045 0.0625,-0.062 0.13889,-0.1146 0.28992,-0.2087 0.4375,-0.3125 0.32859,-0.2311 0.66445,-0.4211 1.03125,-0.5937 0.083,-0.039 0.16524,-0.089 0.25,-0.125 0.10468,-0.044 0.20529,-0.086 0.3125,-0.125 0.19483,-0.071 0.39124,-0.1335 0.59375,-0.1875 0.13644,-0.037 0.26665,-0.065 0.40625,-0.094 0.062,-0.013 0.12494,-0.02 0.1875,-0.031 0.39742,-0.07 0.80122,-0.125 1.21875,-0.125 z m 0,1 c -0.34873,0 -0.69883,0.037 -1.03125,0.094 l 1.03125,5.9063 0,-6 z"
       id="path5684"
       inkscape:connector-curvature="0" />
    <path
       style="fill:#000000;fill-opacity:1;stroke:none"
       d="m 330.22489,1078.7392 c -2.1276,0 -4.08446,0.7343 -5.625,1.9687 l -1.8125,-1.8125 -1.40625,1.4063 1.8125,1.8125 c -1.23433,1.5405 -1.96875,3.4974 -1.96875,5.625 0,4.9706 4.02944,9 9,9 4.97057,0 9,-4.0294 9,-9 0,-2.1276 -0.73441,-4.0845 -1.96875,-5.625 l 1.8125,-1.8125 -1.40625,-1.4063 -1.8125,1.8125 c -1.54053,-1.2344 -3.4974,-1.9687 -5.625,-1.9687 z m 0,2 c 3.86599,0 7,3.134 7,7 0,3.866 -3.13401,7 -7,7 -3.86599,0 -7,-3.134 -7,-7 0,-3.866 3.13401,-7 7,-7 z"
       id="path5689"
       inkscape:connector-curvature="0" />
    <circle
       style="opacity:1;fill:#ff0000;fill-opacity:1;stroke:none;stroke-width:0;stroke-miterlimit:4;stroke-dasharray:none;stroke-opacity:1"
       id="path4180"
       cx="11"
       cy="1041.3622"
       r="6" />
    <path
       inkscape:connector-curvature="0"
       style="fill:#000000;fill-opacity:1;stroke:none"
       d="m -33.871771,966.97277 c -2.127599,0 -4.084462,0.7343 -5.624999,1.9687 l -1.8125,-1.8125 -1.40625,1.4063 1.8125,1.8125 c -1.234333,1.5405 -1.96875,3.4974 -1.96875,5.625 0,4.9706 4.029437,9 8.999999,9 4.970563,0 9,-4.0294 9,-9 0,-2.1276 -0.734417,-4.0845 -1.96875,-5.625 l 1.8125,-1.8125 -1.40625,-1.4063 -1.8125,1.8125 c -1.540537,-1.2344 -3.4974,-1.9687 -5.625,-1.9687 z m 0,2 c 3.865993,0 7,3.134 7,7 0,3.866 -3.134007,7 -7,7 -3.865992,0 -6.999999,-3.134 -6.999999,-7 0,-3.866 3.134007,-7 6.999999,-7 z m 0,1 c -3.313708,0 -5.999999,2.6863 -5.999999,6 0,3.3137 2.686291,6 5.999999,6 3.313709,0 6,-2.6863 6,-6 0,-3.3137 -2.686291,-6 -6,-6 z"
       id="path4187" />
    <path
       inkscape:connector-curvature="0"
       id="path4189"
       d="m 11.000001,1032.3622 c -2.127601,0 -4.084462,0.7343 -5.625002,1.9687 l -1.8125,-1.8125 -1.40625,1.4063 1.8125,1.8125 c -1.23433,1.5405 -1.96875,3.4974 -1.96875,5.625 0,4.9706 4.029437,9 9.000002,9 4.97057,0 9,-4.0294 9,-9 0,-2.1276 -0.73441,-4.0845 -1.96875,-5.625 l 1.8125,-1.8125 -1.40625,-1.4063 -1.8125,1.8125 c -1.54053,-1.2344 -3.4974,-1.9687 -5.625,-1.9687 z m 0,2 c 3.86599,0 7,3.134 7,7 0,3.866 -3.13401,7 -7,7 -3.865995,0 -7.000002,-3.134 -7.000002,-7 0,-3.866 3.134007,-7 7.000002,-7 z"
       style="fill:#000000;fill-opacity:1;stroke:none" />
    <path
       style="fill:#000000;fill-opacity:1;stroke:none"
       d="m -76.326939,1080.4659 c -2.127601,0 -4.084462,0.7343 -5.625002,1.9687 l -1.8125,-1.8125 -1.40625,1.4063 1.8125,1.8125 c -1.23433,1.5405 -1.96875,3.4974 -1.96875,5.625 0,4.9706 4.029437,9 9.000002,9 4.97057,0 9,-4.0294 9,-9 0,-2.1276 -0.73441,-4.0845 -1.96875,-5.625 l 1.8125,-1.8125 -1.40625,-1.4063 -1.8125,1.8125 c -1.54053,-1.2344 -3.4974,-1.9687 -5.625,-1.9687 z m 0,2 c 3.86599,0 7,3.134 7,7 0,3.866 -3.13401,7 -7,7 -3.865995,0 -7.000002,-3.134 -7.000002,-7 0,-3.866 3.134007,-7 7.000002,-7 z"
       id="path4237"
       inkscape:connector-curvature="0" />
    <path
       style="opacity:1;fill:#ff0000;fill-opacity:1;stroke:none;stroke-width:0;stroke-miterlimit:4;stroke-dasharray:none;stroke-opacity:1"
       d="m -75.331454,1106.9792 c -2.127601,0 -4.08446,0.7343 -5.625,1.9687 l -1.8125,-1.8125 -1.40625,1.4063 1.8125,1.8125 c -1.23433,1.5405 -1.96875,3.4974 -1.96875,5.625 0,4.9706 4.029435,9 9,9 4.97057,0 9,-4.0294 9,-9 0,-2.1276 -0.73441,-4.0845 -1.96875,-5.625 l 1.8125,-1.8125 -1.40625,-1.4063 -1.8125,1.8125 c -1.54053,-1.2344 -3.4974,-1.9687 -5.625,-1.9687 z m 0,2 c 3.86599,0 7,3.134 7,7 0,3.866 -3.13401,7 -7,7 -3.865995,0 -7,-3.134 -7,-7 0,-3.866 3.134005,-7 7,-7 z m 0,1 0,6 0.626953,-5.9668 a 6,6 0 0 0 -0.626953,-0.033 z"
       id="path4309"
       inkscape:connector-curvature="0" />
    <path
       style="opacity:1;fill:#ff0000;fill-opacity:1;stroke:none;stroke-width:0;stroke-miterlimit:4;stroke-dasharray:none;stroke-opacity:1"
       d="m -75.331454,1130.2498 c -2.127601,0 -4.08446,0.7344 -5.625,1.9688 l -1.8125,-1.8125 -1.40625,1.4062 1.8125,1.8125 c -1.23433,1.5405 -1.96875,3.4974 -1.96875,5.625 0,4.9706 4.029435,9 9,9 4.97057,0 9,-4.0294 9,-9 0,-2.1276 -0.73441,-4.0845 -1.96875,-5.625 l 1.8125,-1.8125 -1.40625,-1.4062 -1.8125,1.8125 c -1.54053,-1.2344 -3.4974,-1.9688 -5.625,-1.9688 z m 0,2 c 3.86599,0 7,3.134 7,7 0,3.866 -3.13401,7 -7,7 -3.865995,0 -7,-3.134 -7,-7 0,-3.866 3.134005,-7 7,-7 z m 0,1 0,6 1.248047,-5.8691 a 6,6 0 0 0 -1.248047,-0.1309 z"
       id="path4314"
       inkscape:connector-curvature="0" />
    <path
       style="opacity:1;fill:#ff0000;fill-opacity:1;stroke:none;stroke-width:0;stroke-miterlimit:4;stroke-dasharray:none;stroke-opacity:1"
       d="m -75.331454,1153.5205 c -2.127601,0 -4.08446,0.7344 -5.625,1.9688 l -1.8125,-1.8125 -1.40625,1.4062 1.8125,1.8125 c -1.23433,1.5405 -1.96875,3.4974 -1.96875,5.625 0,4.9706 4.029435,9 9,9 4.97057,0 9,-4.0294 9,-9 0,-2.1276 -0.73441,-4.0845 -1.96875,-5.625 l 1.8125,-1.8125 -1.40625,-1.4062 -1.8125,1.8125 c -1.54053,-1.2344 -3.4974,-1.9688 -5.625,-1.9688 z m 0,2 c 3.86599,0 7,3.134 7,7 0,3.866 -3.13401,7 -7,7 -3.865995,0 -7,-3.134 -7,-7 0,-3.866 3.134005,-7 7,-7 z m 0,1 0,6 1.853516,-5.707 a 6,6 0 0 0 -1.853516,-0.293 z"
       id="path4319"
       inkscape:connector-curvature="0" />
    <path
       style="opacity:1;fill:#ff0000;fill-opacity:1;stroke:none;stroke-width:0;stroke-miterlimit:4;stroke-dasharray:none;stroke-opacity:1"
       d="m -75.331454,1176.7911 c -2.127601,0 -4.08446,0.7343 -5.625,1.9687 l -1.8125,-1.8125 -1.40625,1.4063 1.8125,1.8125 c -1.23433,1.5405 -1.96875,3.4974 -1.96875,5.625 0,4.9706 4.029435,9 9,9 4.970571,0 9.000001,-4.0294 9.000001,-9 0,-2.1276 -0.73441,-4.0845 -1.96875,-5.625 l 1.8125,-1.8125 -1.40625,-1.4063 -1.8125,1.8125 c -1.54053,-1.2344 -3.497401,-1.9687 -5.625001,-1.9687 z m 0,2 c 3.865991,0 7.000001,3.134 7.000001,7 0,3.866 -3.13401,7 -7.000001,7 -3.865995,0 -7,-3.134 -7,-7 0,-3.866 3.134005,-7 7,-7 z m 0,1 0,6 2.439453,-5.4805 a 6,6 0 0 0 -2.439453,-0.5195 z"
       id="path4324"
       inkscape:connector-curvature="0" />
    <path
       style="opacity:1;fill:#ff0000;fill-opacity:1;stroke:none;stroke-width:0;stroke-miterlimit:4;stroke-dasharray:none;stroke-opacity:1"
       d="m -75.331454,1200.0617 c -2.127601,0 -4.08446,0.7344 -5.625,1.9688 l -1.8125,-1.8125 -1.40625,1.4062 1.8125,1.8125 c -1.23433,1.5405 -1.96875,3.4974 -1.96875,5.625 0,4.9706 4.029435,9 9,9 4.97057,0 9,-4.0294 9,-9 0,-2.1276 -0.73441,-4.0845 -1.96875,-5.625 l 1.8125,-1.8125 -1.40625,-1.4062 -1.8125,1.8125 c -1.54053,-1.2344 -3.4974,-1.9688 -5.625,-1.9688 z m 0,2 c 3.86599,0 7,3.134 7,7 0,3.866 -3.13401,7 -7,7 -3.865995,0 -7,-3.134 -7,-7 0,-3.866 3.134005,-7 7,-7 z m 0,1 0,6 3,-5.1953 a 6,6 0 0 0 -3,-0.8047 z"
       id="path4329"
       inkscape:connector-curvature="0" />
    <path
       style="opacity:1;fill:#ff0000;fill-opacity:1;stroke:none;stroke-width:0;stroke-miterlimit:4;stroke-dasharray:none;stroke-opacity:1"
       d="m -75.331454,1223.3323 c -2.127601,0 -4.08446,0.7343 -5.625,1.9687 l -1.8125,-1.8125 -1.40625,1.4063 1.8125,1.8125 c -1.23433,1.5405 -1.96875,3.4974 -1.96875,5.625 0,4.9706 4.029435,9 9,9 4.97057,0 9,-4.0294 9,-9 0,-2.1276 -0.73441,-4.0845 -1.96875,-5.625 l 1.8125,-1.8125 -1.40625,-1.4063 -1.8125,1.8125 c -1.54053,-1.2344 -3.4974,-1.9687 -5.625,-1.9687 z m 0,2 c 3.86599,0 7,3.134 7,7 0,3.866 -3.13401,7 -7,7 -3.865995,0 -7,-3.134 -7,-7 0,-3.866 3.134005,-7 7,-7 z m 0,1 0,6 3.527344,-4.8535 a 6,6 0 0 0 -3.527344,-1.1465 z"
       id="path4334"
       inkscape:connector-curvature="0" />
    <path
       style="opacity:1;fill:#ff0000;fill-opacity:1;stroke:none;stroke-width:0;stroke-miterlimit:4;stroke-dasharray:none;stroke-opacity:1"
       d="m -75.331454,1246.603 c -2.127601,0 -4.08446,0.7344 -5.625,1.9688 l -1.8125,-1.8125 -1.40625,1.4062 1.8125,1.8125 c -1.23433,1.5405 -1.96875,3.4974 -1.96875,5.625 0,4.9706 4.029435,9 9,9 4.97057,0 9,-4.0294 9,-9 0,-2.1276 -0.73441,-4.0845 -1.96875,-5.625 l 1.8125,-1.8125 -1.40625,-1.4062 -1.8125,1.8125 c -1.54053,-1.2344 -3.4974,-1.9688 -5.625,-1.9688 z m 0,2 c 3.86599,0 7,3.134 7,7 0,3.866 -3.13401,7 -7,7 -3.865995,0 -7,-3.134 -7,-7 0,-3.866 3.134005,-7 7,-7 z m 0,1 0,6 4.015625,-4.459 a 6,6 0 0 0 -4.015625,-1.541 z"
       id="path4340"
       inkscape:connector-curvature="0" />
    <path
       style="opacity:1;fill:#ff0000;fill-opacity:1;stroke:none;stroke-width:0;stroke-miterlimit:4;stroke-dasharray:none;stroke-opacity:1"
       d="m -75.331454,1269.8736 c -2.127601,0 -4.08446,0.7343 -5.625,1.9687 l -1.8125,-1.8125 -1.40625,1.4063 1.8125,1.8125 c -1.23433,1.5405 -1.96875,3.4974 -1.96875,5.625 0,4.9706 4.029435,9 9,9 4.97057,0 9.000002,-4.0294 9.000002,-9 0,-2.1276 -0.734412,-4.0845 -1.968752,-5.625 l 1.812502,-1.8125 -1.406252,-1.4063 -1.8125,1.8125 c -1.54053,-1.2344 -3.4974,-1.9687 -5.625,-1.9687 z m 0,2 c 3.86599,0 7,3.134 7,7 0,3.866 -3.13401,7 -7,7 -3.865995,0 -7,-3.134 -7,-7 0,-3.866 3.134005,-7 7,-7 z m 0,1 0,6 4.458984,-4.0157 a 6,6 0 0 0 -4.458984,-1.9843 z"
       id="path4345"
       inkscape:connector-curvature="0" />
    <path
       style="opacity:1;fill:#ff0000;fill-opacity:1;stroke:none;stroke-width:0;stroke-miterlimit:4;stroke-dasharray:none;stroke-opacity:1"
       d="m -75.331454,1293.1442 c -2.1276,0 -4.08446,0.7343 -5.625,1.9687 l -1.8125,-1.8125 -1.40625,1.4063 1.8125,1.8125 c -1.23433,1.5405 -1.96875,3.4974 -1.96875,5.625 0,4.9706 4.02944,9 9,9 4.97057,0 9,-4.0294 9,-9 0,-2.1276 -0.73441,-4.0845 -1.96875,-5.625 l 1.8125,-1.8125 -1.40625,-1.4063 -1.8125,1.8125 c -1.54053,-1.2344 -3.4974,-1.9687 -5.625,-1.9687 z m 0,2 c 3.86599,0 7,3.134 7,7 0,3.866 -3.13401,7 -7,7 -3.86599,0 -7,-3.134 -7,-7 0,-3.866 3.13401,-7 7,-7 z m 0,1 0,6 4.85352,-3.5274 a 6,6 0 0 0 -4.85352,-2.4726 z"
       id="path4350"
       inkscape:connector-curvature="0" />
    <path
       style="opacity:1;fill:#ff0000;fill-opacity:1;stroke:none;stroke-width:0;stroke-miterlimit:4;stroke-dasharray:none;stroke-opacity:1"
       d="m -75.331454,1316.4148 c -2.1276,0 -4.08446,0.7343 -5.625,1.9687 l -1.8125,-1.8125 -1.40625,1.4063 1.8125,1.8125 c -1.23433,1.5405 -1.96875,3.4974 -1.96875,5.625 0,4.9706 4.02944,9 9,9 4.97057,0 9,-4.0294 9,-9 0,-2.1276 -0.73441,-4.0845 -1.96875,-5.625 l 1.8125,-1.8125 -1.40625,-1.4063 -1.8125,1.8125 c -1.54053,-1.2344 -3.4974,-1.9687 -5.625,-1.9687 z m 0,2 c 3.86599,0 7,3.134 7,7 0,3.866 -3.13401,7 -7,7 -3.86599,0 -7,-3.134 -7,-7 0,-3.866 3.13401,-7 7,-7 z m 0,1 0,6 5.19532,-3 a 6,6 0 0 0 -5.19532,-3 z"
       id="path4355"
       inkscape:connector-curvature="0" />
    <path
       style="opacity:1;fill:#ff0000;fill-opacity:1;stroke:none;stroke-width:0;stroke-miterlimit:4;stroke-dasharray:none;stroke-opacity:1"
       d="m -75.331454,1339.6855 c -2.1276,0 -4.08446,0.7343 -5.625,1.9687 l -1.8125,-1.8125 -1.40625,1.4063 1.8125,1.8125 c -1.23433,1.5405 -1.96875,3.4974 -1.96875,5.625 0,4.9706 4.02943,9 9,9 4.97057,0 9,-4.0294 9,-9 0,-2.1276 -0.73441,-4.0845 -1.96875,-5.625 l 1.8125,-1.8125 -1.40625,-1.4063 -1.8125,1.8125 c -1.54053,-1.2344 -3.4974,-1.9687 -5.625,-1.9687 z m 0,2 c 3.86599,0 7,3.134 7,7 0,3.866 -3.13401,7 -7,7 -3.866,0 -7,-3.134 -7,-7 0,-3.866 3.134,-7 7,-7 z m 0,1 0,6 5.48047,-2.4414 a 6,6 0 0 0 -5.48047,-3.5586 z"
       id="path4360"
       inkscape:connector-curvature="0" />
    <path
       style="opacity:1;fill:#ff0000;fill-opacity:1;stroke:none;stroke-width:0;stroke-miterlimit:4;stroke-dasharray:none;stroke-opacity:1"
       d="m -75.331454,1362.9561 c -2.1276,0 -4.08446,0.7344 -5.625,1.9688 l -1.8125,-1.8125 -1.40625,1.4062 1.8125,1.8125 c -1.23433,1.5405 -1.96875,3.4974 -1.96875,5.625 0,4.9706 4.02943,9 9,9 4.97057,0 9,-4.0294 9,-9 0,-2.1276 -0.73441,-4.0845 -1.96875,-5.625 l 1.8125,-1.8125 -1.40625,-1.4062 -1.8125,1.8125 c -1.54053,-1.2344 -3.4974,-1.9688 -5.625,-1.9688 z m 0,2 c 3.86599,0 7,3.134 7,7 0,3.866 -3.13401,7 -7,7 -3.866,0 -7,-3.134 -7,-7 0,-3.866 3.134,-7 7,-7 z m 0,1 0,6 5.70703,-1.8535 a 6,6 0 0 0 -5.70703,-4.1465 z"
       id="path4366"
       inkscape:connector-curvature="0" />
    <path
       style="opacity:1;fill:#ff0000;fill-opacity:1;stroke:none;stroke-width:0;stroke-miterlimit:4;stroke-dasharray:none;stroke-opacity:1"
       d="m -75.331454,1386.2267 c -2.127601,0 -4.08446,0.7344 -5.625,1.9688 l -1.8125,-1.8125 -1.40625,1.4062 1.8125,1.8125 c -1.23433,1.5405 -1.96875,3.4974 -1.96875,5.625 0,4.9706 4.029435,9 9,9 4.97057,0 9,-4.0294 9,-9 0,-2.1276 -0.73441,-4.0845 -1.96875,-5.625 l 1.8125,-1.8125 -1.40625,-1.4062 -1.8125,1.8125 c -1.54053,-1.2344 -3.4974,-1.9688 -5.625,-1.9688 z m 0,2 c 3.86599,0 7,3.134 7,7 0,3.866 -3.13401,7 -7,7 -3.865995,0 -7,-3.134 -7,-7 0,-3.866 3.134005,-7 7,-7 z m 0,1 0,6 5.869141,-1.248 a 6,6 0 0 0 -5.869141,-4.752 z"
       id="path4371"
       inkscape:connector-curvature="0" />
    <path
       style="opacity:1;fill:#ff0000;fill-opacity:1;stroke:none;stroke-width:0;stroke-miterlimit:4;stroke-dasharray:none;stroke-opacity:1"
       d="m -75.331454,1409.4974 c -2.127601,0 -4.08446,0.7343 -5.625,1.9687 l -1.8125,-1.8125 -1.40625,1.4063 1.8125,1.8125 c -1.23433,1.5405 -1.96875,3.4974 -1.96875,5.625 0,4.9706 4.029435,9 9,9 4.97057,0 9,-4.0294 9,-9 0,-2.1276 -0.73441,-4.0845 -1.96875,-5.625 l 1.8125,-1.8125 -1.40625,-1.4063 -1.8125,1.8125 c -1.54053,-1.2344 -3.4974,-1.9687 -5.625,-1.9687 z m 0,2 c 3.86599,0 7,3.134 7,7 0,3.866 -3.13401,7 -7,7 -3.865995,0 -7,-3.134 -7,-7 0,-3.866 3.134005,-7 7,-7 z m 0,1 0,6 5.966797,-0.627 a 6,6 0 0 0 -5.966797,-5.373 z"
       id="path4376"
       inkscape:connector-curvature="0" />
    <path
       style="opacity:1;fill:#ff0000;fill-opacity:1;stroke:none;stroke-width:0;stroke-miterlimit:4;stroke-dasharray:none;stroke-opacity:1"
       d="m -75.331454,1432.768 c -2.127601,0 -4.08446,0.7344 -5.625,1.9688 l -1.8125,-1.8125 -1.40625,1.4062 1.8125,1.8125 c -1.23433,1.5405 -1.96875,3.4974 -1.96875,5.625 0,4.9706 4.029435,9 9,9 4.97057,0 9,-4.0294 9,-9 0,-2.1276 -0.73441,-4.0845 -1.96875,-5.625 l 1.8125,-1.8125 -1.40625,-1.4062 -1.8125,1.8125 c -1.54053,-1.2344 -3.4974,-1.9688 -5.625,-1.9688 z m 0,2 c 3.86599,0 7,3.134 7,7 0,3.866 -3.13401,7 -7,7 -3.865995,0 -7,-3.134 -7,-7 0,-3.866 3.134005,-7 7,-7 z m 0,1 0,6 6,0 a 6,6 0 0 0 -6,-6 z"
       id="path4381"
       inkscape:connector-curvature="0" />
    <path
       style="opacity:1;fill:#ff0000;fill-opacity:1;stroke:none;stroke-width:0;stroke-miterlimit:4;stroke-dasharray:none;stroke-opacity:1"
       d="m -42.367328,1106.9792 c -2.127601,0 -4.08446,0.7344 -5.625,1.9688 l -1.8125,-1.8125 -1.40625,1.4062 1.8125,1.8125 c -1.23433,1.5405 -1.96875,3.4974 -1.96875,5.625 0,4.9706 4.029435,9 9,9 4.97057,0 9,-4.0294 9,-9 0,-2.1276 -0.73441,-4.0845 -1.96875,-5.625 l 1.8125,-1.8125 -1.40625,-1.4062 -1.8125,1.8125 c -1.54053,-1.2344 -3.4974,-1.9688 -5.625,-1.9688 z m 0,2 c 3.86599,0 7,3.134 7,7 0,3.866 -3.13401,7 -7,7 -3.865995,0 -7,-3.134 -7,-7 0,-3.866 3.134005,-7 7,-7 z m 0,1 0,6 5.966797,0.627 a 6,6 0 0 0 -1.507813,-4.6426 6,6 0 0 0 -4.458984,-1.9844 z"
       id="path4386"
       inkscape:connector-curvature="0" />
    <path
       style="opacity:1;fill:#ff0000;fill-opacity:1;stroke:none;stroke-width:0;stroke-miterlimit:4;stroke-dasharray:none;stroke-opacity:1"
       d="m -42.367328,1130.2498 c -2.127601,0 -4.08446,0.7344 -5.625,1.9688 l -1.8125,-1.8125 -1.40625,1.4062 1.8125,1.8125 c -1.23433,1.5405 -1.96875,3.4974 -1.96875,5.625 0,4.9706 4.029435,9 9,9 4.97057,0 9,-4.0294 9,-9 0,-2.1276 -0.73441,-4.0845 -1.96875,-5.625 l 1.8125,-1.8125 -1.40625,-1.4062 -1.8125,1.8125 c -1.54053,-1.2344 -3.4974,-1.9688 -5.625,-1.9688 z m 0,2 c 3.86599,0 7,3.134 7,7 0,3.866 -3.13401,7 -7,7 -3.865995,0 -7,-3.134 -7,-7 0,-3.866 3.134005,-7 7,-7 z m 0,1 0,6 5.869141,1.2481 a 6,6 0 0 0 -1.207032,-5.0235 6,6 0 0 0 -4.662109,-2.2246 z"
       id="path4391"
       inkscape:connector-curvature="0" />
    <path
       style="opacity:1;fill:#ff0000;fill-opacity:1;stroke:none;stroke-width:0;stroke-miterlimit:4;stroke-dasharray:none;stroke-opacity:1"
       d="m -42.367328,1153.5205 c -2.127601,0 -4.08446,0.7344 -5.625,1.9688 l -1.8125,-1.8125 -1.40625,1.4062 1.8125,1.8125 c -1.23433,1.5405 -1.96875,3.4974 -1.96875,5.625 0,4.9706 4.029435,9 9,9 4.97057,0 9,-4.0294 9,-9 0,-2.1276 -0.73441,-4.0845 -1.96875,-5.625 l 1.8125,-1.8125 -1.40625,-1.4062 -1.8125,1.8125 c -1.54053,-1.2344 -3.4974,-1.9688 -5.625,-1.9688 z m 0,2 c 3.86599,0 7,3.134 7,7 0,3.866 -3.13401,7 -7,7 -3.865995,0 -7,-3.134 -7,-7 0,-3.866 3.134005,-7 7,-7 z m 0,1 0,6 5.707031,1.8535 a 6,6 0 0 0 -0.853515,-5.3808 6,6 0 0 0 -4.853516,-2.4727 z"
       id="path4396"
       inkscape:connector-curvature="0" />
    <path
       style="opacity:1;fill:#ff0000;fill-opacity:1;stroke:none;stroke-width:0;stroke-miterlimit:4;stroke-dasharray:none;stroke-opacity:1"
       d="m -42.367328,1176.7911 c -2.127601,0 -4.08446,0.7343 -5.625,1.9687 l -1.8125,-1.8125 -1.40625,1.4063 1.8125,1.8125 c -1.23433,1.5405 -1.96875,3.4974 -1.96875,5.625 0,4.9706 4.029435,9 9,9 4.97057,0 9,-4.0294 9,-9 0,-2.1276 -0.73441,-4.0845 -1.96875,-5.625 l 1.8125,-1.8125 -1.40625,-1.4063 -1.8125,1.8125 c -1.54053,-1.2344 -3.4974,-1.9687 -5.625,-1.9687 z m 0,2 c 3.86599,0 7,3.134 7,7 0,3.866 -3.13401,7 -7,7 -3.865995,0 -7,-3.134 -7,-7 0,-3.866 3.134005,-7 7,-7 z m 0,1 0,6 5.480469,2.4394 a 6,6 0 0 0 -0.449219,-5.707 6,6 0 0 0 -5.03125,-2.7324 z"
       id="path4401"
       inkscape:connector-curvature="0" />
    <path
       style="opacity:1;fill:#ff0000;fill-opacity:1;stroke:none;stroke-width:0;stroke-miterlimit:4;stroke-dasharray:none;stroke-opacity:1"
       d="m -42.367328,1200.0617 c -2.127601,0 -4.08446,0.7343 -5.625,1.9687 l -1.8125,-1.8125 -1.40625,1.4063 1.8125,1.8125 c -1.23433,1.5405 -1.96875,3.4974 -1.96875,5.625 0,4.9706 4.029435,9 9,9 4.97057,0 9,-4.0294 9,-9 0,-2.1276 -0.73441,-4.0845 -1.96875,-5.625 l 1.8125,-1.8125 -1.40625,-1.4063 -1.8125,1.8125 c -1.54053,-1.2344 -3.4974,-1.9687 -5.625,-1.9687 z m 0,2 c 3.86599,0 7,3.134 7,7 0,3.866 -3.13401,7 -7,7 -3.865995,0 -7,-3.134 -7,-7 0,-3.866 3.134005,-7 7,-7 z m 0,1 0,6 5.195312,3 a 6,6 0 0 0 0,-6 6,6 0 0 0 -5.195312,-3 z"
       id="path4406"
       inkscape:connector-curvature="0" />
    <path
       style="opacity:1;fill:#ff0000;fill-opacity:1;stroke:none;stroke-width:0;stroke-miterlimit:4;stroke-dasharray:none;stroke-opacity:1"
       d="m -42.367328,1223.3323 c -2.127601,0 -4.08446,0.7343 -5.625,1.9687 l -1.8125,-1.8125 -1.40625,1.4063 1.8125,1.8125 c -1.23433,1.5405 -1.96875,3.4974 -1.96875,5.625 0,4.9706 4.029435,9 9,9 4.97057,0 9,-4.0294 9,-9 0,-2.1276 -0.73441,-4.0845 -1.96875,-5.625 l 1.8125,-1.8125 -1.40625,-1.4063 -1.8125,1.8125 c -1.54053,-1.2344 -3.4974,-1.9687 -5.625,-1.9687 z m 0,2 c 3.86599,0 7,3.134 7,7 0,3.866 -3.13401,7 -7,7 -3.865995,0 -7,-3.134 -7,-7 0,-3.866 3.134005,-7 7,-7 z m 0,1 0,6 4.853516,3.5273 a 6,6 0 0 0 0.492187,-6.2519 6,6 0 0 0 -5.345703,-3.2754 z"
       id="path4411"
       inkscape:connector-curvature="0" />
    <path
       style="opacity:1;fill:#ff0000;fill-opacity:1;stroke:none;stroke-width:0;stroke-miterlimit:4;stroke-dasharray:none;stroke-opacity:1"
       d="m -42.367328,1246.603 c -2.127601,0 -4.08446,0.7344 -5.625,1.9688 l -1.8125,-1.8125 -1.40625,1.4062 1.8125,1.8125 c -1.23433,1.5405 -1.96875,3.4974 -1.96875,5.625 0,4.9706 4.029435,9 9,9 4.970569,0 8.999999,-4.0294 8.999999,-9 0,-2.1276 -0.73441,-4.0845 -1.96875,-5.625 l 1.8125,-1.8125 -1.40625,-1.4062 -1.8125,1.8125 c -1.54053,-1.2344 -3.497399,-1.9688 -5.624999,-1.9688 z m 0,2 c 3.865989,0 6.999999,3.134 6.999999,7 0,3.866 -3.13401,7 -6.999999,7 -3.865995,0 -7,-3.134 -7,-7 0,-3.866 3.134005,-7 7,-7 z m 0,1 0,6 4.458983,4.0156 a 6,6 0 0 0 1.021485,-6.457 6,6 0 0 0 -5.480468,-3.5586 z"
       id="path4416"
       inkscape:connector-curvature="0" />
    <path
       style="opacity:1;fill:#ff0000;fill-opacity:1;stroke:none;stroke-width:0;stroke-miterlimit:4;stroke-dasharray:none;stroke-opacity:1"
       d="m -42.367328,1269.8736 c -2.127601,0 -4.08446,0.7343 -5.625,1.9687 l -1.8125,-1.8125 -1.40625,1.4063 1.8125,1.8125 c -1.23433,1.5405 -1.96875,3.4974 -1.96875,5.625 0,4.9706 4.029435,9 9,9 4.97057,0 9,-4.0294 9,-9 0,-2.1276 -0.73441,-4.0845 -1.96875,-5.625 l 1.8125,-1.8125 -1.40625,-1.4063 -1.8125,1.8125 c -1.54053,-1.2344 -3.4974,-1.9687 -5.625,-1.9687 z m 0,2 c 3.86599,0 7,3.134 7,7 0,3.866 -3.13401,7 -7,7 -3.865995,0 -7,-3.134 -7,-7 0,-3.866 3.134005,-7 7,-7 z m 0,1 0,6 4.015625,4.4589 a 6,6 0 0 0 1.585937,-6.6093 6,6 0 0 0 -5.601562,-3.8496 z"
       id="path4421"
       inkscape:connector-curvature="0" />
    <path
       style="opacity:1;fill:#ff0000;fill-opacity:1;stroke:none;stroke-width:0;stroke-miterlimit:4;stroke-dasharray:none;stroke-opacity:1"
       d="m -42.367328,1293.1442 c -2.127601,0 -4.08446,0.7344 -5.625,1.9688 l -1.8125,-1.8125 -1.40625,1.4062 1.8125,1.8125 c -1.23433,1.5405 -1.96875,3.4974 -1.96875,5.625 0,4.9706 4.029435,9 9,9 4.97057,0 9,-4.0294 9,-9 0,-2.1276 -0.73441,-4.0845 -1.96875,-5.625 l 1.8125,-1.8125 -1.40625,-1.4062 -1.8125,1.8125 c -1.54053,-1.2344 -3.4974,-1.9688 -5.625,-1.9688 z m 0,2 c 3.86599,0 7,3.134 7,7 0,3.866 -3.13401,7 -7,7 -3.865995,0 -7,-3.134 -7,-7 0,-3.866 3.134005,-7 7,-7 z m 0,1 0,6 3.527344,4.8535 a 6,6 0 0 0 2.179687,-6.707 6,6 0 0 0 -5.707031,-4.1465 z"
       id="path4426"
       inkscape:connector-curvature="0" />
    <path
       style="opacity:1;fill:#ff0000;fill-opacity:1;stroke:none;stroke-width:0;stroke-miterlimit:4;stroke-dasharray:none;stroke-opacity:1"
       d="m -42.367328,1316.4148 c -2.127601,0 -4.08446,0.7344 -5.625,1.9688 l -1.8125,-1.8125 -1.40625,1.4062 1.8125,1.8125 c -1.23433,1.5405 -1.96875,3.4974 -1.96875,5.625 0,4.9706 4.029435,9 9,9 4.970569,0 8.999999,-4.0294 8.999999,-9 0,-2.1276 -0.73441,-4.0845 -1.96875,-5.625 l 1.8125,-1.8125 -1.40625,-1.4062 -1.8125,1.8125 c -1.54053,-1.2344 -3.497399,-1.9688 -5.624999,-1.9688 z m 0,2 c 3.865989,0 6.999999,3.134 6.999999,7 0,3.866 -3.13401,7 -6.999999,7 -3.865995,0 -7,-3.134 -7,-7 0,-3.866 3.134005,-7 7,-7 z m 0,1 0,6 2.999999,5.1953 a 6,6 0 0 0 2.794922,-6.748 6,6 0 0 0 -5.794921,-4.4473 z"
       id="path4431"
       inkscape:connector-curvature="0" />
    <path
       style="opacity:1;fill:#ff0000;fill-opacity:1;stroke:none;stroke-width:0;stroke-miterlimit:4;stroke-dasharray:none;stroke-opacity:1"
       d="m -42.367328,1339.6855 c -2.127601,0 -4.08446,0.7344 -5.625,1.9688 l -1.8125,-1.8125 -1.40625,1.4062 1.8125,1.8125 c -1.23433,1.5405 -1.96875,3.4974 -1.96875,5.625 0,4.9706 4.029435,9 9,9 4.970569,0 8.999999,-4.0294 8.999999,-9 0,-2.1276 -0.73441,-4.0845 -1.96875,-5.625 l 1.8125,-1.8125 -1.40625,-1.4062 -1.8125,1.8125 c -1.54053,-1.2344 -3.497399,-1.9688 -5.624999,-1.9688 z m 0,2 c 3.865989,0 6.999999,3.134 6.999999,7 0,3.866 -3.13401,7 -6.999999,7 -3.865995,0 -7,-3.134 -7,-7 0,-3.866 3.134005,-7 7,-7 z m 0,1 0,6 2.439453,5.4805 a 6,6 0 0 0 3.429687,-6.7285 6,6 0 0 0 -5.86914,-4.752 z"
       id="path4436"
       inkscape:connector-curvature="0" />
    <path
       style="opacity:1;fill:#ff0000;fill-opacity:1;stroke:none;stroke-width:0;stroke-miterlimit:4;stroke-dasharray:none;stroke-opacity:1"
       d="m -42.367328,1362.9561 c -2.127601,0 -4.08446,0.7344 -5.625,1.9688 l -1.8125,-1.8125 -1.40625,1.4062 1.8125,1.8125 c -1.23433,1.5405 -1.96875,3.4974 -1.96875,5.625 0,4.9706 4.029435,9 9,9 4.970569,0 8.999999,-4.0294 8.999999,-9 0,-2.1276 -0.73441,-4.0845 -1.96875,-5.625 l 1.8125,-1.8125 -1.40625,-1.4062 -1.8125,1.8125 c -1.54053,-1.2344 -3.497399,-1.9688 -5.624999,-1.9688 z m 0,2 c 3.865989,0 6.999999,3.134 6.999999,7 0,3.866 -3.13401,7 -6.999999,7 -3.865995,0 -7,-3.134 -7,-7 0,-3.866 3.134005,-7 7,-7 z m 0,1 0,6 1.853516,5.707 a 6,6 0 0 0 4.072264,-6.6464 6,6 0 0 0 -5.92578,-5.0606 z"
       id="path4441"
       inkscape:connector-curvature="0" />
    <path
       style="opacity:1;fill:#ff0000;fill-opacity:1;stroke:none;stroke-width:0;stroke-miterlimit:4;stroke-dasharray:none;stroke-opacity:1"
       d="m -42.367328,1386.2267 c -2.127601,0 -4.08446,0.7343 -5.625,1.9687 l -1.8125,-1.8125 -1.40625,1.4063 1.8125,1.8125 c -1.23433,1.5405 -1.96875,3.4974 -1.96875,5.625 0,4.9706 4.029435,9 9,9 4.970569,0 8.999999,-4.0294 8.999999,-9 0,-2.1276 -0.73441,-4.0845 -1.96875,-5.625 l 1.8125,-1.8125 -1.40625,-1.4063 -1.8125,1.8125 c -1.54053,-1.2344 -3.4974,-1.9687 -5.624999,-1.9687 z m 0,2 c 3.865989,0 6.999999,3.134 6.999999,7 0,3.866 -3.13401,7 -6.999999,7 -3.865995,0 -7,-3.134 -7,-7 0,-3.866 3.134005,-7 7,-7 z m 0,1 0,6 1.248046,5.8691 a 6,6 0 0 0 4.71875,-6.4961 6,6 0 0 0 -5.966796,-5.373 z"
       id="path4446"
       inkscape:connector-curvature="0" />
    <path
       style="opacity:1;fill:#ff0000;fill-opacity:1;stroke:none;stroke-width:0;stroke-miterlimit:4;stroke-dasharray:none;stroke-opacity:1"
       d="m -42.367328,1409.4974 c -2.127601,0 -4.08446,0.7343 -5.625,1.9687 l -1.8125,-1.8125 -1.40625,1.4063 1.8125,1.8125 c -1.23433,1.5405 -1.96875,3.4974 -1.96875,5.625 0,4.9706 4.029435,9 9,9 4.970569,0 8.999999,-4.0294 8.999999,-9 0,-2.1276 -0.73441,-4.0845 -1.96875,-5.625 l 1.8125,-1.8125 -1.40625,-1.4063 -1.8125,1.8125 c -1.54053,-1.2344 -3.4974,-1.9687 -5.624999,-1.9687 z m 0,2 c 3.865989,0 6.999999,3.134 6.999999,7 0,3.866 -3.13401,7 -6.999999,7 -3.865995,0 -7,-3.134 -7,-7 0,-3.866 3.134005,-7 7,-7 z m 0,1 0,6 0.626953,5.9668 a 6,6 0 0 0 5.365234,-6.2813 6,6 0 0 0 -5.992187,-5.6855 z"
       id="path4451"
       inkscape:connector-curvature="0" />
    <path
       style="opacity:1;fill:#ff0000;fill-opacity:1;stroke:none;stroke-width:0;stroke-miterlimit:4;stroke-dasharray:none;stroke-opacity:1"
       d="m -42.367328,1432.768 c -2.127601,0 -4.08446,0.7343 -5.625,1.9687 l -1.8125,-1.8125 -1.40625,1.4063 1.8125,1.8125 c -1.23433,1.5405 -1.96875,3.4974 -1.96875,5.625 0,4.9706 4.029435,9 9,9 4.970569,0 8.999999,-4.0294 8.999999,-9 0,-2.1276 -0.73441,-4.0845 -1.96875,-5.625 l 1.8125,-1.8125 -1.40625,-1.4063 -1.8125,1.8125 c -1.54053,-1.2344 -3.4974,-1.9687 -5.624999,-1.9687 z m 0,2 c 3.865989,0 6.999999,3.134 6.999999,7 0,3.866 -3.13401,7 -6.999999,7 -3.865995,0 -7,-3.134 -7,-7 0,-3.866 3.134005,-7 7,-7 z m 0,1 0,6 0,6 a 6,6 0 0 0 5.999999,-6 6,6 0 0 0 -5.999999,-6 z"
       id="path4456"
       inkscape:connector-curvature="0" />
    <path
       style="opacity:1;fill:#ff0000;fill-opacity:1;stroke:none;stroke-width:0;stroke-miterlimit:4;stroke-dasharray:none;stroke-opacity:1"
       d="m -10.581506,1106.9792 c -2.127601,0 -4.08446,0.7343 -5.624999,1.9687 l -1.8125,-1.8125 -1.40625,1.4063 1.8125,1.8125 c -1.23433,1.5405 -1.96875,3.4974 -1.96875,5.625 0,4.9706 4.029434,9 8.999999,9 4.9705707,0 9.0000007,-4.0294 9.0000007,-9 0,-2.1276 -0.73441,-4.0845 -1.96875,-5.625 l 1.8125,-1.8125 -1.40625,-1.4063 -1.8125,1.8125 c -1.54053,-1.2344 -3.4974,-1.9687 -5.6250007,-1.9687 z m 0,2 c 3.8659907,0 7.0000007,3.134 7.0000007,7 0,3.866 -3.13401,7 -7.0000007,7 -3.865995,0 -6.999999,-3.134 -6.999999,-7 0,-3.866 3.134004,-7 6.999999,-7 z m 0,1 0,6 -0.626953,5.9667 a 6,6 0 0 0 5.6015627,-2.6113 6,6 0 0 0 0.322266,-6.1719 6,6 0 0 0 -5.2968757,-3.1835 z"
       id="path4461"
       inkscape:connector-curvature="0" />
    <path
       style="opacity:1;fill:#ff0000;fill-opacity:1;stroke:none;stroke-width:0;stroke-miterlimit:4;stroke-dasharray:none;stroke-opacity:1"
       d="m -10.581506,1130.2498 c -2.127601,0 -4.08446,0.7343 -5.625,1.9687 l -1.812498,-1.8125 -1.40625,1.4063 1.8125,1.8125 c -1.23433,1.5405 -1.96875,3.4974 -1.96875,5.625 0,4.9706 4.029433,9 8.999998,9 4.9705707,0 9.0000007,-4.0294 9.0000007,-9 0,-2.1276 -0.73441,-4.0845 -1.96875,-5.625 l 1.8125,-1.8125 -1.40625,-1.4063 -1.8125,1.8125 c -1.54053,-1.2344 -3.4974,-1.9687 -5.6250007,-1.9687 z m 0,2 c 3.8659907,0 7.0000007,3.134 7.0000007,7 0,3.866 -3.13401,7 -7.0000007,7 -3.865995,0 -6.999998,-3.134 -6.999998,-7 0,-3.866 3.134003,-7 6.999998,-7 z m 0,1 0,6 -1.248047,5.8691 a 6,6 0 0 0 5.9765637,-2.1757 6,6 0 0 0 0.664062,-6.3243 6,6 0 0 0 -5.3925787,-3.3691 z"
       id="path4466"
       inkscape:connector-curvature="0" />
    <path
       style="opacity:1;fill:#ff0000;fill-opacity:1;stroke:none;stroke-width:0;stroke-miterlimit:4;stroke-dasharray:none;stroke-opacity:1"
       d="m -10.581505,1153.5205 c -2.127601,0 -4.08446,0.7344 -5.625,1.9688 l -1.8125,-1.8125 -1.40625,1.4062 1.8125,1.8125 c -1.23433,1.5405 -1.96875,3.4974 -1.96875,5.625 0,4.9706 4.029435,9 9,9 4.9705697,0 8.9999997,-4.0294 8.9999997,-9 0,-2.1276 -0.73441,-4.0845 -1.96875,-5.625 l 1.8125,-1.8125 -1.40625,-1.4062 -1.8125,1.8125 c -1.54053,-1.2344 -3.4974,-1.9688 -5.6249997,-1.9688 z m 0,2 c 3.8659897,0 6.9999997,3.134 6.9999997,7 0,3.866 -3.13401,7 -6.9999997,7 -3.865995,0 -7,-3.134 -7,-7 0,-3.866 3.134005,-7 7,-7 z m 0,1 0,6 -1.853516,5.7071 a 6,6 0 0 0 6.3124997,-1.6915 6,6 0 0 0 1.021485,-6.457 6,6 0 0 0 -5.4804687,-3.5586 z"
       id="path4471"
       inkscape:connector-curvature="0" />
    <path
       style="opacity:1;fill:#ff0000;fill-opacity:1;stroke:none;stroke-width:0;stroke-miterlimit:4;stroke-dasharray:none;stroke-opacity:1"
       d="m -10.581505,1176.7911 c -2.127601,0 -4.08446,0.7343 -5.625,1.9687 l -1.8125,-1.8125 -1.40625,1.4063 1.8125,1.8125 c -1.23433,1.5405 -1.96875,3.4974 -1.96875,5.625 0,4.9706 4.029435,9 9,9 4.9705697,0 8.9999997,-4.0294 8.9999997,-9 0,-2.1276 -0.73441,-4.0845 -1.96875,-5.625 l 1.8125,-1.8125 -1.40625,-1.4063 -1.8125,1.8125 c -1.54053,-1.2344 -3.4974001,-1.9687 -5.6249997,-1.9687 z m 0,2 c 3.8659897,0 6.9999997,3.134 6.9999997,7 0,3.866 -3.13401,7 -6.9999997,7 -3.865995,0 -7,-3.134 -7,-7 0,-3.866 3.134005,-7 7,-7 z m 0,1 0,6 -2.439454,5.4805 a 6,6 0 0 0 6.6074227,-1.1641 6,6 0 0 0 1.394531,-6.5645 6,6 0 0 0 -5.5624997,-3.7519 z"
       id="path4476"
       inkscape:connector-curvature="0" />
    <path
       style="opacity:1;fill:#ff0000;fill-opacity:1;stroke:none;stroke-width:0;stroke-miterlimit:4;stroke-dasharray:none;stroke-opacity:1"
       d="m -10.581505,1200.0617 c -2.127601,0 -4.08446,0.7344 -5.625,1.9688 l -1.8125,-1.8125 -1.40625,1.4062 1.8125,1.8125 c -1.23433,1.5405 -1.96875,3.4974 -1.96875,5.625 0,4.9706 4.029435,9 9,9 4.9705697,0 8.9999997,-4.0294 8.9999997,-9 0,-2.1276 -0.73441,-4.0845 -1.96875,-5.625 l 1.8125,-1.8125 -1.40625,-1.4062 -1.8125,1.8125 c -1.54053,-1.2344 -3.4974,-1.9688 -5.6249997,-1.9688 z m 0,2 c 3.8659897,0 6.9999997,3.134 6.9999997,7 0,3.866 -3.13401,7 -6.9999997,7 -3.865995,0 -7,-3.134 -7,-7 0,-3.866 3.134005,-7 7,-7 z m 0,1 0,6 -3,5.1953 a 6,6 0 0 0 6.8574217,-0.5996 6,6 0 0 0 1.78125,-6.6484 6,6 0 0 0 -5.6386717,-3.9473 z"
       id="path4481"
       inkscape:connector-curvature="0" />
    <path
       style="opacity:1;fill:#ff0000;fill-opacity:1;stroke:none;stroke-width:0;stroke-miterlimit:4;stroke-dasharray:none;stroke-opacity:1"
       d="m -10.581505,1223.3323 c -2.127601,0 -4.08446,0.7343 -5.625,1.9687 l -1.812499,-1.8125 -1.40625,1.4063 1.812499,1.8125 c -1.234329,1.5405 -1.968749,3.4974 -1.968749,5.625 0,4.9706 4.029434,9 8.999999,9 4.9705697,0 8.9999997,-4.0294 8.9999997,-9 0,-2.1276 -0.73441,-4.0845 -1.96875,-5.625 l 1.8125,-1.8125 -1.40625,-1.4063 -1.8125,1.8125 c -1.54053,-1.2344 -3.4974,-1.9687 -5.6249997,-1.9687 z m 0,2 c 3.8659897,0 6.9999997,3.134 6.9999997,7 0,3.866 -3.13401,7 -6.9999997,7 -3.865995,0 -7,-3.134 -7,-7 0,-3.866 3.134005,-7 7,-7 z m 0,1 0,6 -3.527344,4.8535 a 6,6 0 0 0 7.0546877,0 6,6 0 0 0 2.179687,-6.707 6,6 0 0 0 -5.7070307,-4.1465 z"
       id="path4486"
       inkscape:connector-curvature="0" />
    <path
       style="opacity:1;fill:#ff0000;fill-opacity:1;stroke:none;stroke-width:0;stroke-miterlimit:4;stroke-dasharray:none;stroke-opacity:1"
       d="m -10.581505,1246.603 c -2.127601,0 -4.08446,0.7344 -5.625,1.9688 l -1.812499,-1.8125 -1.40625,1.4062 1.8125,1.8125 c -1.23433,1.5405 -1.96875,3.4974 -1.96875,5.625 0,4.9706 4.029434,9 8.999999,9 4.9705697,0 8.9999997,-4.0294 8.9999997,-9 0,-2.1276 -0.73441,-4.0845 -1.96875,-5.625 l 1.8125,-1.8125 -1.40625,-1.4062 -1.8125,1.8125 c -1.54053,-1.2344 -3.4974,-1.9688 -5.6249997,-1.9688 z m 0,2 c 3.8659897,0 6.9999997,3.134 6.9999997,7 0,3.866 -3.13401,7 -6.9999997,7 -3.865995,0 -6.999999,-3.134 -6.999999,-7 0,-3.866 3.134004,-7 6.999999,-7 z m 0,1 0,6 -4.015625,4.459 a 6,6 0 0 0 7.1953127,0.6289 6,6 0 0 0 2.58789,-6.7422 6,6 0 0 0 -5.7675777,-4.3457 z"
       id="path4491"
       inkscape:connector-curvature="0" />
    <path
       style="opacity:1;fill:#ff0000;fill-opacity:1;stroke:none;stroke-width:0;stroke-miterlimit:4;stroke-dasharray:none;stroke-opacity:1"
       d="m -10.581505,1269.8736 c -2.127601,0 -4.08446,0.7343 -5.625,1.9687 l -1.812499,-1.8125 -1.40625,1.4063 1.8125,1.8125 c -1.23433,1.5405 -1.96875,3.4974 -1.96875,5.625 0,4.9706 4.029434,9 8.999999,9 4.9705697,0 8.9999997,-4.0294 8.9999997,-9 0,-2.1276 -0.73441,-4.0845 -1.96875,-5.625 l 1.8125,-1.8125 -1.40625,-1.4063 -1.8125,1.8125 c -1.54053,-1.2344 -3.4974,-1.9687 -5.6249997,-1.9687 z m 0,2 c 3.8659897,0 6.9999997,3.134 6.9999997,7 0,3.866 -3.13401,7 -6.9999997,7 -3.865995,0 -6.999999,-3.134 -6.999999,-7 0,-3.866 3.134004,-7 6.999999,-7 z m 0,1 0,6 -4.458984,4.0156 a 6,6 0 0 0 7.2753897,1.2813 6,6 0 0 0 3.00586,-6.7481 6,6 0 0 0 -5.8222657,-4.5488 z"
       id="path4496"
       inkscape:connector-curvature="0" />
    <path
       style="opacity:1;fill:#ff0000;fill-opacity:1;stroke:none;stroke-width:0;stroke-miterlimit:4;stroke-dasharray:none;stroke-opacity:1"
       d="m -10.581505,1293.1442 c -2.127601,0 -4.08446,0.7343 -5.625,1.9687 l -1.812499,-1.8125 -1.40625,1.4063 1.8125,1.8125 c -1.23433,1.5405 -1.96875,3.4974 -1.96875,5.625 0,4.9706 4.029434,9 8.999999,9 4.9705697,0 8.9999997,-4.0294 8.9999997,-9 0,-2.1276 -0.73441,-4.0845 -1.96875,-5.625 l 1.8125,-1.8125 -1.40625,-1.4063 -1.8125,1.8125 c -1.54053,-1.2344 -3.4974,-1.9687 -5.6249997,-1.9687 z m 0,2 c 3.8659897,0 6.9999997,3.134 6.9999997,7 0,3.866 -3.13401,7 -6.9999997,7 -3.865995,0 -6.999999,-3.134 -6.999999,-7 0,-3.866 3.134004,-7 6.999999,-7 z m 0,1 0,6 -4.853515,3.5273 a 6,6 0 0 0 7.2929677,1.9532 6,6 0 0 0 3.429688,-6.7286 6,6 0 0 0 -5.8691407,-4.7519 z"
       id="path4501"
       inkscape:connector-curvature="0" />
    <path
       style="opacity:1;fill:#ff0000;fill-opacity:1;stroke:none;stroke-width:0;stroke-miterlimit:4;stroke-dasharray:none;stroke-opacity:1"
       d="m -10.581505,1316.4148 c -2.127601,0 -4.08446,0.7343 -5.625,1.9687 l -1.812499,-1.8125 -1.40625,1.4063 1.812499,1.8125 c -1.234329,1.5405 -1.968749,3.4974 -1.968749,5.625 0,4.9706 4.029434,9 8.999999,9 4.9705697,0 8.9999997,-4.0294 8.9999997,-9 0,-2.1276 -0.73441,-4.0845 -1.96875,-5.625 l 1.8125,-1.8125 -1.40625,-1.4063 -1.8125,1.8125 c -1.54053,-1.2344 -3.4974,-1.9687 -5.6249997,-1.9687 z m 0,2 c 3.8659897,0 6.9999997,3.134 6.9999997,7 0,3.866 -3.13401,7 -6.9999997,7 -3.865995,0 -7,-3.134 -7,-7 0,-3.866 3.134005,-7 7,-7 z m 0,1 0,6 -5.195313,3 a 6,6 0 0 0 7.2480467,2.6386 6,6 0 0 0 3.855469,-6.6796 6,6 0 0 0 -5.9082027,-4.959 z"
       id="path4506"
       inkscape:connector-curvature="0" />
    <path
       style="opacity:1;fill:#ff0000;fill-opacity:1;stroke:none;stroke-width:0;stroke-miterlimit:4;stroke-dasharray:none;stroke-opacity:1"
       d="m -10.581505,1339.6855 c -2.127602,0 -4.084461,0.7344 -5.625001,1.9687 l -1.8125,-1.8124 -1.40625,1.4062 1.8125,1.8125 c -1.23433,1.5405 -1.96875,3.4974 -1.96875,5.625 0,4.9706 4.029435,9 9.000001,9 4.9705697,0 8.9999997,-4.0294 8.9999997,-9 0,-2.1276 -0.73441,-4.0845 -1.96875,-5.625 l 1.8125,-1.8125 -1.40625,-1.4062 -1.8125,1.8124 c -1.54053,-1.2343 -3.4974,-1.9687 -5.6249997,-1.9687 z m 0,2 c 3.8659897,0 6.9999997,3.134 6.9999997,7 0,3.866 -3.13401,7 -6.9999997,7 -3.865996,0 -7.000001,-3.134 -7.000001,-7 0,-3.866 3.134005,-7 7.000001,-7 z m 0,1 0,6 -5.48047,2.4395 a 6,6 0 0 0 7.1347667,3.3281 6,6 0 0 0 4.287109,-6.6035 6,6 0 0 0 -5.9414057,-5.1641 z"
       id="path4511"
       inkscape:connector-curvature="0" />
    <path
       style="opacity:1;fill:#ff0000;fill-opacity:1;stroke:none;stroke-width:0;stroke-miterlimit:4;stroke-dasharray:none;stroke-opacity:1"
       d="m -10.581505,1362.9561 c -2.127602,0 -4.084461,0.7343 -5.625001,1.9687 l -1.8125,-1.8125 -1.40625,1.4063 1.8125,1.8125 c -1.23433,1.5405 -1.96875,3.4974 -1.96875,5.625 0,4.9706 4.029435,9 9.000001,9 4.9705697,0 8.9999997,-4.0294 8.9999997,-9 0,-2.1276 -0.73441,-4.0845 -1.96875,-5.625 l 1.8125,-1.8125 -1.40625,-1.4063 -1.8125,1.8125 c -1.54053,-1.2344 -3.4974,-1.9687 -5.6249997,-1.9687 z m 0,2 c 3.8659897,0 6.9999997,3.134 6.9999997,7 0,3.866 -3.13401,7 -6.9999997,7 -3.865996,0 -7.000001,-3.134 -7.000001,-7 0,-3.866 3.134005,-7 7.000001,-7 z m 0,1 0,6 -5.707032,1.8535 a 6,6 0 0 0 6.9550787,4.0156 6,6 0 0 0 4.71875,-6.4961 6,6 0 0 0 -5.9667967,-5.373 z"
       id="path4516"
       inkscape:connector-curvature="0" />
    <path
       style="opacity:1;fill:#ff0000;fill-opacity:1;stroke:none;stroke-width:0;stroke-miterlimit:4;stroke-dasharray:none;stroke-opacity:1"
       d="m -10.581505,1386.2267 c -2.127602,0 -4.084461,0.7343 -5.625001,1.9687 l -1.8125,-1.8125 -1.40625,1.4063 1.8125,1.8125 c -1.23433,1.5405 -1.96875,3.4974 -1.96875,5.625 0,4.9706 4.029435,9 9.000001,9 4.9705697,0 8.9999997,-4.0294 8.9999997,-9 0,-2.1276 -0.73441,-4.0845 -1.96875,-5.625 l 1.8125,-1.8125 -1.40625,-1.4063 -1.8125,1.8125 c -1.54053,-1.2344 -3.4974,-1.9687 -5.6249997,-1.9687 z m 0,2 c 3.8659897,0 6.9999997,3.134 6.9999997,7 0,3.866 -3.13401,7 -6.9999997,7 -3.865996,0 -7.000001,-3.134 -7.000001,-7 0,-3.866 3.134005,-7 7.000001,-7 z m 0,1 0,6 -5.869142,1.248 a 6,6 0 0 0 6.7050797,4.6934 6,6 0 0 0 5.15039,-6.3594 6,6 0 0 0 -5.9863277,-5.582 z"
       id="path4521"
       inkscape:connector-curvature="0" />
    <path
       style="opacity:1;fill:#ff0000;fill-opacity:1;stroke:none;stroke-width:0;stroke-miterlimit:4;stroke-dasharray:none;stroke-opacity:1"
       d="m -10.581505,1409.4974 c -2.127602,0 -4.084461,0.7343 -5.625001,1.9687 l -1.8125,-1.8125 -1.40625,1.4063 1.8125,1.8125 c -1.23433,1.5405 -1.96875,3.4974 -1.96875,5.625 0,4.9706 4.029435,9 9.000001,9 4.9705697,0 8.9999997,-4.0294 8.9999997,-9 0,-2.1276 -0.73441,-4.0845 -1.96875,-5.625 l 1.8125,-1.8125 -1.40625,-1.4063 -1.8125,1.8125 c -1.54053,-1.2344 -3.4974,-1.9687 -5.6249997,-1.9687 z m 0,2 c 3.8659897,0 6.9999997,3.134 6.9999997,7 0,3.866 -3.13401,7 -6.9999997,7 -3.865996,0 -7.000001,-3.134 -7.000001,-7 0,-3.866 3.134005,-7 7.000001,-7 z m 0,1 0,6 -5.966798,0.6269 a 6,6 0 0 0 6.384767,5.3594 6,6 0 0 0 5.5781247,-6.1953 6,6 0 0 0 -5.9960937,-5.791 z"
       id="path4526"
       inkscape:connector-curvature="0" />
    <path
       style="opacity:1;fill:#ff0000;fill-opacity:1;stroke:none;stroke-width:0;stroke-miterlimit:4;stroke-dasharray:none;stroke-opacity:1"
       d="m -10.581505,1432.768 c -2.127602,0 -4.084461,0.7344 -5.625001,1.9688 l -1.8125,-1.8125 -1.40625,1.4062 1.8125,1.8125 c -1.23433,1.5405 -1.96875,3.4974 -1.96875,5.625 0,4.9706 4.029435,9 9.000001,9 4.9705697,0 8.9999997,-4.0294 8.9999997,-9 0,-2.1276 -0.73441,-4.0845 -1.96875,-5.625 l 1.8125,-1.8125 -1.40625,-1.4062 -1.8125,1.8125 c -1.54053,-1.2344 -3.4974,-1.9688 -5.6249997,-1.9688 z m 0,2 c 3.8659897,0 6.9999997,3.134 6.9999997,7 0,3.866 -3.13401,7 -6.9999997,7 -3.865996,0 -7.000001,-3.134 -7.000001,-7 0,-3.866 3.134005,-7 7.000001,-7 z m 0,1 0,6 -6.000001,0 a 6,6 0 0 0 3.703125,5.543 6,6 0 0 0 6.5390637,-1.3008 6,6 0 0 0 1.300781,-6.539 6,6 0 0 0 -5.5429687,-3.7032 z"
       id="path4531"
       inkscape:connector-curvature="0" />
    <path
       style="opacity:1;fill:#ff0000;fill-opacity:1;stroke:none;stroke-width:0;stroke-miterlimit:4;stroke-dasharray:none;stroke-opacity:1"
       d="m 22.479524,1106.9792 c -2.127601,0 -4.08446,0.7343 -5.625,1.9687 l -1.8125,-1.8125 -1.40625,1.4063 1.8125,1.8125 c -1.23433,1.5405 -1.96875,3.4974 -1.96875,5.625 0,4.9706 4.029435,9 9,9 4.97057,0 9,-4.0294 9,-9 0,-2.1276 -0.73441,-4.0845 -1.96875,-5.625 l 1.8125,-1.8125 -1.40625,-1.4063 -1.8125,1.8125 c -1.54053,-1.2344 -3.4974,-1.9687 -5.625,-1.9687 z m 0,2 c 3.86599,0 7,3.134 7,7 0,3.866 -3.13401,7 -7,7 -3.865995,0 -7,-3.134 -7,-7 0,-3.866 3.134005,-7 7,-7 z m 0,1 0,6 -5.966796,-0.627 a 6,6 0 0 0 3.242187,5.9727 6,6 0 0 0 6.740234,-0.8868 6,6 0 0 0 1.585937,-6.6093 6,6 0 0 0 -5.601562,-3.8496 z"
       id="path4536"
       inkscape:connector-curvature="0" />
    <path
       style="opacity:1;fill:#ff0000;fill-opacity:1;stroke:none;stroke-width:0;stroke-miterlimit:4;stroke-dasharray:none;stroke-opacity:1"
       d="m 22.479524,1130.2498 c -2.127601,0 -4.08446,0.7344 -5.625,1.9688 l -1.8125,-1.8125 -1.40625,1.4062 1.8125,1.8125 c -1.23433,1.5405 -1.96875,3.4974 -1.96875,5.625 0,4.9706 4.029435,9 9,9 4.97057,0 9,-4.0294 9,-9 0,-2.1276 -0.73441,-4.0845 -1.96875,-5.625 l 1.8125,-1.8125 -1.40625,-1.4062 -1.8125,1.8125 c -1.54053,-1.2344 -3.4974,-1.9688 -5.625,-1.9688 z m 0,2 c 3.86599,0 7,3.134 7,7 0,3.866 -3.13401,7 -7,7 -3.865995,0 -7,-3.134 -7,-7 0,-3.866 3.134005,-7 7,-7 z m 0,1 0,6 -5.86914,-1.248 a 6,6 0 0 0 2.734375,6.3632 6,6 0 0 0 6.910156,-0.4531 6,6 0 0 0 1.880859,-6.664 6,6 0 0 0 -5.65625,-3.9981 z"
       id="path4544"
       inkscape:connector-curvature="0" />
    <path
       style="opacity:1;fill:#ff0000;fill-opacity:1;stroke:none;stroke-width:0;stroke-miterlimit:4;stroke-dasharray:none;stroke-opacity:1"
       d="m 22.479524,1153.5205 c -2.127601,0 -4.08446,0.7343 -5.625,1.9687 l -1.8125,-1.8125 -1.40625,1.4063 1.8125,1.8125 c -1.23433,1.5405 -1.96875,3.4974 -1.96875,5.625 0,4.9706 4.029435,9 9,9 4.97057,0 9,-4.0294 9,-9 0,-2.1276 -0.73441,-4.0845 -1.96875,-5.625 l 1.8125,-1.8125 -1.40625,-1.4063 -1.8125,1.8125 c -1.54053,-1.2344 -3.4974,-1.9687 -5.625,-1.9687 z m 0,2 c 3.86599,0 7,3.134 7,7 0,3.866 -3.13401,7 -7,7 -3.865995,0 -7,-3.134 -7,-7 0,-3.866 3.134005,-7 7,-7 z m 0,1 0,6 -5.707031,-1.8535 a 6,6 0 0 0 2.179687,6.707 6,6 0 0 0 7.054688,0 6,6 0 0 0 2.179687,-6.707 6,6 0 0 0 -5.707031,-4.1465 z"
       id="path4549"
       inkscape:connector-curvature="0" />
    <path
       style="opacity:1;fill:#ff0000;fill-opacity:1;stroke:none;stroke-width:0;stroke-miterlimit:4;stroke-dasharray:none;stroke-opacity:1"
       d="m 22.479524,1176.7911 c -2.127601,0 -4.08446,0.7343 -5.625,1.9687 l -1.8125,-1.8125 -1.40625,1.4063 1.8125,1.8125 c -1.23433,1.5405 -1.96875,3.4974 -1.96875,5.625 0,4.9706 4.029435,9 9,9 4.97057,0 9,-4.0294 9,-9 0,-2.1276 -0.73441,-4.0845 -1.96875,-5.625 l 1.8125,-1.8125 -1.40625,-1.4063 -1.8125,1.8125 c -1.54053,-1.2344 -3.4974,-1.9687 -5.625,-1.9687 z m 0,2 c 3.86599,0 7,3.134 7,7 0,3.866 -3.13401,7 -7,7 -3.865995,0 -7,-3.134 -7,-7 0,-3.866 3.134005,-7 7,-7 z m 0,1 0,6 -5.480469,-2.4414 a 6,6 0 0 0 1.583984,7.0039 6,6 0 0 0 7.164063,0.4687 6,6 0 0 0 2.484375,-6.7363 6,6 0 0 0 -5.751953,-4.2949 z"
       id="path4554"
       inkscape:connector-curvature="0" />
    <path
       style="opacity:1;fill:#ff0000;fill-opacity:1;stroke:none;stroke-width:0;stroke-miterlimit:4;stroke-dasharray:none;stroke-opacity:1"
       d="m 22.479524,1200.0617 c -2.127601,0 -4.08446,0.7344 -5.625,1.9688 l -1.8125,-1.8125 -1.40625,1.4062 1.8125,1.8125 c -1.23433,1.5405 -1.96875,3.4974 -1.96875,5.625 0,4.9706 4.029435,9 9,9 4.97057,0 9,-4.0294 9,-9 0,-2.1276 -0.73441,-4.0845 -1.96875,-5.625 l 1.8125,-1.8125 -1.40625,-1.4062 -1.8125,1.8125 c -1.54053,-1.2344 -3.4974,-1.9688 -5.625,-1.9688 z m 0,2 c 3.86599,0 7,3.134 7,7 0,3.866 -3.13401,7 -7,7 -3.865995,0 -7,-3.134 -7,-7 0,-3.866 3.134005,-7 7,-7 z m 0,1 0,6 -5.195313,-3 a 6,6 0 0 0 0.953125,7.2422 6,6 0 0 0 7.242188,0.9532 6,6 0 0 0 2.794922,-6.7481 6,6 0 0 0 -5.794922,-4.4473 z"
       id="path4559"
       inkscape:connector-curvature="0" />
    <path
       style="opacity:1;fill:#ff0000;fill-opacity:1;stroke:none;stroke-width:0;stroke-miterlimit:4;stroke-dasharray:none;stroke-opacity:1"
       d="m 22.479524,1223.3323 c -2.127601,0 -4.08446,0.7343 -5.625,1.9687 l -1.8125,-1.8125 -1.40625,1.4063 1.8125,1.8125 c -1.23433,1.5405 -1.96875,3.4974 -1.96875,5.625 0,4.9706 4.029435,9 9,9 4.97057,0 9,-4.0294 9,-9 0,-2.1276 -0.73441,-4.0845 -1.96875,-5.625 l 1.8125,-1.8125 -1.40625,-1.4063 -1.8125,1.8125 c -1.54053,-1.2344 -3.4974,-1.9687 -5.625,-1.9687 z m 0,2 c 3.86599,0 7,3.134 7,7 0,3.866 -3.13401,7 -7,7 -3.865995,0 -7,-3.134 -7,-7 0,-3.866 3.134005,-7 7,-7 z m 0,1 0,6 -4.853515,-3.5274 a 6,6 0 0 0 0.291015,7.4239 6,6 0 0 0 7.287109,1.4492 6,6 0 0 0 3.109375,-6.7461 6,6 0 0 0 -5.833984,-4.5996 z"
       id="path4564"
       inkscape:connector-curvature="0" />
    <path
       style="opacity:1;fill:#ff0000;fill-opacity:1;stroke:none;stroke-width:0;stroke-miterlimit:4;stroke-dasharray:none;stroke-opacity:1"
       d="m 22.479524,1246.603 c -2.127601,0 -4.08446,0.7343 -5.625,1.9687 l -1.8125,-1.8125 -1.40625,1.4063 1.8125,1.8125 c -1.23433,1.5405 -1.96875,3.4974 -1.96875,5.625 0,4.9706 4.029435,9 9,9 4.97057,0 9,-4.0294 9,-9 0,-2.1276 -0.73441,-4.0845 -1.96875,-5.625 l 1.8125,-1.8125 -1.40625,-1.4063 -1.8125,1.8125 c -1.54053,-1.2344 -3.4974,-1.9687 -5.625,-1.9687 z m 0,2 c 3.86599,0 7,3.134 7,7 0,3.866 -3.13401,7 -7,7 -3.865995,0 -7,-3.134 -7,-7 0,-3.866 3.134005,-7 7,-7 z m 0,1 0,6 -4.458984,-4.0157 a 6,6 0 0 0 -0.394531,7.543 6,6 0 0 0 7.292968,1.9531 6,6 0 0 0 3.429688,-6.7285 6,6 0 0 0 -5.869141,-4.7519 z"
       id="path4569"
       inkscape:connector-curvature="0" />
    <path
       style="opacity:1;fill:#ff0000;fill-opacity:1;stroke:none;stroke-width:0;stroke-miterlimit:4;stroke-dasharray:none;stroke-opacity:1"
       d="m 22.479524,1269.8736 c -2.127601,0 -4.08446,0.7344 -5.625,1.9688 l -1.8125,-1.8125 -1.40625,1.4062 1.8125,1.8125 c -1.23433,1.5405 -1.96875,3.4974 -1.96875,5.625 0,4.9706 4.029435,9 9,9 4.97057,0 9,-4.0294 9,-9 0,-2.1276 -0.73441,-4.0845 -1.96875,-5.625 l 1.8125,-1.8125 -1.40625,-1.4062 -1.8125,1.8125 c -1.54053,-1.2344 -3.4974,-1.9688 -5.625,-1.9688 z m 0,2 c 3.86599,0 7,3.134 7,7 0,3.866 -3.13401,7 -7,7 -3.865995,0 -7,-3.134 -7,-7 0,-3.866 3.134005,-7 7,-7 z m 0,1 0,6 -4.015625,-4.459 a 6,6 0 0 0 -1.09961,7.5938 6,6 0 0 0 7.265626,2.4668 6,6 0 0 0 3.75,-6.6953 6,6 0 0 0 -5.900391,-4.9063 z"
       id="path4574"
       inkscape:connector-curvature="0" />
    <path
       style="opacity:1;fill:#ff0000;fill-opacity:1;stroke:none;stroke-width:0;stroke-miterlimit:4;stroke-dasharray:none;stroke-opacity:1"
       d="m 22.479524,1293.1442 c -2.127601,0 -4.08446,0.7343 -5.625,1.9687 l -1.8125,-1.8125 -1.40625,1.4063 1.8125,1.8125 c -1.23433,1.5405 -1.96875,3.4974 -1.96875,5.625 0,4.9706 4.029435,9 9,9 4.97057,0 9,-4.0294 9,-9 0,-2.1276 -0.73441,-4.0845 -1.96875,-5.625 l 1.8125,-1.8125 -1.40625,-1.4063 -1.8125,1.8125 c -1.54053,-1.2344 -3.4974,-1.9687 -5.625,-1.9687 z m 0,2 c 3.86599,0 7,3.134 7,7 0,3.866 -3.13401,7 -7,7 -3.865995,0 -7,-3.134 -7,-7 0,-3.866 3.134005,-7 7,-7 z m 0,1 0,6 -3.527344,-4.8536 a 6,6 0 0 0 -1.818359,7.5782 6,6 0 0 0 7.199219,2.9824 6,6 0 0 0 4.072265,-6.6465 6,6 0 0 0 -5.925781,-5.0605 z"
       id="path4579"
       inkscape:connector-curvature="0" />
    <path
       style="opacity:1;fill:#ff0000;fill-opacity:1;stroke:none;stroke-width:0;stroke-miterlimit:4;stroke-dasharray:none;stroke-opacity:1"
       d="m 22.479524,1316.4148 c -2.127601,0 -4.08446,0.7344 -5.625,1.9688 l -1.8125,-1.8125 -1.40625,1.4062 1.8125,1.8125 c -1.23433,1.5405 -1.96875,3.4974 -1.96875,5.625 0,4.9706 4.029435,9 9,9 4.97057,0 8.999998,-4.0294 8.999998,-9 0,-2.1276 -0.73441,-4.0845 -1.96875,-5.625 l 1.8125,-1.8125 -1.40625,-1.4062 -1.812498,1.8125 c -1.54053,-1.2344 -3.4974,-1.9688 -5.625,-1.9688 z m 0,2 c 3.86599,0 6.999998,3.134 6.999998,7 0,3.866 -3.134008,7 -6.999998,7 -3.865995,0 -7,-3.134 -7,-7 0,-3.866 3.134005,-7 7,-7 z m 0,1 0,6 -3,-5.1953 a 6,6 0 0 0 -2.542968,7.4922 6,6 0 0 0 7.095702,3.498 6,6 0 0 0 4.396484,-6.5781 6,6 0 0 0 -5.949218,-5.2168 z"
       id="path4584"
       inkscape:connector-curvature="0" />
    <path
       style="opacity:1;fill:#ff0000;fill-opacity:1;stroke:none;stroke-width:0;stroke-miterlimit:4;stroke-dasharray:none;stroke-opacity:1"
       d="m 22.479524,1339.6855 c -2.127601,0 -4.08446,0.7343 -5.625,1.9687 l -1.8125,-1.8125 -1.40625,1.4063 1.8125,1.8125 c -1.23433,1.5405 -1.96875,3.4974 -1.96875,5.625 0,4.9706 4.029435,9 9,9 4.97057,0 8.999999,-4.0294 8.999999,-9 0,-2.1276 -0.73441,-4.0845 -1.96875,-5.625 l 1.8125,-1.8125 -1.40625,-1.4063 -1.812499,1.8125 c -1.54053,-1.2344 -3.4974,-1.9687 -5.625,-1.9687 z m 0,2 c 3.86599,0 6.999999,3.134 6.999999,7 0,3.866 -3.134009,7 -6.999999,7 -3.865995,0 -7,-3.134 -7,-7 0,-3.866 3.134005,-7 7,-7 z m 0,1 0,6 -2.439453,-5.4805 a 6,6 0 0 0 -3.267578,7.334 6,6 0 0 0 6.955078,4.0156 6,6 0 0 0 4.71875,-6.4961 6,6 0 0 0 -5.966797,-5.373 z"
       id="path4589"
       inkscape:connector-curvature="0" />
    <path
       style="opacity:1;fill:#ff0000;fill-opacity:1;stroke:none;stroke-width:0;stroke-miterlimit:4;stroke-dasharray:none;stroke-opacity:1"
       d="m 22.479524,1362.9561 c -2.127601,0 -4.08446,0.7343 -5.625,1.9687 l -1.8125,-1.8125 -1.40625,1.4063 1.8125,1.8125 c -1.23433,1.5405 -1.96875,3.4974 -1.96875,5.625 0,4.9706 4.029435,9 9,9 4.97057,0 9.000002,-4.0294 9.000002,-9 0,-2.1276 -0.73441,-4.0845 -1.968752,-5.625 l 1.812502,-1.8125 -1.406252,-1.4063 -1.8125,1.8125 c -1.54053,-1.2344 -3.4974,-1.9687 -5.625,-1.9687 z m 0,2 c 3.86599,0 7,3.134 7,7 0,3.866 -3.13401,7 -7,7 -3.865995,0 -7,-3.134 -7,-7 0,-3.866 3.134005,-7 7,-7 z m 0,1 0,6 -1.853516,-5.707 a 6,6 0 0 0 -3.980469,7.1074 6,6 0 0 0 6.773438,4.5253 6,6 0 0 0 5.042969,-6.3964 6,6 0 0 0 -5.982422,-5.5293 z"
       id="path4594"
       inkscape:connector-curvature="0" />
    <path
       style="opacity:1;fill:#ff0000;fill-opacity:1;stroke:none;stroke-width:0;stroke-miterlimit:4;stroke-dasharray:none;stroke-opacity:1"
       d="m 22.479524,1386.2267 c -2.127601,0 -4.08446,0.7344 -5.625,1.9688 l -1.8125,-1.8125 -1.40625,1.4062 1.8125,1.8125 c -1.23433,1.5405 -1.96875,3.4974 -1.96875,5.625 0,4.9706 4.029435,9 9,9 4.97057,0 9.000002,-4.0294 9.000002,-9 0,-2.1276 -0.73441,-4.0845 -1.968752,-5.625 l 1.812502,-1.8125 -1.406252,-1.4062 -1.8125,1.8125 c -1.54053,-1.2344 -3.4974,-1.9688 -5.625,-1.9688 z m 0,2 c 3.86599,0 7,3.134 7,7 0,3.866 -3.13401,7 -7,7 -3.865995,0 -7,-3.134 -7,-7 0,-3.866 3.134005,-7 7,-7 z m 0,1 0,6 -1.853516,-5.707 a 6,6 0 0 0 -3.980469,7.1074 6,6 0 0 0 6.773438,4.5254 6,6 0 0 0 5.042969,-6.3965 6,6 0 0 0 -5.982422,-5.5293 z"
       id="path4599"
       inkscape:connector-curvature="0" />
    <path
       style="opacity:1;fill:#ff0000;fill-opacity:1;stroke:none;stroke-width:0;stroke-miterlimit:4;stroke-dasharray:none;stroke-opacity:1"
       d="m 22.479524,1409.4974 c -2.127601,0 -4.08446,0.7344 -5.625,1.9688 l -1.8125,-1.8125 -1.40625,1.4062 1.8125,1.8125 c -1.23433,1.5405 -1.96875,3.4974 -1.96875,5.625 0,4.9706 4.029435,9 9,9 4.97057,0 9.000002,-4.0294 9.000002,-9 0,-2.1276 -0.73441,-4.0845 -1.968752,-5.625 l 1.812502,-1.8125 -1.406252,-1.4062 -1.8125,1.8125 c -1.54053,-1.2344 -3.4974,-1.9688 -5.625,-1.9688 z m 0,2 c 3.86599,0 7,3.134 7,7 0,3.866 -3.13401,7 -7,7 -3.865995,0 -7,-3.134 -7,-7 0,-3.866 3.134005,-7 7,-7 z m 0,1 0,6 -1.248047,-5.8691 a 6,6 0 0 0 -4.677735,6.8086 6,6 0 0 0 6.552735,5.0273 6,6 0 0 0 5.365235,-6.2812 6,6 0 0 0 -5.992188,-5.6856 z"
       id="path4604"
       inkscape:connector-curvature="0" />
    <path
       style="opacity:1;fill:#ff0000;fill-opacity:1;stroke:none;stroke-width:0;stroke-miterlimit:4;stroke-dasharray:none;stroke-opacity:1"
       d="m 22.479524,1432.768 c -2.127601,0 -4.08446,0.7343 -5.625,1.9687 l -1.8125,-1.8125 -1.40625,1.4063 1.8125,1.8125 c -1.23433,1.5405 -1.96875,3.4974 -1.96875,5.625 0,4.9706 4.029435,9 9,9 4.97057,0 8.999999,-4.0294 8.999999,-9 0,-2.1276 -0.73441,-4.0845 -1.96875,-5.625 l 1.8125,-1.8125 -1.40625,-1.4063 -1.812499,1.8125 c -1.54053,-1.2344 -3.4974,-1.9687 -5.625,-1.9687 z m 0,2 c 3.86599,0 6.999999,3.134 6.999999,7 0,3.866 -3.134009,7 -6.999999,7 -3.865995,0 -7,-3.134 -7,-7 0,-3.866 3.134005,-7 7,-7 z m 0,1 0,6 -0.626953,-5.9668 a 6,6 0 0 0 -5.355469,6.4375 6,6 0 0 0 6.296875,5.5215 6,6 0 0 0 5.683594,-6.1485 6,6 0 0 0 -5.998047,-5.8437 z"
       id="path4609"
       inkscape:connector-curvature="0" />
    <path
       style="opacity:1;fill:#ff0000;fill-opacity:1;stroke:none;stroke-width:0;stroke-miterlimit:4;stroke-dasharray:none;stroke-opacity:1"
       d="m 22.938704,1464.9107 c -2.127601,0 -4.08446,0.7343 -5.625,1.9687 l -1.8125,-1.8125 -1.40625,1.4063 1.8125,1.8125 c -1.23433,1.5405 -1.96875,3.4974 -1.96875,5.625 0,4.9706 4.029435,9 9,9 4.970575,0 9.000005,-4.0294 9.000005,-9 0,-2.1276 -0.73441,-4.0845 -1.96875,-5.625 l 1.8125,-1.8125 -1.40625,-1.4063 -1.8125,1.8125 c -1.540535,-1.2344 -3.497405,-1.9687 -5.625005,-1.9687 z m 0,2 c 3.86599,0 7.000005,3.134 7.000005,7 0,3.866 -3.134015,7 -7.000005,7 -3.865995,0 -7,-3.134 -7,-7 0,-3.866 3.134005,-7 7,-7 z m 0,1 a 6,6 0 0 0 -6,6 6,6 0 0 0 6,6 6,6 0 0 0 6.000005,-6 6,6 0 0 0 -6.000005,-6 z"
       id="circle4614"
       inkscape:connector-curvature="0" />
  </g>
</svg>
