<?xml version="1.0" encoding="UTF-8" standalone="no"?>
<!-- Created with Inkscape (http://www.inkscape.org/) -->

<svg
   xmlns:dc="http://purl.org/dc/elements/1.1/"
   xmlns:cc="http://creativecommons.org/ns#"
   xmlns:rdf="http://www.w3.org/1999/02/22-rdf-syntax-ns#"
   xmlns:svg="http://www.w3.org/2000/svg"
   xmlns="http://www.w3.org/2000/svg"
   xmlns:sodipodi="http://sodipodi.sourceforge.net/DTD/sodipodi-0.dtd"
   xmlns:inkscape="http://www.inkscape.org/namespaces/inkscape"
   width="22"
   height="22"
   id="svg2"
   version="1.1"
   inkscape:version="0.48.4 r9939"
   sodipodi:docname="pomodoro-indicator-light-22.svg">
  <defs
     id="defs4" />
  <sodipodi:namedview
     id="base"
     pagecolor="#ffffff"
     bordercolor="#666666"
     borderopacity="1.0"
     inkscape:pageopacity="0.0"
     inkscape:pageshadow="2"
     inkscape:zoom="23.681818"
     inkscape:cx="11"
     inkscape:cy="14.378119"
     inkscape:document-units="px"
     inkscape:current-layer="layer1"
     showgrid="false"
     inkscape:window-width="960"
     inkscape:window-height="1028"
     inkscape:window-x="960"
     inkscape:window-y="24"
     inkscape:window-maximized="0" />
  <metadata
     id="metadata7">
    <rdf:RDF>
      <cc:Work
         rdf:about="">
        <dc:format>image/svg+xml</dc:format>
        <dc:type
           rdf:resource="http://purl.org/dc/dcmitype/StillImage" />
        <dc:title></dc:title>
      </cc:Work>
    </rdf:RDF>
  </metadata>
  <g
     inkscape:label="Capa 1"
     inkscape:groupmode="layer"
     id="layer1"
     transform="translate(0,-1030.3622)">
    <path
       style="fill:#dfdbd2;fill-opacity:1;stroke:none"
       d="m 11,1032.3622 c -2.127599,0 -4.08447,0.7343 -5.625,1.9687 l -1.8125,-1.8125 -1.40625,1.4063 1.8125,1.8125 C 2.73441,1037.2777 2,1039.2346 2,1041.3622 c 0,4.9706 4.029431,9 9,9 4.970561,0 9,-4.0294 9,-9 0,-2.1276 -0.73442,-4.0845 -1.96875,-5.625 l 1.8125,-1.8125 -1.40625,-1.4063 -1.8125,1.8125 c -1.540539,-1.2344 -3.4974,-1.9687 -5.625,-1.9687 z m 0,2 c 3.865993,0 7,3.134 7,7 0,3.866 -3.134007,7 -7,7 -0.273519,0 -0.54716,-7e-4 -0.8125,-0.031 -0.207476,-0.024 -0.392165,-0.083 -0.59375,-0.125 -0.05148,-0.011 -0.105191,-0.02 -0.15625,-0.031 -0.02221,-0.01 -0.04037,-0.026 -0.0625,-0.031 -0.232219,-0.055 -0.464902,-0.1096 -0.6875,-0.1875 -0.141299,-0.05 -0.269244,-0.098 -0.40625,-0.1562 -0.102725,-0.044 -0.21235,-0.077 -0.3125,-0.125 -0.230109,-0.1106 -0.440942,-0.2408 -0.65625,-0.375 -0.219331,-0.1367 -0.422789,-0.2781 -0.625,-0.4375 -0.04214,-0.033 -0.08364,-0.06 -0.125,-0.094 -0.03342,-0.027 -0.06085,-0.065 -0.09375,-0.094 -0.144106,-0.1227 -0.272528,-0.2414 -0.40625,-0.375 -0.148138,-0.1482 -0.303059,-0.3079 -0.4375,-0.4688 C 4.609822,1044.6164 4,1043.0694 4,1041.3625 c 0,-3.866 3.134007,-7 7,-7 z m 0,1 c -3.313709,0 -6,2.6863 -6,6 0,1.4656 0.533437,2.8017 1.40625,3.8437 L 11,1041.3622 l 0,-6 z"
       id="path5624"
       inkscape:connector-curvature="0" />
  </g>
</svg>
