<?xml version="1.0" encoding="UTF-8" standalone="no"?>
<!-- Created with Inkscape (http://www.inkscape.org/) -->

<svg
   xmlns:dc="http://purl.org/dc/elements/1.1/"
   xmlns:cc="http://creativecommons.org/ns#"
   xmlns:rdf="http://www.w3.org/1999/02/22-rdf-syntax-ns#"
   xmlns:svg="http://www.w3.org/2000/svg"
   xmlns="http://www.w3.org/2000/svg"
   xmlns:sodipodi="http://sodipodi.sourceforge.net/DTD/sodipodi-0.dtd"
   xmlns:inkscape="http://www.inkscape.org/namespaces/inkscape"
   width="22"
   height="22"
   id="svg2"
   version="1.1"
   inkscape:version="0.48.4 r9939"
   sodipodi:docname="pomodoro-indicator-light-12.svg">
  <defs
     id="defs4" />
  <sodipodi:namedview
     id="base"
     pagecolor="#ffffff"
     bordercolor="#666666"
     borderopacity="1.0"
     inkscape:pageopacity="0.0"
     inkscape:pageshadow="2"
     inkscape:zoom="23.681818"
     inkscape:cx="11"
     inkscape:cy="14.378119"
     inkscape:document-units="px"
     inkscape:current-layer="layer1"
     showgrid="false"
     inkscape:window-width="960"
     inkscape:window-height="1028"
     inkscape:window-x="960"
     inkscape:window-y="24"
     inkscape:window-maximized="0" />
  <metadata
     id="metadata7">
    <rdf:RDF>
      <cc:Work
         rdf:about="">
        <dc:format>image/svg+xml</dc:format>
        <dc:type
           rdf:resource="http://purl.org/dc/dcmitype/StillImage" />
        <dc:title></dc:title>
      </cc:Work>
    </rdf:RDF>
  </metadata>
  <g
     inkscape:label="Capa 1"
     inkscape:groupmode="layer"
     id="layer1"
     transform="translate(0,-1030.3622)">
    <path
       style="fill:#000000;fill-opacity:1;stroke:none"
       d="m 11,1032.3622 c -2.1276,0 -4.084463,0.7343 -5.625,1.9687 l -1.8125,-1.8125 -1.40625,1.4063 1.8125,1.8125 C 2.734417,1037.2777 2,1039.2346 2,1041.3622 c 0,4.9706 4.029437,9 9,9 4.970563,0 9,-4.0294 9,-9 0,-2.1276 -0.734417,-4.0845 -1.96875,-5.625 l 1.8125,-1.8125 -1.40625,-1.4063 -1.8125,1.8125 c -1.540537,-1.2344 -3.4974,-1.9687 -5.625,-1.9687 z m 0,2 c 3.865993,0 7,3.134 7,7 0,0.2133 -0.01259,0.4169 -0.03125,0.625 -0.0027,0.031 0.0031,0.063 0,0.094 -0.0182,0.1768 -0.06259,0.3589 -0.09375,0.5313 -0.0095,0.052 -0.02062,0.1043 -0.03125,0.1562 -0.03029,0.1477 -0.05424,0.2935 -0.09375,0.4375 -0.02209,0.081 -0.03759,0.1699 -0.0625,0.25 -0.03441,0.1089 -0.08543,0.206 -0.125,0.3125 -0.03926,0.1072 -0.08072,0.2078 -0.125,0.3125 -0.03475,0.081 -0.05602,0.1704 -0.09375,0.25 -0.03918,0.084 -0.08264,0.1682 -0.125,0.25 -0.04935,0.094 -0.102755,0.1896 -0.15625,0.2813 -0.08167,0.1411 -0.158975,0.2715 -0.25,0.4062 -0.02125,0.031 -0.04076,0.063 -0.0625,0.094 -0.107072,0.1531 -0.225078,0.2937 -0.34375,0.4375 -0.0092,0.011 -0.02196,0.02 -0.03125,0.031 -1.284059,1.5365 -3.215951,2.5313 -5.375,2.5313 -3.865993,0 -7,-3.134 -7,-7 0,-3.866 3.134007,-7 7,-7 z m 0,1 c -3.313709,0 -6,2.6863 -6,6 0,3.3137 2.686291,6 6,6 1.848124,0 3.49312,-0.8423 4.59375,-2.1563 L 11,1041.3622 l 0,-6 z"
       id="path5574"
       inkscape:connector-curvature="0" />
  </g>
</svg>
