<?xml version="1.0" encoding="UTF-8" standalone="no"?>
<!-- Created with Inkscape (http://www.inkscape.org/) -->

<svg
   xmlns:dc="http://purl.org/dc/elements/1.1/"
   xmlns:cc="http://creativecommons.org/ns#"
   xmlns:rdf="http://www.w3.org/1999/02/22-rdf-syntax-ns#"
   xmlns:svg="http://www.w3.org/2000/svg"
   xmlns="http://www.w3.org/2000/svg"
   xmlns:sodipodi="http://sodipodi.sourceforge.net/DTD/sodipodi-0.dtd"
   xmlns:inkscape="http://www.inkscape.org/namespaces/inkscape"
   width="22"
   height="22"
   id="svg2"
   version="1.1"
   inkscape:version="0.48.4 r9939"
   sodipodi:docname="pomodoro-indicator-light-34.svg">
  <defs
     id="defs4" />
  <sodipodi:namedview
     id="base"
     pagecolor="#ffffff"
     bordercolor="#666666"
     borderopacity="1.0"
     inkscape:pageopacity="0.0"
     inkscape:pageshadow="2"
     inkscape:zoom="23.681818"
     inkscape:cx="11"
     inkscape:cy="14.378119"
     inkscape:document-units="px"
     inkscape:current-layer="layer1"
     showgrid="false"
     inkscape:window-width="960"
     inkscape:window-height="1028"
     inkscape:window-x="960"
     inkscape:window-y="24"
     inkscape:window-maximized="0" />
  <metadata
     id="metadata7">
    <rdf:RDF>
      <cc:Work
         rdf:about="">
        <dc:format>image/svg+xml</dc:format>
        <dc:type
           rdf:resource="http://purl.org/dc/dcmitype/StillImage" />
        <dc:title></dc:title>
      </cc:Work>
    </rdf:RDF>
  </metadata>
  <g
     inkscape:label="Capa 1"
     inkscape:groupmode="layer"
     id="layer1"
     transform="translate(0,-1030.3622)">
    <path
       style="fill:#000000;fill-opacity:1;stroke:none"
       d="m 11.000002,1032.3622 c -2.127604,0 -4.084464,0.7343 -5.625004,1.9687 l -1.8125,-1.8125 -1.40625,1.4063 1.8125,1.8125 c -1.23433,1.5405 -1.96875,3.4974 -1.96875,5.625 0,4.9706 4.029437,9 9.000004,9 4.97056,0 9,-4.0294 9,-9 0,-2.1276 -0.73442,-4.0845 -1.96875,-5.625 l 1.8125,-1.8125 -1.40625,-1.4063 -1.8125,1.8125 c -1.54054,-1.2344 -3.4974,-1.9687 -5.625,-1.9687 z m 0,2 c 3.86599,0 7,3.134 7,7 0,3.866 -3.13401,7 -7,7 -3.865997,0 -7.000004,-3.134 -7.000004,-7 0,-0.2102 0.01311,-0.4196 0.03125,-0.625 0.0028,-0.031 -0.0032,-0.063 0,-0.094 0.01529,-0.1506 0.06906,-0.2899 0.09375,-0.4375 0.01378,-0.082 0.01467,-0.1695 0.03125,-0.25 0.0316,-0.1544 0.05216,-0.3182 0.09375,-0.4687 0.01187,-0.043 0.01858,-0.082 0.03125,-0.125 0.02541,-0.086 0.06517,-0.1656 0.09375,-0.25 0.05496,-0.1607 0.121359,-0.3137 0.1875,-0.4688 0.03977,-0.094 0.08129,-0.1894 0.125,-0.2812 0.004,-0.01 -0.004,-0.023 0,-0.031 0.0835,-0.1737 0.184199,-0.3346 0.28125,-0.5 0.07511,-0.1271 0.135955,-0.2532 0.21875,-0.375 0.02939,-0.043 0.06342,-0.082 0.09375,-0.125 0.01322,-0.019 0.01785,-0.044 0.03125,-0.062 0.104309,-0.1441 0.229018,-0.2707 0.34375,-0.4062 0.129376,-0.152 0.26447,-0.2972 0.40625,-0.4375 0.137933,-0.138 0.288494,-0.2802 0.4375,-0.4063 0.02147,-0.018 0.04081,-0.045 0.0625,-0.062 0.138891,-0.1146 0.28992,-0.2087 0.4375,-0.3125 0.328593,-0.2311 0.66445,-0.4211 1.03125,-0.5937 0.08302,-0.039 0.165244,-0.089 0.25,-0.125 0.104683,-0.044 0.205287,-0.086 0.3125,-0.125 0.194836,-0.071 0.391242,-0.1335 0.59375,-0.1875 0.136446,-0.037 0.266654,-0.065 0.40625,-0.094 0.06197,-0.013 0.124942,-0.02 0.1875,-0.031 0.397424,-0.07 0.801224,-0.125 1.218754,-0.125 z m 0,1 c -0.34873,0 -0.69883,0.037 -1.031254,0.094 l 1.031254,5.9063 0,-6 z"
       id="path5684"
       inkscape:connector-curvature="0" />
  </g>
</svg>
