<?xml version="1.0" encoding="UTF-8" standalone="no"?>
<!-- Created with Inkscape (http://www.inkscape.org/) -->

<svg
   xmlns:dc="http://purl.org/dc/elements/1.1/"
   xmlns:cc="http://creativecommons.org/ns#"
   xmlns:rdf="http://www.w3.org/1999/02/22-rdf-syntax-ns#"
   xmlns:svg="http://www.w3.org/2000/svg"
   xmlns="http://www.w3.org/2000/svg"
   xmlns:sodipodi="http://sodipodi.sourceforge.net/DTD/sodipodi-0.dtd"
   xmlns:inkscape="http://www.inkscape.org/namespaces/inkscape"
   width="22"
   height="22"
   id="svg2"
   version="1.1"
   inkscape:version="0.48.4 r9939"
   sodipodi:docname="pomodoro-indicator-light-23.svg">
  <defs
     id="defs4" />
  <sodipodi:namedview
     id="base"
     pagecolor="#ffffff"
     bordercolor="#666666"
     borderopacity="1.0"
     inkscape:pageopacity="0.0"
     inkscape:pageshadow="2"
     inkscape:zoom="23.681818"
     inkscape:cx="11"
     inkscape:cy="14.378119"
     inkscape:document-units="px"
     inkscape:current-layer="layer1"
     showgrid="false"
     inkscape:window-width="960"
     inkscape:window-height="1028"
     inkscape:window-x="960"
     inkscape:window-y="24"
     inkscape:window-maximized="0" />
  <metadata
     id="metadata7">
    <rdf:RDF>
      <cc:Work
         rdf:about="">
        <dc:format>image/svg+xml</dc:format>
        <dc:type
           rdf:resource="http://purl.org/dc/dcmitype/StillImage" />
        <dc:title></dc:title>
      </cc:Work>
    </rdf:RDF>
  </metadata>
  <g
     inkscape:label="Capa 1"
     inkscape:groupmode="layer"
     id="layer1"
     transform="translate(0,-1030.3622)">
    <path
       style="fill:#dfdbd2;fill-opacity:1;stroke:none"
       d="m 11,1032.3622 c -2.1276,0 -4.08446,0.7343 -5.625,1.9687 l -1.8125,-1.8125 -1.40625,1.4063 1.8125,1.8125 C 2.73441,1037.2777 2,1039.2346 2,1041.3622 c 0,4.9706 4.02944,9 9,9 4.970561,0 9,-4.0294 9,-9 0,-2.1276 -0.73442,-4.0845 -1.96875,-5.625 l 1.8125,-1.8125 -1.40625,-1.4063 -1.8125,1.8125 c -1.540539,-1.2344 -3.4974,-1.9687 -5.625,-1.9687 z m 0,2 c 3.865993,0 7,3.134 7,7 0,3.866 -3.134007,7 -7,7 -0.242341,0 -0.482837,-0.01 -0.71875,-0.031 -0.08472,-0.01 -0.166205,-0.02 -0.25,-0.031 -0.15229,-0.021 -0.288531,-0.063 -0.4375,-0.094 -0.154431,-0.032 -0.318207,-0.052 -0.46875,-0.094 -0.03191,-0.01 -0.06203,-0.022 -0.09375,-0.031 -0.17363,-0.051 -0.332231,-0.1241 -0.5,-0.1875 -0.08282,-0.032 -0.168731,-0.059 -0.25,-0.094 -0.0087,0 -0.02256,0 -0.03125,0 -0.09552,-0.041 -0.187985,-0.08 -0.28125,-0.125 -0.160388,-0.077 -0.315429,-0.1613 -0.46875,-0.25 -0.05251,-0.031 -0.104624,-0.062 -0.15625,-0.094 -0.232748,-0.143 -0.442564,-0.3002 -0.65625,-0.4687 -0.04084,-0.032 -0.0849,-0.061 -0.125,-0.094 -0.06684,-0.055 -0.122773,-0.1299 -0.1875,-0.1875 -0.104638,-0.093 -0.213637,-0.1818 -0.3125,-0.2812 -0.107633,-0.1082 -0.212064,-0.2287 -0.3125,-0.3438 -0.116718,-0.1328 -0.237229,-0.2647 -0.34375,-0.4062 -0.183761,-0.2441 -0.348925,-0.4826 -0.5,-0.75 C 4.332684,1043.7839 4,1042.6112 4,1041.3618 c 0,-3.866 3.134007,-7 7,-7 z m 0,1 c -3.313709,0 -6,2.6863 -6,6 0,1.0674 0.292612,2.0691 0.78125,2.9375 L 11,1041.3622 l 0,-6 z"
       id="path5629"
       inkscape:connector-curvature="0" />
  </g>
</svg>
