<?xml version="1.0" encoding="UTF-8" standalone="no"?>
<!-- Created with Inkscape (http://www.inkscape.org/) -->

<svg
   xmlns:dc="http://purl.org/dc/elements/1.1/"
   xmlns:cc="http://creativecommons.org/ns#"
   xmlns:rdf="http://www.w3.org/1999/02/22-rdf-syntax-ns#"
   xmlns:svg="http://www.w3.org/2000/svg"
   xmlns="http://www.w3.org/2000/svg"
   xmlns:sodipodi="http://sodipodi.sourceforge.net/DTD/sodipodi-0.dtd"
   xmlns:inkscape="http://www.inkscape.org/namespaces/inkscape"
   width="22"
   height="22"
   id="svg2"
   version="1.1"
   inkscape:version="0.48.4 r9939"
   sodipodi:docname="pomodoro-indicator-light-07.svg">
  <defs
     id="defs4" />
  <sodipodi:namedview
     id="base"
     pagecolor="#ffffff"
     bordercolor="#666666"
     borderopacity="1.0"
     inkscape:pageopacity="0.0"
     inkscape:pageshadow="2"
     inkscape:zoom="23.681818"
     inkscape:cx="11"
     inkscape:cy="14.378119"
     inkscape:document-units="px"
     inkscape:current-layer="layer1"
     showgrid="false"
     inkscape:window-width="960"
     inkscape:window-height="1028"
     inkscape:window-x="960"
     inkscape:window-y="24"
     inkscape:window-maximized="0" />
  <metadata
     id="metadata7">
    <rdf:RDF>
      <cc:Work
         rdf:about="">
        <dc:format>image/svg+xml</dc:format>
        <dc:type
           rdf:resource="http://purl.org/dc/dcmitype/StillImage" />
        <dc:title></dc:title>
      </cc:Work>
    </rdf:RDF>
  </metadata>
  <g
     inkscape:label="Capa 1"
     inkscape:groupmode="layer"
     id="layer1"
     transform="translate(0,-1030.3622)">
    <path
       style="fill:#dfdbd2;fill-opacity:1;stroke:none"
       d="m 11,1032.3622 c -2.1276,0 -4.084463,0.7344 -5.625,1.9688 l -1.8125,-1.8125 -1.40625,1.4062 1.8125,1.8125 C 2.734417,1037.2777 2,1039.2346 2,1041.3622 c 0,4.9706 4.029438,9 9,9 4.970563,0 9,-4.0294 9,-9 0,-2.1276 -0.734417,-4.0845 -1.96875,-5.625 l 1.8125,-1.8125 -1.40625,-1.4062 -1.8125,1.8125 c -1.540537,-1.2344 -3.4974,-1.9688 -5.625,-1.9688 z m 0,2 c 0.215529,0 0.414572,0.012 0.625,0.031 0.03075,0 0.06311,0 0.09375,0 0.178862,0.019 0.356739,0.062 0.53125,0.094 0.05236,0.01 0.104302,0.021 0.15625,0.031 0.15218,0.031 0.320413,0.053 0.46875,0.094 0.07156,0.02 0.148127,0.041 0.21875,0.062 0.120242,0.038 0.226436,0.081 0.34375,0.125 0.09778,0.036 0.185591,0.085 0.28125,0.125 0.09308,0.04 0.19031,0.082 0.28125,0.125 0.0085,0 0.02276,0 0.03125,0 0.17369,0.083 0.334626,0.1842 0.5,0.2813 0.127962,0.075 0.2524,0.1359 0.375,0.2187 0.04368,0.03 0.08204,0.063 0.125,0.094 0.140392,0.1 0.273775,0.2032 0.40625,0.3125 0.02247,0.019 0.04027,0.043 0.0625,0.062 0.149005,0.1261 0.299566,0.2683 0.4375,0.4062 0.1403,0.1418 0.278381,0.2842 0.40625,0.4375 0.01866,0.022 0.04411,0.04 0.0625,0.062 0.108415,0.1332 0.213924,0.2964 0.3125,0.4375 0.231143,0.3286 0.421069,0.6645 0.59375,1.0313 0.03933,0.083 0.08892,0.1647 0.125,0.25 0.04299,0.1021 0.08675,0.208 0.125,0.3125 0.07134,0.1948 0.133427,0.3912 0.1875,0.5937 0.03519,0.1318 0.06618,0.2715 0.09375,0.4063 0.01305,0.064 0.01993,0.1233 0.03125,0.1875 0.07008,0.3974 0.125,0.8012 0.125,1.2187 0,3.866 -3.134007,7 -7,7 -3.865993,0 -7,-3.134 -7,-7 0,-3.866 3.134007,-7 7,-7 z m 0,1 c -3.313709,0 -6,2.6863 -6,6 0,3.3137 2.686291,6 6,6 3.313709,0 6,-2.6863 6,-6 0,-0.3487 -0.03665,-0.6988 -0.09375,-1.0312 L 11,1041.3622 l 0,-6 z"
       id="path5548"
       inkscape:connector-curvature="0" />
  </g>
</svg>
