<?xml version="1.0" encoding="UTF-8" standalone="no"?>
<!-- Created with Inkscape (http://www.inkscape.org/) -->

<svg
   xmlns:dc="http://purl.org/dc/elements/1.1/"
   xmlns:cc="http://creativecommons.org/ns#"
   xmlns:rdf="http://www.w3.org/1999/02/22-rdf-syntax-ns#"
   xmlns:svg="http://www.w3.org/2000/svg"
   xmlns="http://www.w3.org/2000/svg"
   xmlns:sodipodi="http://sodipodi.sourceforge.net/DTD/sodipodi-0.dtd"
   xmlns:inkscape="http://www.inkscape.org/namespaces/inkscape"
   width="22"
   height="22"
   id="svg2"
   version="1.1"
   inkscape:version="0.48.4 r9939"
   sodipodi:docname="pomodoro-indicator-light-16.svg">
  <defs
     id="defs4" />
  <sodipodi:namedview
     id="base"
     pagecolor="#ffffff"
     bordercolor="#666666"
     borderopacity="1.0"
     inkscape:pageopacity="0.0"
     inkscape:pageshadow="2"
     inkscape:zoom="23.681818"
     inkscape:cx="11"
     inkscape:cy="14.378119"
     inkscape:document-units="px"
     inkscape:current-layer="layer1"
     showgrid="false"
     inkscape:window-width="960"
     inkscape:window-height="1028"
     inkscape:window-x="960"
     inkscape:window-y="24"
     inkscape:window-maximized="0" />
  <metadata
     id="metadata7">
    <rdf:RDF>
      <cc:Work
         rdf:about="">
        <dc:format>image/svg+xml</dc:format>
        <dc:type
           rdf:resource="http://purl.org/dc/dcmitype/StillImage" />
        <dc:title></dc:title>
      </cc:Work>
    </rdf:RDF>
  </metadata>
  <g
     inkscape:label="Capa 1"
     inkscape:groupmode="layer"
     id="layer1"
     transform="translate(0,-1030.3622)">
    <path
       style="fill:#dfdbd2;fill-opacity:1;stroke:none"
       d="m 11,1032.3622 c -2.127601,0 -4.084463,0.7343 -5.625,1.9687 l -1.8125,-1.8125 -1.40625,1.4063 1.8125,1.8125 C 2.734416,1037.2777 2,1039.2346 2,1041.3622 c 0,4.9706 4.029437,9 9,9 4.970563,0 9,-4.0294 9,-9 0,-2.1276 -0.73442,-4.0845 -1.96875,-5.625 l 1.8125,-1.8125 -1.40625,-1.4063 -1.8125,1.8125 c -1.540537,-1.2344 -3.4974,-1.9687 -5.625,-1.9687 z m 0,2 c 3.865993,0 7,3.134 7,7 0,0.2155 -0.01215,0.4146 -0.03125,0.625 -0.0027,0.031 0.0031,0.063 0,0.094 -0.01863,0.1789 -0.06186,0.3568 -0.09375,0.5313 -0.0095,0.052 -0.02062,0.1043 -0.03125,0.1562 -0.03135,0.1522 -0.05265,0.3205 -0.09375,0.4688 -0.01977,0.072 -0.04053,0.1481 -0.0625,0.2187 -0.03777,0.1203 -0.08098,0.2265 -0.125,0.3438 -0.03627,0.098 -0.08454,0.1856 -0.125,0.2812 -0.03968,0.093 -0.08143,0.1904 -0.125,0.2813 -0.004,0.01 0.0041,0.023 0,0.031 -0.0835,0.1737 -0.184199,0.3347 -0.28125,0.5 -0.0751,0.128 -0.135923,0.2524 -0.21875,0.375 -0.0297,0.044 -0.06308,0.082 -0.09375,0.125 -0.09951,0.1404 -0.203172,0.2738 -0.3125,0.4063 -0.01866,0.023 -0.04357,0.04 -0.0625,0.062 -0.126087,0.149 -0.268316,0.2996 -0.40625,0.4375 -0.141779,0.1403 -0.284155,0.2784 -0.4375,0.4062 -0.02205,0.019 -0.04022,0.044 -0.0625,0.062 -0.133212,0.1085 -0.296397,0.214 -0.4375,0.3125 -0.328593,0.2312 -0.664451,0.4211 -1.03125,0.5938 -0.08355,0.039 -0.164686,0.089 -0.25,0.125 -0.102092,0.043 -0.208012,0.087 -0.3125,0.125 -0.194837,0.071 -0.391243,0.1334 -0.59375,0.1875 -0.131794,0.035 -0.271515,0.066 -0.40625,0.094 -0.0636,0.013 -0.123288,0.02 -0.1875,0.031 -0.397426,0.07 -0.801223,0.125 -1.21875,0.125 -3.865993,0 -7,-3.134 -7,-7 0,-3.866 3.134007,-7 7,-7 z m 0,1 c -3.313709,0 -6,2.6863 -6,6 0,3.3137 2.686291,6 6,6 0.348723,0 0.698823,-0.037 1.03125,-0.094 L 11,1041.362 l 0,-6 z"
       id="path5594"
       inkscape:connector-curvature="0" />
  </g>
</svg>
