<?xml version="1.0" encoding="UTF-8" standalone="no"?>
<!-- Created with Inkscape (http://www.inkscape.org/) -->

<svg
   xmlns:dc="http://purl.org/dc/elements/1.1/"
   xmlns:cc="http://creativecommons.org/ns#"
   xmlns:rdf="http://www.w3.org/1999/02/22-rdf-syntax-ns#"
   xmlns:svg="http://www.w3.org/2000/svg"
   xmlns="http://www.w3.org/2000/svg"
   xmlns:sodipodi="http://sodipodi.sourceforge.net/DTD/sodipodi-0.dtd"
   xmlns:inkscape="http://www.inkscape.org/namespaces/inkscape"
   width="22"
   height="22"
   id="svg2"
   version="1.1"
   inkscape:version="0.48.4 r9939"
   sodipodi:docname="pomodoro-indicator-light-25.svg">
  <defs
     id="defs4" />
  <sodipodi:namedview
     id="base"
     pagecolor="#ffffff"
     bordercolor="#666666"
     borderopacity="1.0"
     inkscape:pageopacity="0.0"
     inkscape:pageshadow="2"
     inkscape:zoom="23.681818"
     inkscape:cx="11"
     inkscape:cy="14.378119"
     inkscape:document-units="px"
     inkscape:current-layer="layer1"
     showgrid="false"
     inkscape:window-width="960"
     inkscape:window-height="1028"
     inkscape:window-x="960"
     inkscape:window-y="24"
     inkscape:window-maximized="0" />
  <metadata
     id="metadata7">
    <rdf:RDF>
      <cc:Work
         rdf:about="">
        <dc:format>image/svg+xml</dc:format>
        <dc:type
           rdf:resource="http://purl.org/dc/dcmitype/StillImage" />
        <dc:title></dc:title>
      </cc:Work>
    </rdf:RDF>
  </metadata>
  <g
     inkscape:label="Capa 1"
     inkscape:groupmode="layer"
     id="layer1"
     transform="translate(0,-1030.3622)">
    <path
       style="fill:#000000;fill-opacity:1;stroke:none"
       d="m 11,1032.3622 c -2.127601,0 -4.08447,0.7344 -5.625,1.9688 l -1.8125,-1.8125 -1.40625,1.4062 1.8125,1.8125 C 2.734405,1037.2777 2,1039.2346 2,1041.3622 c 0,4.9706 4.029429,9 9,9 4.97056,0 9,-4.0294 9,-9 0,-2.1276 -0.73442,-4.0845 -1.96875,-5.625 l 1.8125,-1.8125 -1.40625,-1.4062 -1.8125,1.8125 c -1.54054,-1.2344 -3.4974,-1.9688 -5.625,-1.9688 z m 0,2 c 3.865993,0 7,3.134 7,7 0,3.866 -3.134007,7 -7,7 -0.238397,0 -0.486692,-0.01 -0.71875,-0.031 -0.138368,-0.014 -0.270384,-0.041 -0.40625,-0.062 -0.09566,-0.016 -0.186968,-0.043 -0.28125,-0.062 -0.154431,-0.032 -0.318207,-0.052 -0.46875,-0.094 -0.05043,-0.014 -0.106293,-0.016 -0.15625,-0.031 -0.05344,-0.016 -0.103358,-0.045 -0.15625,-0.062 -0.185007,-0.061 -0.353523,-0.1431 -0.53125,-0.2188 -0.102725,-0.043 -0.212351,-0.077 -0.3125,-0.125 -0.17369,-0.084 -0.334626,-0.1842 -0.5,-0.2812 -0.118506,-0.07 -0.261166,-0.1417 -0.375,-0.2188 -0.0557,-0.038 -0.10171,-0.086 -0.15625,-0.125 -0.131304,-0.094 -0.250727,-0.1783 -0.375,-0.2812 -0.02803,-0.023 -0.06609,-0.039 -0.09375,-0.062 -0.141092,-0.1208 -0.275229,-0.2747 -0.40625,-0.4063 -0.0102,-0.01 -0.02111,-0.021 -0.03125,-0.031 -0.07262,-0.074 -0.14944,-0.1418 -0.21875,-0.2188 -0.06316,-0.07 -0.127151,-0.1465 -0.1875,-0.2187 -0.0096,-0.012 -0.02173,-0.02 -0.03125,-0.031 -0.114623,-0.1389 -0.208688,-0.2899 -0.3125,-0.4375 -0.113652,-0.1615 -0.24382,-0.2975 -0.34375,-0.4687 -0.0043,-0.01 0.0043,-0.024 0,-0.031 -0.205356,-0.355 -0.358748,-0.7341 -0.5,-1.125 -0.07055,-0.1952 -0.134263,-0.3908 -0.1875,-0.5937 -0.03363,-0.1271 -0.06712,-0.2453 -0.09375,-0.375 -0.01473,-0.072 -0.01875,-0.146 -0.03125,-0.2188 C 4.05837,1042.1648 4,1041.7721 4,1041.3652 c 0,-3.866 3.134007,-7 7,-7 z m 0,1 c -3.313709,0 -6,2.6863 -6,6 0,0.3487 0.03665,0.6988 0.09375,1.0313 L 11,1041.3622 l 0,-6 z"
       id="path5639"
       inkscape:connector-curvature="0" />
  </g>
</svg>
