<?xml version="1.0" encoding="UTF-8" standalone="no"?>
<!-- Created with Inkscape (http://www.inkscape.org/) -->

<svg
   xmlns:dc="http://purl.org/dc/elements/1.1/"
   xmlns:cc="http://creativecommons.org/ns#"
   xmlns:rdf="http://www.w3.org/1999/02/22-rdf-syntax-ns#"
   xmlns:svg="http://www.w3.org/2000/svg"
   xmlns="http://www.w3.org/2000/svg"
   xmlns:sodipodi="http://sodipodi.sourceforge.net/DTD/sodipodi-0.dtd"
   xmlns:inkscape="http://www.inkscape.org/namespaces/inkscape"
   width="22"
   height="22"
   id="svg2"
   version="1.1"
   inkscape:version="0.48.4 r9939"
   sodipodi:docname="pomodoro-indicator-light-24.svg">
  <defs
     id="defs4" />
  <sodipodi:namedview
     id="base"
     pagecolor="#ffffff"
     bordercolor="#666666"
     borderopacity="1.0"
     inkscape:pageopacity="0.0"
     inkscape:pageshadow="2"
     inkscape:zoom="23.681818"
     inkscape:cx="11"
     inkscape:cy="14.378119"
     inkscape:document-units="px"
     inkscape:current-layer="layer1"
     showgrid="false"
     inkscape:window-width="960"
     inkscape:window-height="1028"
     inkscape:window-x="960"
     inkscape:window-y="24"
     inkscape:window-maximized="0" />
  <metadata
     id="metadata7">
    <rdf:RDF>
      <cc:Work
         rdf:about="">
        <dc:format>image/svg+xml</dc:format>
        <dc:type
           rdf:resource="http://purl.org/dc/dcmitype/StillImage" />
        <dc:title></dc:title>
      </cc:Work>
    </rdf:RDF>
  </metadata>
  <g
     inkscape:label="Capa 1"
     inkscape:groupmode="layer"
     id="layer1"
     transform="translate(0,-1030.3622)">
    <path
       style="fill:#000000;fill-opacity:1;stroke:none"
       d="m 11,1032.3622 c -2.1275997,0 -4.0844598,0.7344 -5.6249998,1.9688 l -1.8124999,-1.8125 -1.40625,1.4062 1.8125,1.8125 c -1.23433,1.5405 -1.96875,3.4974 -1.96875,5.625 0,4.9706 4.02944,9 8.9999997,9 4.970561,0 9,-4.0294 9,-9 0,-2.1276 -0.734421,-4.0845 -1.96875,-5.625 l 1.8125,-1.8125 -1.40625,-1.4062 -1.8125,1.8125 c -1.540539,-1.2344 -3.4974,-1.9688 -5.625,-1.9688 z m 0,2 c 3.865992,0 7,3.134 7,7 0,3.866 -3.134008,7 -7,7 -0.341175,0 -0.67188,-0.047 -1.0000007,-0.094 -0.0409,-0.01 -0.08433,0.01 -0.125,0 -0.06466,-0.01 -0.123464,-0.019 -0.1875,-0.031 -0.284698,-0.054 -0.572393,-0.1313 -0.8437491,-0.2187 -0.190435,-0.062 -0.379777,-0.1408 -0.5625,-0.2188 -0.07269,-0.031 -0.147339,-0.061 -0.21875,-0.094 -0.09171,-0.043 -0.191783,-0.078 -0.28125,-0.125 -0.04089,-0.021 -0.08458,-0.041 -0.125,-0.062 -0.257709,-0.14 -0.481877,-0.2986 -0.71875,-0.4688 -0.25137,-0.1805 -0.493828,-0.3822 -0.71875,-0.5937 -0.03247,-0.031 -0.06188,-0.062 -0.09375,-0.094 -0.212437,-0.2073 -0.440192,-0.4235 -0.625,-0.6562 -0.04552,-0.058 -0.08129,-0.1279 -0.125,-0.1875 -0.402843,-0.5422 -0.7038,-1.1345 -0.9375,-1.7813 -0.268367,-0.7427 -0.4375,-1.5397 -0.4375,-2.375 0,-3.866 3.134007,-7 6.9999988,-7 z m 0,1 c -3.3137088,0 -5.9999998,2.6863 -5.9999998,6 0,0.7145 0.145847,1.3957 0.375,2.0313 L 11,1041.3622 l 0,-6 z"
       id="path5634"
       inkscape:connector-curvature="0" />
  </g>
</svg>
