<?xml version="1.0" encoding="UTF-8" standalone="no"?>
<!-- Created with Inkscape (http://www.inkscape.org/) -->

<svg
   xmlns:dc="http://purl.org/dc/elements/1.1/"
   xmlns:cc="http://creativecommons.org/ns#"
   xmlns:rdf="http://www.w3.org/1999/02/22-rdf-syntax-ns#"
   xmlns:svg="http://www.w3.org/2000/svg"
   xmlns="http://www.w3.org/2000/svg"
   xmlns:sodipodi="http://sodipodi.sourceforge.net/DTD/sodipodi-0.dtd"
   xmlns:inkscape="http://www.inkscape.org/namespaces/inkscape"
   width="22"
   height="22"
   id="svg2"
   version="1.1"
   inkscape:version="0.48.4 r9939"
   sodipodi:docname="pomodoro-indicator-light-00.svg">
  <defs
     id="defs4" />
  <sodipodi:namedview
     id="base"
     pagecolor="#ffffff"
     bordercolor="#666666"
     borderopacity="1.0"
     inkscape:pageopacity="0.0"
     inkscape:pageshadow="2"
     inkscape:zoom="23.681818"
     inkscape:cx="11"
     inkscape:cy="11"
     inkscape:document-units="px"
     inkscape:current-layer="layer1"
     showgrid="false"
     inkscape:window-width="960"
     inkscape:window-height="1028"
     inkscape:window-x="960"
     inkscape:window-y="24"
     inkscape:window-maximized="0" />
  <metadata
     id="metadata7">
    <rdf:RDF>
      <cc:Work
         rdf:about="">
        <dc:format>image/svg+xml</dc:format>
        <dc:type
           rdf:resource="http://purl.org/dc/dcmitype/StillImage" />
        <dc:title></dc:title>
      </cc:Work>
    </rdf:RDF>
  </metadata>
  <g
     inkscape:label="Capa 1"
     inkscape:groupmode="layer"
     id="layer1"
     transform="translate(0,-1030.3622)">
    <path
       style="fill:#dfdbd2;fill-opacity:1;stroke:none"
       d="m 11,1032.3622 c -2.1276012,0 -4.0844632,0.7344 -5.6250002,1.9688 l -1.8125,-1.8125 -1.40625,1.4062 1.8125,1.8125 c -1.234334,1.5405 -1.96875,3.4974 -1.96875,5.625 0,4.9706 4.029437,9 9.0000002,9 4.970563,0 9,-4.0294 9,-9 0,-2.1276 -0.734417,-4.0845 -1.96875,-5.625 l 1.8125,-1.8125 -1.40625,-1.4062 -1.8125,1.8125 c -1.540537,-1.2344 -3.4974,-1.9688 -5.625,-1.9688 z m 0,2 c 0.21408,0 0.416887,0.01 0.625,0.031 0.03075,0 0.06311,0 0.09375,0 0.176931,0.021 0.357629,0.062 0.53125,0.094 3.267457,0.5911 5.75,3.4372 5.75,6.875 0,3.866 -3.134007,7 -7,7 -3.8659932,0 -7.0000002,-3.134 -7.0000002,-7 0,-3.866 3.134007,-7 7.0000002,-7 z m 0,1 c -3.3137092,0 -6.0000002,2.6863 -6.0000002,6 0,3.3137 2.686291,6 6.0000002,6 3.313709,0 6,-2.6863 6,-6 0,-2.9543 -2.126061,-5.4084 -4.9375,-5.9062 l -1.0625,5.9062 0,-6 z"
       id="path5494"
       inkscape:connector-curvature="0" />
  </g>
</svg>
